<?xml version="1.0" encoding="UTF-8" standalone="no"?>
<mlt LC_NUMERIC="C" version="6.23.0" title="Shotcut version 20.09.13" producer="main_bin">
  <profile description="PAL 4:3 DV or DVD" width="1920" height="1080" progressive="1" sample_aspect_num="1" sample_aspect_den="1" display_aspect_num="16" display_aspect_den="9" frame_rate_num="25" frame_rate_den="1" colorspace="709"/>
  <producer id="producer0" in="00:00:00.000" out="00:17:52.160">
    <property name="length">00:17:52.200</property>
    <property name="eof">pause</property>
    <property name="resource">T:/video/para/piemont_2020/0510/rw_start_uwe0510.MP4</property>
    <property name="audio_index">1</property>
    <property name="video_index">0</property>
    <property name="mute_on_pause">0</property>
    <property name="mlt_service">avformat-novalidate</property>
    <property name="seekable">1</property>
    <property name="aspect_ratio">1</property>
    <property name="creation_time">2020-10-04T00:25:06</property>
    <property name="shotcut:hash">a473e13cc692b0c2a067728613e1931d</property>
    <property name="global_feed">1</property>
    <property name="xml">was here</property>
  </producer>
  <producer id="producer1" in="00:00:00.000" out="00:09:12.560">
    <property name="length">00:09:12.600</property>
    <property name="eof">pause</property>
    <property name="resource">T:/video/para/piemont_2020/0510/start_janina_und_uwe0510.MP4</property>
    <property name="audio_index">1</property>
    <property name="video_index">0</property>
    <property name="mute_on_pause">0</property>
    <property name="mlt_service">avformat-novalidate</property>
    <property name="seekable">1</property>
    <property name="aspect_ratio">1</property>
    <property name="creation_time">2020-10-04T03:12:20</property>
    <property name="shotcut:hash">832f95af6d4902a31c2711a12181e05a</property>
    <property name="global_feed">1</property>
    <property name="xml">was here</property>
  </producer>
  <producer id="producer2" in="00:00:00.000" out="00:09:28.320">
    <property name="length">00:09:28.360</property>
    <property name="eof">pause</property>
    <property name="resource">T:/video/para/piemont_2020/0510/UweBelice0510.MP4</property>
    <property name="audio_index">1</property>
    <property name="video_index">0</property>
    <property name="mute_on_pause">0</property>
    <property name="mlt_service">avformat-novalidate</property>
    <property name="seekable">1</property>
    <property name="aspect_ratio">1</property>
    <property name="creation_time">2020-10-03T22:15:35</property>
    <property name="shotcut:hash">376b8ea67d8a8ba1689586c1cb5fc8b8</property>
    <property name="global_feed">1</property>
    <property name="xml">was here</property>
    <property name="ignore_points">1</property>
    <property name="shotcut:caption">UweBelice0510.MP4</property>
  </producer>
  <producer id="producer3" in="00:00:00.000" out="00:00:21.600">
    <property name="length">00:00:21.640</property>
    <property name="eof">pause</property>
    <property name="resource">T:/video/para/piemont_2020/0510/franz0510.MP4</property>
    <property name="audio_index">1</property>
    <property name="video_index">0</property>
    <property name="mute_on_pause">0</property>
    <property name="mlt_service">avformat-novalidate</property>
    <property name="seekable">1</property>
    <property name="aspect_ratio">1</property>
    <property name="creation_time">2020-10-03T22:33:15</property>
    <property name="shotcut:hash">9be99588c780832f2b103bab9c53b81e</property>
    <property name="global_feed">1</property>
    <property name="xml">was here</property>
    <property name="ignore_points">1</property>
    <property name="shotcut:caption">franz0510.MP4</property>
  </producer>
  <producer id="producer4" in="00:00:00.000" out="00:00:14.400">
    <property name="length">00:00:14.440</property>
    <property name="eof">pause</property>
    <property name="resource">T:/video/para/piemont_2020/0510/janina0510.MP4</property>
    <property name="audio_index">1</property>
    <property name="video_index">0</property>
    <property name="mute_on_pause">0</property>
    <property name="mlt_service">avformat-novalidate</property>
    <property name="seekable">1</property>
    <property name="aspect_ratio">1</property>
    <property name="creation_time">2020-10-03T22:39:52</property>
    <property name="shotcut:hash">21c006c15412b4e15926ed619f6216ed</property>
    <property name="global_feed">1</property>
    <property name="xml">was here</property>
    <property name="ignore_points">1</property>
    <property name="shotcut:caption">janina0510.MP4</property>
  </producer>
  <producer id="producer5" in="00:00:00.000" out="00:00:11.840">
    <property name="length">00:00:11.880</property>
    <property name="eof">pause</property>
    <property name="resource">T:/video/para/piemont_2020/0510/Peter0510.MP4</property>
    <property name="audio_index">1</property>
    <property name="video_index">0</property>
    <property name="mute_on_pause">0</property>
    <property name="mlt_service">avformat-novalidate</property>
    <property name="seekable">1</property>
    <property name="aspect_ratio">1</property>
    <property name="creation_time">2020-10-04T03:29:28</property>
    <property name="shotcut:hash">272abd5e5424f82dd95f3c0c963b4630</property>
    <property name="global_feed">1</property>
    <property name="xml">was here</property>
    <property name="ignore_points">1</property>
    <property name="shotcut:caption">Peter0510.MP4</property>
  </producer>
  <producer id="producer6" in="00:00:00.000" out="00:00:24.520">
    <property name="length">00:00:24.560</property>
    <property name="eof">pause</property>
    <property name="resource">T:/video/para/piemont_2020/0510/robert0510.MP4</property>
    <property name="audio_index">1</property>
    <property name="video_index">0</property>
    <property name="mute_on_pause">0</property>
    <property name="mlt_service">avformat-novalidate</property>
    <property name="seekable">1</property>
    <property name="aspect_ratio">1</property>
    <property name="creation_time">2020-10-03T22:32:22</property>
    <property name="shotcut:hash">7c8fffe74ee05a9eb06deee1ec577e77</property>
    <property name="global_feed">1</property>
    <property name="xml">was here</property>
    <property name="ignore_points">1</property>
    <property name="shotcut:caption">robert0510.MP4</property>
  </producer>
  <producer id="producer7" in="00:00:00.000" out="00:00:28.560">
    <property name="length">00:00:28.600</property>
    <property name="eof">pause</property>
    <property name="resource">T:/video/para/piemont_2020/0610/Peter0610_2.MP4</property>
    <property name="audio_index">1</property>
    <property name="video_index">0</property>
    <property name="mute_on_pause">0</property>
    <property name="mlt_service">avformat-novalidate</property>
    <property name="seekable">1</property>
    <property name="aspect_ratio">1</property>
    <property name="creation_time">2020-10-04T21:46:09</property>
    <property name="shotcut:hash">212f637a2de6df1bc9c266560c0ad407</property>
    <property name="global_feed">1</property>
    <property name="xml">was here</property>
    <property name="ignore_points">1</property>
    <property name="shotcut:caption">Peter0610_2.MP4</property>
  </producer>
  <producer id="producer8" in="00:00:00.000" out="00:00:15.440">
    <property name="length">00:00:15.480</property>
    <property name="eof">pause</property>
    <property name="resource">T:/video/para/piemont_2020/0610/StartPeter0610_2.MP4</property>
    <property name="audio_index">1</property>
    <property name="video_index">0</property>
    <property name="mute_on_pause">0</property>
    <property name="mlt_service">avformat-novalidate</property>
    <property name="seekable">1</property>
    <property name="aspect_ratio">1</property>
    <property name="creation_time">2020-10-05T00:36:37</property>
    <property name="shotcut:hash">da07171c09fdc9eed4a68fa33c8c6f51</property>
    <property name="global_feed">1</property>
    <property name="xml">was here</property>
  </producer>
  <producer id="producer9" in="00:00:00.000" out="00:00:14.880">
    <property name="length">00:00:14.920</property>
    <property name="eof">pause</property>
    <property name="resource">T:/video/para/piemont_2020/0610/Janina_0610_2.MP4</property>
    <property name="audio_index">1</property>
    <property name="video_index">0</property>
    <property name="mute_on_pause">0</property>
    <property name="mlt_service">avformat-novalidate</property>
    <property name="seekable">1</property>
    <property name="aspect_ratio">1</property>
    <property name="creation_time">2020-10-05T00:49:24</property>
    <property name="shotcut:hash">88d8270e420414cace8a216383a7e233</property>
    <property name="global_feed">1</property>
    <property name="xml">was here</property>
    <property name="ignore_points">1</property>
    <property name="shotcut:caption">Janina_0610_2.MP4</property>
  </producer>
  <producer id="producer10" in="00:00:00.000" out="00:00:22.600">
    <property name="length">00:00:22.640</property>
    <property name="eof">pause</property>
    <property name="resource">T:/video/para/piemont_2020/0610/Janina_Thomas_0610.MP4</property>
    <property name="audio_index">1</property>
    <property name="video_index">0</property>
    <property name="mute_on_pause">0</property>
    <property name="mlt_service">avformat-novalidate</property>
    <property name="seekable">1</property>
    <property name="aspect_ratio">1</property>
    <property name="creation_time">2020-10-04T21:54:58</property>
    <property name="shotcut:hash">9c81bb94d265128f78ccb325da9fc42f</property>
    <property name="global_feed">1</property>
    <property name="xml">was here</property>
    <property name="ignore_points">1</property>
    <property name="shotcut:caption">Janina_Thomas_0610.MP4</property>
  </producer>
  <producer id="producer11" in="00:00:00.000" out="03:59:59.960">
    <property name="length">04:00:00.000</property>
    <property name="eof">pause</property>
    <property name="resource">pics/20201005_103144.jpg</property>
    <property name="ttl">1</property>
    <property name="aspect_ratio">1</property>
    <property name="progressive">1</property>
    <property name="seekable">1</property>
    <property name="mlt_service">qimage</property>
    <property name="creation_time">2020-10-12T12:44:56</property>
    <property name="shotcut:caption">20201005_103144.jpg</property>
    <property name="shotcut:hash">4daf416cbf8fd2104a0c4911ffc87ecc</property>
    <property name="ignore_points">0</property>
    <property name="global_feed">1</property>
    <property name="xml">was here</property>
  </producer>
  <producer id="producer12" in="00:00:00.000" out="00:25:00.480">
    <property name="length">00:25:00.520</property>
    <property name="eof">pause</property>
    <property name="resource">T:/video/para/piemont_2020/0610/Uwe0610_1.MP4</property>
    <property name="audio_index">1</property>
    <property name="video_index">0</property>
    <property name="mute_on_pause">0</property>
    <property name="mlt_service">avformat-novalidate</property>
    <property name="seekable">1</property>
    <property name="aspect_ratio">1</property>
    <property name="creation_time">2020-10-05T01:01:51</property>
    <property name="shotcut:hash">c0af6fc5f5f94f91435c62c95937305a</property>
    <property name="global_feed">1</property>
    <property name="xml">was here</property>
  </producer>
  <producer id="producer13" in="00:00:00.000" out="00:22:03.400">
    <property name="length">00:22:03.440</property>
    <property name="eof">pause</property>
    <property name="resource">T:/video/para/piemont_2020/0610/Uwe0610_2_1.MP4</property>
    <property name="audio_index">1</property>
    <property name="video_index">0</property>
    <property name="mute_on_pause">0</property>
    <property name="mlt_service">avformat-novalidate</property>
    <property name="seekable">1</property>
    <property name="aspect_ratio">1</property>
    <property name="creation_time">2020-10-05T01:26:53</property>
    <property name="shotcut:hash">a69754fa817da0374f93dbda0da8bff1</property>
    <property name="global_feed">1</property>
    <property name="xml">was here</property>
    <property name="ignore_points">1</property>
    <property name="shotcut:caption">Uwe0610_2_1.MP4</property>
  </producer>
  <producer id="producer14" in="00:00:00.000" out="00:00:37.200">
    <property name="length">00:00:37.240</property>
    <property name="eof">pause</property>
    <property name="resource">T:/video/para/piemont_2020/0610/Alois0610_1.MP4</property>
    <property name="audio_index">1</property>
    <property name="video_index">0</property>
    <property name="mute_on_pause">0</property>
    <property name="mlt_service">avformat-novalidate</property>
    <property name="seekable">1</property>
    <property name="aspect_ratio">1</property>
    <property name="creation_time">2020-10-04T21:49:51</property>
    <property name="shotcut:hash">4d480b6b80485f3f0afd46640976a1ab</property>
    <property name="global_feed">1</property>
    <property name="xml">was here</property>
    <property name="ignore_points">1</property>
    <property name="shotcut:caption">Alois0610_1.MP4</property>
  </producer>
  <producer id="producer15" in="00:00:00.000" out="00:03:56.280">
    <property name="length">00:03:56.320</property>
    <property name="eof">pause</property>
    <property name="resource">P:/dokumente/uwe/persoenlich/My Music/abspielbar/mp3/POP/Crosby, Stills, Nash &amp; Young - Woodstock.mp3</property>
    <property name="audio_index">0</property>
    <property name="video_index">1</property>
    <property name="mute_on_pause">0</property>
    <property name="mlt_service">avformat-novalidate</property>
    <property name="seekable">1</property>
    <property name="aspect_ratio">1</property>
    <property name="creation_time">2019-10-13T22:40:02</property>
    <property name="global_feed">1</property>
    <property name="xml">was here</property>
    <property name="shotcut:hash">3b41c2d15d33f0b0332f7626788150de</property>
    <property name="ignore_points">1</property>
    <property name="shotcut:caption">Crosby, Stills, Nash &amp; Young - Woodstock.mp3</property>
  </producer>
  <producer id="producer16" in="00:00:00.000" out="00:00:27.960">
    <property name="length">00:00:28.000</property>
    <property name="eof">pause</property>
    <property name="resource">T:/video/para/piemont_2020/0610/Babs0610_Ldg.MP4</property>
    <property name="audio_index">1</property>
    <property name="video_index">0</property>
    <property name="mute_on_pause">0</property>
    <property name="mlt_service">avformat-novalidate</property>
    <property name="seekable">1</property>
    <property name="aspect_ratio">1</property>
    <property name="creation_time">2020-10-05T01:50:35</property>
    <property name="shotcut:hash">f2469ba2512d4713cbb7db8b3da24332</property>
    <property name="global_feed">1</property>
    <property name="xml">was here</property>
  </producer>
  <producer id="producer17" in="00:00:00.000" out="00:00:31.720">
    <property name="length">00:00:31.760</property>
    <property name="eof">pause</property>
    <property name="resource">T:/video/para/piemont_2020/0610/Franz_und_Alois_0610.MP4</property>
    <property name="audio_index">1</property>
    <property name="video_index">0</property>
    <property name="mute_on_pause">0</property>
    <property name="mlt_service">avformat-novalidate</property>
    <property name="seekable">1</property>
    <property name="aspect_ratio">1</property>
    <property name="creation_time">2020-10-05T01:51:52</property>
    <property name="shotcut:hash">92569a1f0fa83eb86c3e778ba0d08aee</property>
    <property name="global_feed">1</property>
    <property name="xml">was here</property>
  </producer>
  <producer id="producer18" in="00:00:00.000" out="00:02:40.480">
    <property name="length">00:02:40.520</property>
    <property name="eof">pause</property>
    <property name="resource">T:/video/para/piemont_2020/0610/LdgBabs0610_vgl_perspktve.MP4</property>
    <property name="audio_index">1</property>
    <property name="video_index">0</property>
    <property name="mute_on_pause">0</property>
    <property name="mlt_service">avformat-novalidate</property>
    <property name="seekable">1</property>
    <property name="aspect_ratio">1</property>
    <property name="creation_time">2020-10-04T22:55:57</property>
    <property name="shotcut:hash">05efac4af0e1c4cf061b7b9b69ddbc5e</property>
    <property name="global_feed">1</property>
    <property name="xml">was here</property>
    <property name="ignore_points">1</property>
    <property name="shotcut:caption">LdgBabs0610_vgl_perspktve.MP4</property>
  </producer>
  <producer id="producer19" in="00:00:00.000" out="00:00:22.800">
    <property name="length">00:00:22.840</property>
    <property name="eof">pause</property>
    <property name="resource">T:/video/para/piemont_2020/0610/Peter_0610_Ldg.MP4</property>
    <property name="audio_index">1</property>
    <property name="video_index">0</property>
    <property name="mute_on_pause">0</property>
    <property name="mlt_service">avformat-novalidate</property>
    <property name="seekable">1</property>
    <property name="aspect_ratio">1</property>
    <property name="creation_time">2020-10-05T01:57:51</property>
    <property name="shotcut:hash">ff809254b13414acfb21003abbc96ac9</property>
    <property name="global_feed">1</property>
    <property name="xml">was here</property>
    <property name="ignore_points">1</property>
    <property name="shotcut:caption">Peter_0610_Ldg.MP4</property>
  </producer>
  <producer id="producer20" in="00:00:00.000" out="00:00:27.840">
    <property name="length">00:00:27.880</property>
    <property name="eof">pause</property>
    <property name="resource">T:/video/para/piemont_2020/0510/alois0510.MP4</property>
    <property name="audio_index">1</property>
    <property name="video_index">0</property>
    <property name="mute_on_pause">0</property>
    <property name="mlt_service">avformat-novalidate</property>
    <property name="seekable">1</property>
    <property name="aspect_ratio">1</property>
    <property name="creation_time">2020-10-03T22:36:28</property>
    <property name="shotcut:hash">0b6a4d72ef414973df057c422263d7de</property>
    <property name="global_feed">1</property>
    <property name="xml">was here</property>
  </producer>
  <producer id="producer21" in="00:00:00.000" out="03:59:59.960">
    <property name="length">04:00:00.000</property>
    <property name="eof">pause</property>
    <property name="resource">pics/Alois.jpg</property>
    <property name="ttl">1</property>
    <property name="aspect_ratio">1</property>
    <property name="progressive">1</property>
    <property name="seekable">1</property>
    <property name="mlt_service">qimage</property>
    <property name="creation_time">2020-10-12T03:44:38</property>
    <property name="shotcut:hash">4fa94e2faa707e1ab13bab9c7543b65d</property>
    <property name="global_feed">1</property>
    <property name="xml">was here</property>
  </producer>
  <producer id="producer22" in="00:00:00.000" out="03:59:59.960">
    <property name="length">04:00:00.000</property>
    <property name="eof">pause</property>
    <property name="resource">pics/Franz.jpg</property>
    <property name="ttl">1</property>
    <property name="aspect_ratio">1</property>
    <property name="progressive">1</property>
    <property name="seekable">1</property>
    <property name="mlt_service">qimage</property>
    <property name="creation_time">2020-10-13T03:47:38</property>
    <property name="shotcut:hash">c09cd809c96047458ccd7830983f94a3</property>
    <property name="global_feed">1</property>
    <property name="xml">was here</property>
  </producer>
  <producer id="producer23" in="00:00:00.000" out="03:59:59.960">
    <property name="length">04:00:00.000</property>
    <property name="eof">pause</property>
    <property name="resource">pics/Gruppe.jpg</property>
    <property name="ttl">1</property>
    <property name="aspect_ratio">1</property>
    <property name="progressive">1</property>
    <property name="seekable">1</property>
    <property name="mlt_service">qimage</property>
    <property name="creation_time">2020-10-13T13:00:52</property>
    <property name="shotcut:hash">c1bac2dd6d77ce36f67ab50e0a8bf0d3</property>
    <property name="global_feed">1</property>
    <property name="xml">was here</property>
  </producer>
  <producer id="producer24" in="00:00:00.000" out="03:59:59.960">
    <property name="length">04:00:00.000</property>
    <property name="eof">pause</property>
    <property name="resource">pics/Janina.jpg</property>
    <property name="ttl">1</property>
    <property name="aspect_ratio">1</property>
    <property name="progressive">1</property>
    <property name="seekable">1</property>
    <property name="mlt_service">qimage</property>
    <property name="creation_time">2020-10-12T03:44:42</property>
    <property name="shotcut:hash">ef732e78ffa1fe8e569a84f619d8d8ff</property>
    <property name="global_feed">1</property>
    <property name="xml">was here</property>
  </producer>
  <producer id="producer25" in="00:00:00.000" out="03:59:59.960">
    <property name="length">04:00:00.000</property>
    <property name="eof">pause</property>
    <property name="resource">pics/Peter.jpg</property>
    <property name="ttl">1</property>
    <property name="aspect_ratio">1</property>
    <property name="progressive">1</property>
    <property name="seekable">1</property>
    <property name="mlt_service">qimage</property>
    <property name="creation_time">2020-10-13T03:46:40</property>
    <property name="shotcut:hash">c38035606a131f89f749785d882744a7</property>
    <property name="global_feed">1</property>
    <property name="xml">was here</property>
  </producer>
  <producer id="producer26" in="00:00:00.000" out="03:59:59.960">
    <property name="length">04:00:00.000</property>
    <property name="eof">pause</property>
    <property name="resource">pics/Robert.jpg</property>
    <property name="ttl">1</property>
    <property name="aspect_ratio">1</property>
    <property name="progressive">1</property>
    <property name="seekable">1</property>
    <property name="mlt_service">qimage</property>
    <property name="creation_time">2020-10-13T12:59:29</property>
    <property name="shotcut:hash">f6ae7e2a592b336541fe3a5c694f6cfd</property>
    <property name="global_feed">1</property>
    <property name="xml">was here</property>
  </producer>
  <producer id="producer27" in="00:00:00.000" out="03:59:59.960">
    <property name="length">04:00:00.000</property>
    <property name="eof">pause</property>
    <property name="resource">pics/start_babs_diecimo.jpg.jpg</property>
    <property name="ttl">1</property>
    <property name="aspect_ratio">1</property>
    <property name="progressive">1</property>
    <property name="seekable">1</property>
    <property name="mlt_service">qimage</property>
    <property name="creation_time">2020-10-13T03:48:02</property>
    <property name="shotcut:hash">41e604f306a0ad98741bdcb229e7644d</property>
    <property name="global_feed">1</property>
    <property name="xml">was here</property>
  </producer>
  <producer id="producer28" in="00:00:00.000" out="00:00:03.960">
    <property name="length">04:00:00.000</property>
    <property name="eof">pause</property>
    <property name="resource">pics/Thomas.jpg</property>
    <property name="ttl">1</property>
    <property name="aspect_ratio">1</property>
    <property name="progressive">1</property>
    <property name="seekable">1</property>
    <property name="mlt_service">qimage</property>
    <property name="creation_time">2020-10-12T03:44:34</property>
    <property name="shotcut:hash">58fe5f192ec0845e0f1e3048cd2ec00d</property>
    <property name="global_feed">1</property>
    <property name="xml">was here</property>
    <property name="shotcut:caption">Thomas.jpg</property>
    <property name="ignore_points">1</property>
  </producer>
  <producer id="producer29" in="00:00:00.000" out="00:04:19.400">
    <property name="length">00:04:19.440</property>
    <property name="eof">pause</property>
    <property name="resource">C:/Users/uwe/Music/4K YouTube to MP3/Money For Nothing; drum cover by Sina.mp3</property>
    <property name="audio_index">0</property>
    <property name="video_index">1</property>
    <property name="mute_on_pause">0</property>
    <property name="mlt_service">avformat-novalidate</property>
    <property name="seekable">1</property>
    <property name="aspect_ratio">1</property>
    <property name="creation_time">2020-04-07T15:59:57</property>
    <property name="global_feed">1</property>
    <property name="xml">was here</property>
    <property name="shotcut:hash">829e289ac4e6a31116e7a7f72739a4a4</property>
    <property name="ignore_points">1</property>
    <property name="shotcut:caption">Money For Nothing; drum cover by Sina.mp3</property>
  </producer>
  <producer id="producer30" in="00:00:00.000" out="03:59:59.960">
    <property name="length">04:00:00.000</property>
    <property name="eof">pause</property>
    <property name="resource">pics/Uwe.jpg</property>
    <property name="ttl">1</property>
    <property name="aspect_ratio">1</property>
    <property name="progressive">1</property>
    <property name="seekable">1</property>
    <property name="mlt_service">qimage</property>
    <property name="creation_time">2020-10-13T03:47:02</property>
    <property name="shotcut:hash">e979ab2ca5644b3b39ade21ea531e503</property>
    <property name="global_feed">1</property>
    <property name="xml">was here</property>
  </producer>
  <producer id="producer31" in="00:00:00.000" out="00:00:03.960">
    <property name="length">04:00:00.000</property>
    <property name="eof">pause</property>
    <property name="resource">pics/menue.jpg</property>
    <property name="ttl">1</property>
    <property name="aspect_ratio">1</property>
    <property name="progressive">1</property>
    <property name="seekable">1</property>
    <property name="mlt_service">qimage</property>
    <property name="creation_time">2020-10-13T19:12:34</property>
    <property name="shotcut:caption">menue.jpg</property>
    <property name="shotcut:hash">3dcd44399d0add0c1c6760e03fc23803</property>
    <property name="ignore_points">1</property>
    <property name="global_feed">1</property>
    <property name="xml">was here</property>
  </producer>
  <producer id="producer32" in="00:00:00.000" out="00:00:37.200">
    <property name="length">00:00:37.240</property>
    <property name="eof">pause</property>
    <property name="resource">T:/video/para/piemont_2020/0610/Alois0610_1.MP4</property>
    <property name="audio_index">1</property>
    <property name="video_index">0</property>
    <property name="mute_on_pause">0</property>
    <property name="mlt_service">avformat-novalidate</property>
    <property name="seekable">1</property>
    <property name="aspect_ratio">1</property>
    <property name="creation_time">2020-10-04T21:49:51</property>
    <property name="global_feed">1</property>
    <property name="xml">was here</property>
    <property name="shotcut:hash">4d480b6b80485f3f0afd46640976a1ab</property>
    <property name="ignore_points">0</property>
    <property name="shotcut:caption">Alois0610_1.MP4</property>
  </producer>
  <playlist id="main_bin" title="Shotcut version 20.09.13">
    <property name="shotcut:projectAudioChannels">2</property>
    <property name="shotcut:projectFolder">1</property>
    <property name="xml_retain">1</property>
    <entry producer="producer0" in="00:00:00.000" out="00:17:52.160"/>
    <entry producer="producer1" in="00:00:00.000" out="00:09:12.560"/>
    <entry producer="producer2" in="00:00:00.000" out="00:09:28.320"/>
    <entry producer="producer3" in="00:00:00.000" out="00:00:21.600"/>
    <entry producer="producer4" in="00:00:00.000" out="00:00:14.400"/>
    <entry producer="producer5" in="00:00:00.000" out="00:00:11.840"/>
    <entry producer="producer6" in="00:00:00.000" out="00:00:24.520"/>
    <entry producer="producer7" in="00:00:00.000" out="00:00:28.560"/>
    <entry producer="producer8" in="00:00:00.000" out="00:00:15.440"/>
    <entry producer="producer9" in="00:00:00.000" out="00:00:14.880"/>
    <entry producer="producer10" in="00:00:00.000" out="00:00:22.600"/>
    <entry producer="producer11" in="00:00:00.000" out="00:00:03.960"/>
    <entry producer="producer12" in="00:00:00.000" out="00:25:00.480"/>
    <entry producer="producer13" in="00:00:00.000" out="00:22:03.400"/>
    <entry producer="producer14" in="00:00:00.000" out="00:00:37.200"/>
    <entry producer="producer15" in="00:00:00.000" out="00:03:56.280"/>
    <entry producer="producer16" in="00:00:00.000" out="00:00:27.960"/>
    <entry producer="producer17" in="00:00:00.000" out="00:00:31.720"/>
    <entry producer="producer18" in="00:00:00.000" out="00:02:40.480"/>
    <entry producer="producer19" in="00:00:00.000" out="00:00:22.800"/>
    <entry producer="producer20" in="00:00:00.000" out="00:00:27.840"/>
    <entry producer="producer21" in="00:00:00.000" out="00:00:03.960"/>
    <entry producer="producer22" in="00:00:00.000" out="00:00:03.960"/>
    <entry producer="producer23" in="00:00:00.000" out="00:00:03.960"/>
    <entry producer="producer24" in="00:00:00.000" out="00:00:03.960"/>
    <entry producer="producer25" in="00:00:00.000" out="00:00:03.960"/>
    <entry producer="producer26" in="00:00:00.000" out="00:00:03.960"/>
    <entry producer="producer27" in="00:00:00.000" out="00:00:03.960"/>
    <entry producer="producer28" in="00:00:00.000" out="00:00:03.960"/>
    <entry producer="producer29" in="00:00:00.000" out="00:04:19.400"/>
    <entry producer="producer30" in="00:00:00.000" out="00:00:03.960"/>
    <entry producer="producer31" in="00:00:00.000" out="00:00:03.960"/>
    <entry producer="producer32" in="00:00:00.000" out="00:00:37.200"/>
  </playlist>
  <producer id="black" in="00:00:00.000" out="00:08:27.720">
    <property name="length">00:08:27.760</property>
    <property name="eof">pause</property>
    <property name="resource">0</property>
    <property name="aspect_ratio">1</property>
    <property name="mlt_service">color</property>
    <property name="mlt_image_format">rgb24a</property>
    <property name="set.test_audio">0</property>
  </producer>
  <playlist id="background">
    <entry producer="black" in="00:00:00.000" out="00:08:27.720"/>
  </playlist>
  <producer id="producer41" in="00:00:00.000" out="03:59:59.960">
    <property name="length">04:00:00.000</property>
    <property name="eof">pause</property>
    <property name="resource">pics/20201005_103144.jpg</property>
    <property name="ttl">1</property>
    <property name="aspect_ratio">1</property>
    <property name="progressive">1</property>
    <property name="seekable">1</property>
    <property name="mlt_service">qimage</property>
    <property name="creation_time">2020-10-12T12:44:56</property>
    <property name="global_feed">1</property>
    <property name="xml">was here</property>
    <property name="shotcut:hash">4daf416cbf8fd2104a0c4911ffc87ecc</property>
    <property name="shotcut:caption">20201005_103144.jpg</property>
    <property name="ignore_points">0</property>
    <filter id="filter1" out="00:00:01.960">
      <property name="argument">Flugwoche 4.10.2020 - 10.10.2020
Teil 1 Piemont
 Startplätze Mt. Belice/ St. Elisabetta </property>
      <property name="geometry">92 816 1700 242 1</property>
      <property name="family">Verdana</property>
      <property name="size">360</property>
      <property name="weight">500</property>
      <property name="style">normal</property>
      <property name="fgcolour">#ffffffff</property>
      <property name="bgcolour">#00000000</property>
      <property name="olcolour">#aa000000</property>
      <property name="pad">0</property>
      <property name="halign">center</property>
      <property name="valign">bottom</property>
      <property name="outline">3</property>
      <property name="mlt_service">dynamictext</property>
      <property name="shotcut:filter">dynamicText</property>
      <property name="shotcut:usePointSize">0</property>
      <property name="shotcut:animIn">00:00:00.000</property>
      <property name="shotcut:animOut">00:00:00.000</property>
      <property name="disable">0</property>
    </filter>
  </producer>
  <producer id="producer33" in="00:00:00.000" out="03:59:59.960">
    <property name="length">04:00:00.000</property>
    <property name="eof">pause</property>
    <property name="resource">pics/Gruppe.jpg</property>
    <property name="ttl">1</property>
    <property name="aspect_ratio">1</property>
    <property name="progressive">1</property>
    <property name="seekable">1</property>
    <property name="mlt_service">qimage</property>
    <property name="creation_time">2020-10-13T13:00:52</property>
    <property name="shotcut:hash">c1bac2dd6d77ce36f67ab50e0a8bf0d3</property>
    <property name="global_feed">1</property>
    <property name="xml">was here</property>
    <property name="shotcut:caption">Gruppe.jpg</property>
    <filter id="filter2" out="00:00:03.200">
      <property name="argument">Flugwoche 4.10.2020 - 10.10.2020
Teil1 Piemont
 Startplätze Mt. Belice/ St. Elisabetta </property>
      <property name="geometry">92 816 1700 242 1</property>
      <property name="family">Verdana</property>
      <property name="size">360</property>
      <property name="weight">500</property>
      <property name="style">normal</property>
      <property name="fgcolour">#ffffffff</property>
      <property name="bgcolour">#00000000</property>
      <property name="olcolour">#aa000000</property>
      <property name="pad">0</property>
      <property name="halign">center</property>
      <property name="valign">bottom</property>
      <property name="outline">3</property>
      <property name="mlt_service">dynamictext</property>
      <property name="shotcut:filter">dynamicText</property>
      <property name="shotcut:usePointSize">0</property>
      <property name="shotcut:animIn">00:00:00.000</property>
      <property name="shotcut:animOut">00:00:00.000</property>
      <property name="disable">0</property>
    </filter>
  </producer>
  <producer id="producer34" in="00:00:00.000" out="03:59:59.960">
    <property name="length">04:00:00.000</property>
    <property name="eof">pause</property>
    <property name="resource">pics/Janina.jpg</property>
    <property name="ttl">1</property>
    <property name="aspect_ratio">1</property>
    <property name="progressive">1</property>
    <property name="seekable">1</property>
    <property name="mlt_service">qimage</property>
    <property name="creation_time">2020-10-12T03:44:42</property>
    <property name="shotcut:hash">ef732e78ffa1fe8e569a84f619d8d8ff</property>
    <property name="global_feed">1</property>
    <property name="xml">was here</property>
    <property name="shotcut:caption">Janina.jpg</property>
    <property name="ignore_points">0</property>
    <filter id="filter3" out="00:00:02.800">
      <property name="argument">Flugwoche 4.10.2020 - 10.10.2020
Teil1 Piemont
 Startplätze Mt. Belice/ St. Elisabetta </property>
      <property name="geometry">92 816 1700 242 1</property>
      <property name="family">Verdana</property>
      <property name="size">360</property>
      <property name="weight">500</property>
      <property name="style">normal</property>
      <property name="fgcolour">#ffffffff</property>
      <property name="bgcolour">#00000000</property>
      <property name="olcolour">#aa000000</property>
      <property name="pad">0</property>
      <property name="halign">center</property>
      <property name="valign">bottom</property>
      <property name="outline">3</property>
      <property name="mlt_service">dynamictext</property>
      <property name="shotcut:filter">dynamicText</property>
      <property name="shotcut:usePointSize">0</property>
      <property name="shotcut:animIn">00:00:00.000</property>
      <property name="shotcut:animOut">00:00:00.000</property>
      <property name="disable">0</property>
    </filter>
  </producer>
  <producer id="producer35" in="00:00:00.000" out="03:59:59.960">
    <property name="length">04:00:00.000</property>
    <property name="eof">pause</property>
    <property name="resource">pics/start_babs_diecimo.jpg.jpg</property>
    <property name="ttl">1</property>
    <property name="aspect_ratio">1</property>
    <property name="progressive">1</property>
    <property name="seekable">1</property>
    <property name="mlt_service">qimage</property>
    <property name="creation_time">2020-10-13T03:48:02</property>
    <property name="shotcut:hash">41e604f306a0ad98741bdcb229e7644d</property>
    <property name="global_feed">1</property>
    <property name="xml">was here</property>
    <property name="shotcut:caption">start_babs_diecimo.jpg.jpg</property>
    <property name="ignore_points">0</property>
    <filter id="filter4" in="00:00:00.240" out="00:00:02.960">
      <property name="argument">Flugwoche 4.10.2020 - 10.10.2020
Teil1 Piemont
 Startplätze Mt. Belice/ St. Elisabetta </property>
      <property name="geometry">92 816 1700 242 1</property>
      <property name="family">Verdana</property>
      <property name="size">360</property>
      <property name="weight">500</property>
      <property name="style">normal</property>
      <property name="fgcolour">#ffffffff</property>
      <property name="bgcolour">#00000000</property>
      <property name="olcolour">#aa000000</property>
      <property name="pad">0</property>
      <property name="halign">center</property>
      <property name="valign">bottom</property>
      <property name="outline">3</property>
      <property name="mlt_service">dynamictext</property>
      <property name="shotcut:filter">dynamicText</property>
      <property name="shotcut:usePointSize">0</property>
      <property name="shotcut:animIn">00:00:00.000</property>
      <property name="shotcut:animOut">00:00:00.000</property>
      <property name="disable">0</property>
    </filter>
  </producer>
  <producer id="producer36" in="00:00:00.000" out="03:59:59.960">
    <property name="length">04:00:00.000</property>
    <property name="eof">pause</property>
    <property name="resource">pics/Alois.jpg</property>
    <property name="ttl">1</property>
    <property name="aspect_ratio">1</property>
    <property name="progressive">1</property>
    <property name="seekable">1</property>
    <property name="mlt_service">qimage</property>
    <property name="creation_time">2020-10-12T03:44:38</property>
    <property name="shotcut:hash">4fa94e2faa707e1ab13bab9c7543b65d</property>
    <property name="global_feed">1</property>
    <property name="xml">was here</property>
    <property name="shotcut:caption">Alois.jpg</property>
    <property name="ignore_points">0</property>
    <filter id="filter5" out="00:00:02.960">
      <property name="argument">Flugwoche 4.10.2020 - 10.10.2020
Teil1 Piemont
 Startplätze Mt. Belice/ St. Elisabetta </property>
      <property name="geometry">92 816 1700 242 1</property>
      <property name="family">Verdana</property>
      <property name="size">360</property>
      <property name="weight">500</property>
      <property name="style">normal</property>
      <property name="fgcolour">#ffffffff</property>
      <property name="bgcolour">#00000000</property>
      <property name="olcolour">#aa000000</property>
      <property name="pad">0</property>
      <property name="halign">center</property>
      <property name="valign">bottom</property>
      <property name="outline">3</property>
      <property name="mlt_service">dynamictext</property>
      <property name="shotcut:filter">dynamicText</property>
      <property name="shotcut:usePointSize">0</property>
      <property name="shotcut:animIn">00:00:00.000</property>
      <property name="shotcut:animOut">00:00:00.000</property>
      <property name="disable">0</property>
    </filter>
  </producer>
  <producer id="producer37" in="00:00:00.000" out="03:59:59.960">
    <property name="length">04:00:00.000</property>
    <property name="eof">pause</property>
    <property name="resource">pics/Peter.jpg</property>
    <property name="ttl">1</property>
    <property name="aspect_ratio">1</property>
    <property name="progressive">1</property>
    <property name="seekable">1</property>
    <property name="mlt_service">qimage</property>
    <property name="creation_time">2020-10-13T03:46:40</property>
    <property name="shotcut:hash">c38035606a131f89f749785d882744a7</property>
    <property name="global_feed">1</property>
    <property name="xml">was here</property>
    <property name="shotcut:caption">Peter.jpg</property>
    <property name="ignore_points">0</property>
    <filter id="filter6" out="00:00:03.000">
      <property name="argument">Flugwoche 4.10.2020 - 10.10.2020
Teil1 Piemont
 Startplätze Mt. Belice/ St. Elisabetta </property>
      <property name="geometry">92 816 1700 242 1</property>
      <property name="family">Verdana</property>
      <property name="size">360</property>
      <property name="weight">500</property>
      <property name="style">normal</property>
      <property name="fgcolour">#ffffffff</property>
      <property name="bgcolour">#00000000</property>
      <property name="olcolour">#aa000000</property>
      <property name="pad">0</property>
      <property name="halign">center</property>
      <property name="valign">bottom</property>
      <property name="outline">3</property>
      <property name="mlt_service">dynamictext</property>
      <property name="shotcut:filter">dynamicText</property>
      <property name="shotcut:usePointSize">0</property>
      <property name="shotcut:animIn">00:00:00.000</property>
      <property name="shotcut:animOut">00:00:00.000</property>
      <property name="disable">0</property>
    </filter>
  </producer>
  <producer id="producer38" in="00:00:00.000" out="03:59:59.960">
    <property name="length">04:00:00.000</property>
    <property name="eof">pause</property>
    <property name="resource">pics/Franz.jpg</property>
    <property name="ttl">1</property>
    <property name="aspect_ratio">1</property>
    <property name="progressive">1</property>
    <property name="seekable">1</property>
    <property name="mlt_service">qimage</property>
    <property name="creation_time">2020-10-13T03:47:38</property>
    <property name="shotcut:hash">c09cd809c96047458ccd7830983f94a3</property>
    <property name="global_feed">1</property>
    <property name="xml">was here</property>
    <property name="shotcut:caption">Franz.jpg</property>
    <property name="ignore_points">0</property>
    <filter id="filter7" out="00:00:03.040">
      <property name="argument">Flugwoche 4.10.2020 - 10.10.2020
Teil1 Piemont
 Startplätze Mt. Belice/ St. Elisabetta </property>
      <property name="geometry">92 816 1700 242 1</property>
      <property name="family">Verdana</property>
      <property name="size">360</property>
      <property name="weight">500</property>
      <property name="style">normal</property>
      <property name="fgcolour">#ffffffff</property>
      <property name="bgcolour">#00000000</property>
      <property name="olcolour">#aa000000</property>
      <property name="pad">0</property>
      <property name="halign">center</property>
      <property name="valign">bottom</property>
      <property name="outline">3</property>
      <property name="mlt_service">dynamictext</property>
      <property name="shotcut:filter">dynamicText</property>
      <property name="shotcut:usePointSize">0</property>
      <property name="shotcut:animIn">00:00:00.000</property>
      <property name="shotcut:animOut">00:00:00.000</property>
      <property name="disable">0</property>
    </filter>
  </producer>
  <producer id="producer39" in="00:00:00.000" out="03:59:59.960">
    <property name="length">04:00:00.000</property>
    <property name="eof">pause</property>
    <property name="resource">pics/Robert.jpg</property>
    <property name="ttl">1</property>
    <property name="aspect_ratio">1</property>
    <property name="progressive">1</property>
    <property name="seekable">1</property>
    <property name="mlt_service">qimage</property>
    <property name="creation_time">2020-10-13T12:59:29</property>
    <property name="shotcut:hash">f6ae7e2a592b336541fe3a5c694f6cfd</property>
    <property name="global_feed">1</property>
    <property name="xml">was here</property>
    <property name="shotcut:caption">Robert.jpg</property>
    <property name="ignore_points">0</property>
  </producer>
  <producer id="producer40" in="00:00:00.000" out="03:59:59.960">
    <property name="length">04:00:00.000</property>
    <property name="eof">pause</property>
    <property name="resource">pics/Thomas.jpg</property>
    <property name="ttl">1</property>
    <property name="aspect_ratio">1</property>
    <property name="progressive">1</property>
    <property name="seekable">1</property>
    <property name="mlt_service">qimage</property>
    <property name="creation_time">2020-10-12T03:44:34</property>
    <property name="shotcut:hash">58fe5f192ec0845e0f1e3048cd2ec00d</property>
    <property name="global_feed">1</property>
    <property name="xml">was here</property>
    <property name="shotcut:caption">Thomas.jpg</property>
    <property name="ignore_points">0</property>
  </producer>
  <producer id="producer42" in="00:00:00.000" out="03:59:59.960">
    <property name="length">04:00:00.000</property>
    <property name="eof">pause</property>
    <property name="resource">pics/Uwe.jpg</property>
    <property name="ttl">1</property>
    <property name="aspect_ratio">1</property>
    <property name="progressive">1</property>
    <property name="seekable">1</property>
    <property name="mlt_service">qimage</property>
    <property name="creation_time">2020-10-13T03:47:02</property>
    <property name="shotcut:hash">e979ab2ca5644b3b39ade21ea531e503</property>
    <property name="global_feed">1</property>
    <property name="xml">was here</property>
    <property name="shotcut:caption">Uwe.jpg</property>
    <property name="ignore_points">0</property>
  </producer>
  <producer id="producer43" in="00:00:00.000" out="00:00:28.560">
    <property name="length">00:00:28.600</property>
    <property name="eof">pause</property>
    <property name="resource">T:/video/para/piemont_2020/0610/Peter0610_2.MP4</property>
    <property name="audio_index">1</property>
    <property name="video_index">0</property>
    <property name="mute_on_pause">0</property>
    <property name="mlt_service">avformat-novalidate</property>
    <property name="seekable">1</property>
    <property name="aspect_ratio">1</property>
    <property name="creation_time">2020-10-04T21:46:09</property>
    <property name="shotcut:hash">212f637a2de6df1bc9c266560c0ad407</property>
    <property name="global_feed">1</property>
    <property name="xml">was here</property>
    <property name="ignore_points">0</property>
    <property name="shotcut:caption">Peter0610_2.MP4</property>
    <filter id="filter9" in="00:00:15.880" out="00:00:28.560">
      <property name="argument">Peter</property>
      <property name="geometry">109 925 1683 133 1</property>
      <property name="family">Verdana</property>
      <property name="size">1080</property>
      <property name="weight">500</property>
      <property name="style">normal</property>
      <property name="fgcolour">#ffffffff</property>
      <property name="bgcolour">#00000000</property>
      <property name="olcolour">#aa000000</property>
      <property name="pad">0</property>
      <property name="halign">center</property>
      <property name="valign">bottom</property>
      <property name="outline">3</property>
      <property name="mlt_service">dynamictext</property>
      <property name="shotcut:filter">dynamicText</property>
      <property name="shotcut:usePointSize">0</property>
      <property name="shotcut:animIn">00:00:00.000</property>
      <property name="shotcut:animOut">00:00:00.000</property>
      <property name="disable">0</property>
    </filter>
  </producer>
  <producer id="producer44" in="00:00:00.000" out="00:00:15.440">
    <property name="length">00:00:15.480</property>
    <property name="eof">pause</property>
    <property name="resource">T:/video/para/piemont_2020/0610/StartPeter0610_2.MP4</property>
    <property name="audio_index">1</property>
    <property name="video_index">0</property>
    <property name="mute_on_pause">0</property>
    <property name="mlt_service">avformat-novalidate</property>
    <property name="seekable">1</property>
    <property name="aspect_ratio">1</property>
    <property name="creation_time">2020-10-05T00:36:37</property>
    <property name="shotcut:hash">da07171c09fdc9eed4a68fa33c8c6f51</property>
    <property name="global_feed">1</property>
    <property name="xml">was here</property>
    <property name="shotcut:caption">StartPeter0610_2.MP4</property>
    <filter id="filter0" out="00:00:15.440">
      <property name="argument">Peter</property>
      <property name="geometry">109 925 1683 133 1</property>
      <property name="family">Verdana</property>
      <property name="size">1080</property>
      <property name="weight">500</property>
      <property name="style">normal</property>
      <property name="fgcolour">#ffffffff</property>
      <property name="bgcolour">#00000000</property>
      <property name="olcolour">#aa000000</property>
      <property name="pad">0</property>
      <property name="halign">center</property>
      <property name="valign">bottom</property>
      <property name="outline">3</property>
      <property name="mlt_service">dynamictext</property>
      <property name="shotcut:filter">dynamicText</property>
      <property name="shotcut:usePointSize">0</property>
      <property name="shotcut:animIn">00:00:00.000</property>
      <property name="shotcut:animOut">00:00:00.000</property>
      <property name="disable">0</property>
    </filter>
  </producer>
  <tractor id="tractor1" global_feed="1" in="00:00:00.000" out="00:00:01.000">
    <property name="shotcut:transition">lumaMix</property>
    <track producer="producer43" in="00:00:27.560" out="00:00:28.560"/>
    <track producer="producer44" in="00:00:00.000" out="00:00:01.000"/>
    <transition id="transition2" out="00:00:01.000">
      <property name="a_track">0</property>
      <property name="b_track">1</property>
      <property name="factory">loader</property>
      <property name="mlt_service">luma</property>
      <property name="alpha_over">1</property>
    </transition>
    <transition id="transition3" out="00:00:01.000">
      <property name="a_track">0</property>
      <property name="b_track">1</property>
      <property name="mlt_service">mix</property>
      <property name="start">-1</property>
      <property name="accepts_blanks">1</property>
    </transition>
  </tractor>
  <producer id="producer45" in="00:00:00.000" out="00:00:14.880">
    <property name="length">00:00:14.920</property>
    <property name="eof">pause</property>
    <property name="resource">T:/video/para/piemont_2020/0610/Janina_0610_2.MP4</property>
    <property name="audio_index">1</property>
    <property name="video_index">0</property>
    <property name="mute_on_pause">0</property>
    <property name="mlt_service">avformat-novalidate</property>
    <property name="seekable">1</property>
    <property name="aspect_ratio">1</property>
    <property name="creation_time">2020-10-05T00:49:24</property>
    <property name="shotcut:hash">88d8270e420414cace8a216383a7e233</property>
    <property name="global_feed">1</property>
    <property name="xml">was here</property>
    <property name="ignore_points">0</property>
    <property name="shotcut:caption">Janina_0610_2.MP4</property>
    <filter id="filter10" out="00:00:14.400">
      <property name="argument">Janina</property>
      <property name="geometry">-9 963 1930 117 1</property>
      <property name="family">Verdana</property>
      <property name="size">1080</property>
      <property name="weight">500</property>
      <property name="style">normal</property>
      <property name="fgcolour">#aaff7f</property>
      <property name="bgcolour">#00000000</property>
      <property name="olcolour">#aa000000</property>
      <property name="pad">0</property>
      <property name="halign">center</property>
      <property name="valign">bottom</property>
      <property name="outline">3</property>
      <property name="mlt_service">dynamictext</property>
      <property name="shotcut:filter">dynamicText</property>
      <property name="shotcut:usePointSize">0</property>
      <property name="shotcut:animIn">00:00:00.000</property>
      <property name="shotcut:animOut">00:00:00.000</property>
    </filter>
  </producer>
  <tractor id="tractor2" global_feed="1" in="00:00:00.000" out="00:00:01.200">
    <property name="shotcut:transition">lumaMix</property>
    <track producer="producer44" in="00:00:14.240" out="00:00:15.440"/>
    <track producer="producer45" in="00:00:00.000" out="00:00:01.200"/>
    <transition id="transition4" out="00:00:01.200">
      <property name="a_track">0</property>
      <property name="b_track">1</property>
      <property name="factory">loader</property>
      <property name="mlt_service">luma</property>
      <property name="alpha_over">1</property>
    </transition>
    <transition id="transition5" out="00:00:01.200">
      <property name="a_track">0</property>
      <property name="b_track">1</property>
      <property name="mlt_service">mix</property>
      <property name="start">-1</property>
      <property name="accepts_blanks">1</property>
    </transition>
  </tractor>
  <producer id="producer46" in="00:00:00.000" out="00:00:37.200">
    <property name="length">00:00:37.240</property>
    <property name="eof">pause</property>
    <property name="resource">T:/video/para/piemont_2020/0610/Alois0610_1.MP4</property>
    <property name="audio_index">1</property>
    <property name="video_index">0</property>
    <property name="mute_on_pause">0</property>
    <property name="mlt_service">avformat-novalidate</property>
    <property name="seekable">1</property>
    <property name="aspect_ratio">1</property>
    <property name="creation_time">2020-10-04T21:49:51</property>
    <property name="global_feed">1</property>
    <property name="xml">was here</property>
    <property name="shotcut:hash">4d480b6b80485f3f0afd46640976a1ab</property>
    <property name="ignore_points">0</property>
    <property name="shotcut:caption">Alois0610_1.MP4</property>
    <property name="shotcut:skipConvert">1</property>
  </producer>
  <tractor id="tractor0" global_feed="1" in="00:00:00.000" out="00:00:00.000">
    <property name="shotcut:transition">lumaMix</property>
    <track producer="producer45" in="00:00:13.480" out="00:00:13.480"/>
    <track producer="producer46" in="00:00:02.960" out="00:00:02.960"/>
    <transition id="transition0">
      <property name="a_track">0</property>
      <property name="b_track">1</property>
      <property name="factory">loader</property>
      <property name="mlt_service">luma</property>
      <property name="alpha_over">1</property>
    </transition>
    <transition id="transition1">
      <property name="a_track">0</property>
      <property name="b_track">1</property>
      <property name="mlt_service">mix</property>
      <property name="start">-1</property>
      <property name="accepts_blanks">1</property>
    </transition>
  </tractor>
  <producer id="producer47" in="00:00:00.000" out="00:01:33.080">
    <property name="length">00:01:33.120</property>
    <property name="eof">pause</property>
    <property name="resource">0.4:T:/video/para/piemont_2020/0610/Alois0610_1.MP4</property>
    <property name="aspect_ratio">1</property>
    <property name="seekable">1</property>
    <property name="audio_index">1</property>
    <property name="video_index">0</property>
    <property name="mute_on_pause">1</property>
    <property name="warp_speed">0.4</property>
    <property name="warp_resource">T:/video/para/piemont_2020/0610/Alois0610_1.MP4</property>
    <property name="mlt_service">timewarp</property>
    <property name="shotcut:producer">avformat</property>
    <property name="video_delay">0</property>
    <property name="shotcut:hash">4d480b6b80485f3f0afd46640976a1ab</property>
    <property name="shotcut:skipConvert">1</property>
    <property name="shotcut:caption">Alois0610_1.MP4 (0.4x)</property>
    <property name="global_feed">1</property>
    <property name="xml">was here</property>
    <filter id="filter8" in="00:00:-0.040" out="00:00:08.800">
      <property name="argument">Alois</property>
      <property name="geometry">-10 970 1871 110 1</property>
      <property name="family">Verdana</property>
      <property name="size">1080</property>
      <property name="weight">500</property>
      <property name="style">normal</property>
      <property name="fgcolour">#8089b4</property>
      <property name="bgcolour">#00000000</property>
      <property name="olcolour">#aa000000</property>
      <property name="pad">0</property>
      <property name="halign">center</property>
      <property name="valign">bottom</property>
      <property name="outline">3</property>
      <property name="mlt_service">dynamictext</property>
      <property name="shotcut:filter">dynamicText</property>
      <property name="shotcut:usePointSize">0</property>
      <property name="shotcut:animIn">00:00:00.000</property>
      <property name="shotcut:animOut">00:00:00.000</property>
    </filter>
  </producer>
  <producer id="producer48" in="00:00:00.000" out="00:00:22.600">
    <property name="length">00:00:22.640</property>
    <property name="eof">pause</property>
    <property name="resource">T:/video/para/piemont_2020/0610/Janina_Thomas_0610.MP4</property>
    <property name="audio_index">1</property>
    <property name="video_index">0</property>
    <property name="mute_on_pause">0</property>
    <property name="mlt_service">avformat-novalidate</property>
    <property name="seekable">1</property>
    <property name="aspect_ratio">1</property>
    <property name="creation_time">2020-10-04T21:54:58</property>
    <property name="shotcut:hash">9c81bb94d265128f78ccb325da9fc42f</property>
    <property name="global_feed">1</property>
    <property name="xml">was here</property>
    <property name="shotcut:caption">Janina_Thomas_0610.MP4</property>
    <filter id="filter12" in="00:00:12.720" out="00:00:19.600">
      <property name="argument">Janina/Thomas</property>
      <property name="geometry">-9 963 1930 117 1</property>
      <property name="family">Verdana</property>
      <property name="size">1080</property>
      <property name="weight">500</property>
      <property name="style">normal</property>
      <property name="fgcolour">#aaff7f</property>
      <property name="bgcolour">#00000000</property>
      <property name="olcolour">#aa000000</property>
      <property name="pad">0</property>
      <property name="halign">center</property>
      <property name="valign">bottom</property>
      <property name="outline">3</property>
      <property name="mlt_service">dynamictext</property>
      <property name="shotcut:filter">dynamicText</property>
      <property name="shotcut:usePointSize">0</property>
      <property name="shotcut:animIn">00:00:00.000</property>
      <property name="shotcut:animOut">00:00:00.000</property>
    </filter>
  </producer>
  <producer id="producer49" in="00:00:00.000" out="00:25:00.480">
    <property name="length">00:25:00.520</property>
    <property name="eof">pause</property>
    <property name="resource">T:/video/para/piemont_2020/0610/Uwe0610_1.MP4</property>
    <property name="audio_index">1</property>
    <property name="video_index">0</property>
    <property name="mute_on_pause">0</property>
    <property name="mlt_service">avformat-novalidate</property>
    <property name="seekable">1</property>
    <property name="aspect_ratio">1</property>
    <property name="creation_time">2020-10-05T01:01:51</property>
    <property name="shotcut:hash">c0af6fc5f5f94f91435c62c95937305a</property>
    <property name="global_feed">1</property>
    <property name="xml">was here</property>
    <property name="shotcut:caption">Uwe0610_1.MP4</property>
    <filter id="filter13" in="00:00:26.480" out="00:01:07.000">
      <property name="argument">Uwe</property>
      <property name="geometry">-10 963 1930 117 1</property>
      <property name="family">Verdana</property>
      <property name="size">1080</property>
      <property name="weight">500</property>
      <property name="style">normal</property>
      <property name="fgcolour">#5500ff</property>
      <property name="bgcolour">#00000000</property>
      <property name="olcolour">#aa000000</property>
      <property name="pad">0</property>
      <property name="halign">center</property>
      <property name="valign">bottom</property>
      <property name="outline">3</property>
      <property name="mlt_service">dynamictext</property>
      <property name="shotcut:filter">dynamicText</property>
      <property name="shotcut:usePointSize">0</property>
      <property name="shotcut:animIn">00:00:00.000</property>
      <property name="shotcut:animOut">00:00:00.000</property>
    </filter>
  </producer>
  <tractor id="tractor3" global_feed="1" in="00:00:00.000" out="00:00:00.520">
    <property name="shotcut:transition">lumaMix</property>
    <track producer="producer48" in="00:00:18.240" out="00:00:18.760"/>
    <track producer="producer49" in="00:00:27.320" out="00:00:27.840"/>
    <transition id="transition6" out="00:00:00.520">
      <property name="a_track">0</property>
      <property name="b_track">1</property>
      <property name="factory">loader</property>
      <property name="mlt_service">luma</property>
      <property name="alpha_over">1</property>
    </transition>
    <transition id="transition7" out="00:00:00.520">
      <property name="a_track">0</property>
      <property name="b_track">1</property>
      <property name="start">-1</property>
      <property name="accepts_blanks">1</property>
      <property name="mlt_service">mix</property>
    </transition>
  </tractor>
  <producer id="producer50" in="00:00:00.000" out="00:25:00.480">
    <property name="length">00:25:00.520</property>
    <property name="eof">pause</property>
    <property name="resource">T:/video/para/piemont_2020/0610/Uwe0610_1.MP4</property>
    <property name="audio_index">1</property>
    <property name="video_index">0</property>
    <property name="mute_on_pause">0</property>
    <property name="mlt_service">avformat-novalidate</property>
    <property name="seekable">1</property>
    <property name="aspect_ratio">1</property>
    <property name="creation_time">2020-10-05T01:01:51</property>
    <property name="shotcut:hash">c0af6fc5f5f94f91435c62c95937305a</property>
    <property name="global_feed">1</property>
    <property name="xml">was here</property>
    <property name="shotcut:caption">Uwe0610_1.MP4</property>
  </producer>
  <tractor id="tractor7" global_feed="1" in="00:00:00.000" out="00:00:01.040">
    <property name="shotcut:transition">lumaMix</property>
    <track producer="producer49" in="00:01:05.960" out="00:01:07.000"/>
    <track producer="producer50" in="00:02:00.960" out="00:02:02.000"/>
    <transition id="transition14" out="00:00:01.040">
      <property name="a_track">0</property>
      <property name="b_track">1</property>
      <property name="factory">loader</property>
      <property name="mlt_service">luma</property>
      <property name="alpha_over">1</property>
    </transition>
    <transition id="transition15" out="00:00:01.040">
      <property name="a_track">0</property>
      <property name="b_track">1</property>
      <property name="mlt_service">mix</property>
      <property name="start">-1</property>
      <property name="accepts_blanks">1</property>
    </transition>
  </tractor>
  <producer id="producer51" in="00:00:00.000" out="00:25:00.480">
    <property name="length">00:25:00.520</property>
    <property name="eof">pause</property>
    <property name="resource">T:/video/para/piemont_2020/0610/Uwe0610_1.MP4</property>
    <property name="audio_index">1</property>
    <property name="video_index">0</property>
    <property name="mute_on_pause">0</property>
    <property name="mlt_service">avformat-novalidate</property>
    <property name="seekable">1</property>
    <property name="aspect_ratio">1</property>
    <property name="creation_time">2020-10-05T01:01:51</property>
    <property name="shotcut:hash">c0af6fc5f5f94f91435c62c95937305a</property>
    <property name="global_feed">1</property>
    <property name="xml">was here</property>
    <property name="shotcut:caption">Uwe0610_1.MP4</property>
  </producer>
  <tractor id="tractor8" global_feed="1" in="00:00:00.000" out="00:00:00.640">
    <property name="shotcut:transition">lumaMix</property>
    <track producer="producer50" in="00:02:02.600" out="00:02:03.240"/>
    <track producer="producer51" in="00:02:18.520" out="00:02:19.160"/>
    <transition id="transition16" out="00:00:00.640">
      <property name="a_track">0</property>
      <property name="b_track">1</property>
      <property name="factory">loader</property>
      <property name="mlt_service">luma</property>
      <property name="alpha_over">1</property>
    </transition>
    <transition id="transition17" out="00:00:00.640">
      <property name="a_track">0</property>
      <property name="b_track">1</property>
      <property name="mlt_service">mix</property>
      <property name="start">-1</property>
      <property name="accepts_blanks">1</property>
    </transition>
  </tractor>
  <producer id="producer52" in="00:00:00.000" out="00:25:00.480">
    <property name="length">00:25:00.520</property>
    <property name="eof">pause</property>
    <property name="resource">T:/video/para/piemont_2020/0610/Uwe0610_1.MP4</property>
    <property name="audio_index">1</property>
    <property name="video_index">0</property>
    <property name="mute_on_pause">0</property>
    <property name="mlt_service">avformat-novalidate</property>
    <property name="seekable">1</property>
    <property name="aspect_ratio">1</property>
    <property name="creation_time">2020-10-05T01:01:51</property>
    <property name="shotcut:hash">c0af6fc5f5f94f91435c62c95937305a</property>
    <property name="global_feed">1</property>
    <property name="xml">was here</property>
    <property name="shotcut:caption">Uwe0610_1.MP4</property>
  </producer>
  <tractor id="tractor9" global_feed="1" in="00:00:00.000" out="00:00:00.720">
    <property name="shotcut:transition">lumaMix</property>
    <track producer="producer51" in="00:02:20.440" out="00:02:21.160"/>
    <track producer="producer52" in="00:02:21.200" out="00:02:21.920"/>
    <transition id="transition18" out="00:00:00.720">
      <property name="a_track">0</property>
      <property name="b_track">1</property>
      <property name="factory">loader</property>
      <property name="mlt_service">luma</property>
      <property name="alpha_over">1</property>
    </transition>
    <transition id="transition19" out="00:00:00.720">
      <property name="a_track">0</property>
      <property name="b_track">1</property>
      <property name="mlt_service">mix</property>
      <property name="start">-1</property>
      <property name="accepts_blanks">1</property>
    </transition>
  </tractor>
  <producer id="producer53" in="00:00:00.000" out="00:25:00.480">
    <property name="length">00:25:00.520</property>
    <property name="eof">pause</property>
    <property name="resource">T:/video/para/piemont_2020/0610/Uwe0610_1.MP4</property>
    <property name="audio_index">1</property>
    <property name="video_index">0</property>
    <property name="mute_on_pause">0</property>
    <property name="mlt_service">avformat-novalidate</property>
    <property name="seekable">1</property>
    <property name="aspect_ratio">1</property>
    <property name="creation_time">2020-10-05T01:01:51</property>
    <property name="shotcut:hash">c0af6fc5f5f94f91435c62c95937305a</property>
    <property name="global_feed">1</property>
    <property name="xml">was here</property>
    <property name="shotcut:caption">Uwe0610_1.MP4</property>
  </producer>
  <tractor id="tractor10" global_feed="1" in="00:00:00.000" out="00:00:01.040">
    <property name="shotcut:transition">lumaMix</property>
    <track producer="producer52" in="00:02:27.960" out="00:02:29.000"/>
    <track producer="producer53" in="00:02:29.040" out="00:02:30.080"/>
    <transition id="transition20" out="00:00:01.040">
      <property name="a_track">0</property>
      <property name="b_track">1</property>
      <property name="factory">loader</property>
      <property name="mlt_service">luma</property>
      <property name="alpha_over">1</property>
    </transition>
    <transition id="transition21" out="00:00:01.040">
      <property name="a_track">0</property>
      <property name="b_track">1</property>
      <property name="mlt_service">mix</property>
      <property name="start">-1</property>
      <property name="accepts_blanks">1</property>
    </transition>
  </tractor>
  <producer id="producer54" in="00:00:00.000" out="00:25:00.480">
    <property name="length">00:25:00.520</property>
    <property name="eof">pause</property>
    <property name="resource">T:/video/para/piemont_2020/0610/Uwe0610_1.MP4</property>
    <property name="audio_index">1</property>
    <property name="video_index">0</property>
    <property name="mute_on_pause">0</property>
    <property name="mlt_service">avformat-novalidate</property>
    <property name="seekable">1</property>
    <property name="aspect_ratio">1</property>
    <property name="creation_time">2020-10-05T01:01:51</property>
    <property name="shotcut:hash">c0af6fc5f5f94f91435c62c95937305a</property>
    <property name="global_feed">1</property>
    <property name="xml">was here</property>
    <property name="shotcut:caption">Uwe0610_1.MP4</property>
    <property name="shotcut:comment">Franz</property>
    <filter id="filter15" in="00:02:32.680" out="00:02:38.440">
      <property name="argument">Franz</property>
      <property name="geometry">109 925 1683 133 1</property>
      <property name="family">Verdana</property>
      <property name="size">1080</property>
      <property name="weight">500</property>
      <property name="style">normal</property>
      <property name="fgcolour">#2f566e</property>
      <property name="bgcolour">#00000000</property>
      <property name="olcolour">#aa000000</property>
      <property name="pad">0</property>
      <property name="halign">center</property>
      <property name="valign">bottom</property>
      <property name="outline">3</property>
      <property name="mlt_service">dynamictext</property>
      <property name="shotcut:filter">dynamicText</property>
      <property name="shotcut:usePointSize">0</property>
      <property name="shotcut:animIn">00:00:00.000</property>
      <property name="shotcut:animOut">00:00:00.000</property>
      <property name="disable">0</property>
    </filter>
  </producer>
  <tractor id="tractor11" global_feed="1" in="00:00:00.000" out="00:00:01.040">
    <property name="shotcut:transition">lumaMix</property>
    <track producer="producer53" in="00:02:31.600" out="00:02:32.640"/>
    <track producer="producer54" in="00:02:32.680" out="00:02:33.720"/>
    <transition id="transition22" out="00:00:01.040">
      <property name="a_track">0</property>
      <property name="b_track">1</property>
      <property name="factory">loader</property>
      <property name="mlt_service">luma</property>
      <property name="alpha_over">1</property>
    </transition>
    <transition id="transition23" out="00:00:01.040">
      <property name="a_track">0</property>
      <property name="b_track">1</property>
      <property name="mlt_service">mix</property>
      <property name="start">-1</property>
      <property name="accepts_blanks">1</property>
    </transition>
  </tractor>
  <producer id="producer55" in="00:00:00.000" out="00:25:00.480">
    <property name="length">00:25:00.520</property>
    <property name="eof">pause</property>
    <property name="resource">T:/video/para/piemont_2020/0610/Uwe0610_1.MP4</property>
    <property name="audio_index">1</property>
    <property name="video_index">0</property>
    <property name="mute_on_pause">0</property>
    <property name="mlt_service">avformat-novalidate</property>
    <property name="seekable">1</property>
    <property name="aspect_ratio">1</property>
    <property name="creation_time">2020-10-05T01:01:51</property>
    <property name="shotcut:hash">c0af6fc5f5f94f91435c62c95937305a</property>
    <property name="global_feed">1</property>
    <property name="xml">was here</property>
    <property name="shotcut:caption">Uwe0610_1.MP4</property>
  </producer>
  <producer id="producer56" in="00:00:00.000" out="00:25:00.480">
    <property name="length">00:25:00.520</property>
    <property name="eof">pause</property>
    <property name="resource">T:/video/para/piemont_2020/0610/Uwe0610_1.MP4</property>
    <property name="audio_index">1</property>
    <property name="video_index">0</property>
    <property name="mute_on_pause">0</property>
    <property name="mlt_service">avformat-novalidate</property>
    <property name="seekable">1</property>
    <property name="aspect_ratio">1</property>
    <property name="creation_time">2020-10-05T01:01:51</property>
    <property name="shotcut:hash">c0af6fc5f5f94f91435c62c95937305a</property>
    <property name="global_feed">1</property>
    <property name="xml">was here</property>
    <property name="shotcut:caption">Uwe0610_1.MP4</property>
  </producer>
  <tractor id="tractor12" global_feed="1" in="00:00:00.000" out="00:00:00.200">
    <property name="shotcut:transition">lumaMix</property>
    <track producer="producer55" in="00:02:40.680" out="00:02:40.880"/>
    <track producer="producer56" in="00:02:40.920" out="00:02:41.120"/>
    <transition id="transition24" out="00:00:00.200">
      <property name="a_track">0</property>
      <property name="b_track">1</property>
      <property name="factory">loader</property>
      <property name="mlt_service">luma</property>
      <property name="alpha_over">1</property>
    </transition>
    <transition id="transition25" out="00:00:00.200">
      <property name="a_track">0</property>
      <property name="b_track">1</property>
      <property name="mlt_service">mix</property>
      <property name="start">-1</property>
      <property name="accepts_blanks">1</property>
    </transition>
  </tractor>
  <producer id="producer57" in="00:00:00.000" out="00:25:00.480">
    <property name="length">00:25:00.520</property>
    <property name="eof">pause</property>
    <property name="resource">T:/video/para/piemont_2020/0610/Uwe0610_1.MP4</property>
    <property name="audio_index">1</property>
    <property name="video_index">0</property>
    <property name="mute_on_pause">0</property>
    <property name="mlt_service">avformat-novalidate</property>
    <property name="seekable">1</property>
    <property name="aspect_ratio">1</property>
    <property name="creation_time">2020-10-05T01:01:51</property>
    <property name="shotcut:hash">c0af6fc5f5f94f91435c62c95937305a</property>
    <property name="global_feed">1</property>
    <property name="xml">was here</property>
    <property name="shotcut:caption">Uwe0610_1.MP4</property>
  </producer>
  <tractor id="tractor13" global_feed="1" in="00:00:00.000" out="00:00:00.800">
    <property name="shotcut:transition">lumaMix</property>
    <track producer="producer56" in="00:02:56.280" out="00:02:57.080"/>
    <track producer="producer57" in="00:23:39.000" out="00:23:39.800"/>
    <transition id="transition26" out="00:00:00.800">
      <property name="a_track">0</property>
      <property name="b_track">1</property>
      <property name="factory">loader</property>
      <property name="mlt_service">luma</property>
      <property name="alpha_over">1</property>
    </transition>
    <transition id="transition27" out="00:00:00.800">
      <property name="a_track">0</property>
      <property name="b_track">1</property>
      <property name="mlt_service">mix</property>
      <property name="start">-1</property>
      <property name="accepts_blanks">1</property>
    </transition>
  </tractor>
  <producer id="producer58" in="00:00:00.000" out="00:25:00.480">
    <property name="length">00:25:00.520</property>
    <property name="eof">pause</property>
    <property name="resource">T:/video/para/piemont_2020/0610/Uwe0610_1.MP4</property>
    <property name="audio_index">1</property>
    <property name="video_index">0</property>
    <property name="mute_on_pause">0</property>
    <property name="mlt_service">avformat-novalidate</property>
    <property name="seekable">1</property>
    <property name="aspect_ratio">1</property>
    <property name="creation_time">2020-10-05T01:01:51</property>
    <property name="shotcut:hash">c0af6fc5f5f94f91435c62c95937305a</property>
    <property name="global_feed">1</property>
    <property name="xml">was here</property>
    <property name="shotcut:caption">Uwe0610_1.MP4</property>
  </producer>
  <producer id="producer59" in="00:00:00.000" out="00:22:03.400">
    <property name="length">00:22:03.440</property>
    <property name="eof">pause</property>
    <property name="resource">T:/video/para/piemont_2020/0610/Uwe0610_2_1.MP4</property>
    <property name="audio_index">1</property>
    <property name="video_index">0</property>
    <property name="mute_on_pause">0</property>
    <property name="mlt_service">avformat-novalidate</property>
    <property name="seekable">1</property>
    <property name="aspect_ratio">1</property>
    <property name="creation_time">2020-10-05T01:26:53</property>
    <property name="shotcut:hash">a69754fa817da0374f93dbda0da8bff1</property>
    <property name="global_feed">1</property>
    <property name="xml">was here</property>
    <property name="ignore_points">0</property>
    <property name="shotcut:caption">Uwe0610_2_1.MP4</property>
  </producer>
  <tractor id="tractor14" global_feed="1" in="00:00:00.000" out="00:00:00.440">
    <property name="shotcut:transition">lumaMix</property>
    <track producer="producer58" in="00:24:21.440" out="00:24:21.880"/>
    <track producer="producer59" in="00:01:48.160" out="00:01:48.600"/>
    <transition id="transition28" out="00:00:00.440">
      <property name="a_track">0</property>
      <property name="b_track">1</property>
      <property name="factory">loader</property>
      <property name="mlt_service">luma</property>
      <property name="alpha_over">1</property>
    </transition>
    <transition id="transition29" out="00:00:00.440">
      <property name="a_track">0</property>
      <property name="b_track">1</property>
      <property name="mlt_service">mix</property>
      <property name="start">-1</property>
      <property name="accepts_blanks">1</property>
    </transition>
  </tractor>
  <producer id="producer60" in="00:00:00.000" out="00:22:03.400">
    <property name="length">00:22:03.440</property>
    <property name="eof">pause</property>
    <property name="resource">T:/video/para/piemont_2020/0610/Uwe0610_2_1.MP4</property>
    <property name="audio_index">1</property>
    <property name="video_index">0</property>
    <property name="mute_on_pause">0</property>
    <property name="mlt_service">avformat-novalidate</property>
    <property name="seekable">1</property>
    <property name="aspect_ratio">1</property>
    <property name="creation_time">2020-10-05T01:26:53</property>
    <property name="shotcut:hash">a69754fa817da0374f93dbda0da8bff1</property>
    <property name="global_feed">1</property>
    <property name="xml">was here</property>
    <property name="ignore_points">0</property>
    <property name="shotcut:caption">Uwe0610_2_1.MP4</property>
    <filter id="filter14" in="00:01:49.400" out="00:01:59.000">
      <property name="argument">Barbara</property>
      <property name="geometry">2 954 1918 126 1</property>
      <property name="family">Verdana</property>
      <property name="size">1080</property>
      <property name="weight">500</property>
      <property name="style">normal</property>
      <property name="fgcolour">#00ff7f</property>
      <property name="bgcolour">#00000000</property>
      <property name="olcolour">#aa000000</property>
      <property name="pad">0</property>
      <property name="halign">center</property>
      <property name="valign">middle</property>
      <property name="outline">3</property>
      <property name="mlt_service">dynamictext</property>
      <property name="shotcut:filter">dynamicText</property>
      <property name="shotcut:usePointSize">0</property>
      <property name="shotcut:animIn">00:00:00.000</property>
      <property name="shotcut:animOut">00:00:00.000</property>
    </filter>
  </producer>
  <producer id="producer61" in="00:00:00.000" out="00:22:03.400">
    <property name="length">00:22:03.440</property>
    <property name="eof">pause</property>
    <property name="resource">T:/video/para/piemont_2020/0610/Uwe0610_2_1.MP4</property>
    <property name="audio_index">1</property>
    <property name="video_index">0</property>
    <property name="mute_on_pause">0</property>
    <property name="mlt_service">avformat-novalidate</property>
    <property name="seekable">1</property>
    <property name="aspect_ratio">1</property>
    <property name="creation_time">2020-10-05T01:26:53</property>
    <property name="shotcut:hash">a69754fa817da0374f93dbda0da8bff1</property>
    <property name="global_feed">1</property>
    <property name="xml">was here</property>
    <property name="ignore_points">0</property>
    <property name="shotcut:caption">Uwe0610_2_1.MP4</property>
  </producer>
  <producer id="producer62" in="00:00:00.000" out="00:22:03.400">
    <property name="length">00:22:03.440</property>
    <property name="eof">pause</property>
    <property name="resource">T:/video/para/piemont_2020/0610/Uwe0610_2_1.MP4</property>
    <property name="audio_index">1</property>
    <property name="video_index">0</property>
    <property name="mute_on_pause">0</property>
    <property name="mlt_service">avformat-novalidate</property>
    <property name="seekable">1</property>
    <property name="aspect_ratio">1</property>
    <property name="creation_time">2020-10-05T01:26:53</property>
    <property name="shotcut:hash">a69754fa817da0374f93dbda0da8bff1</property>
    <property name="global_feed">1</property>
    <property name="xml">was here</property>
    <property name="ignore_points">0</property>
    <property name="shotcut:caption">Uwe0610_2_1.MP4</property>
  </producer>
  <tractor id="tractor15" global_feed="1" in="00:00:00.000" out="00:00:00.720">
    <property name="shotcut:transition">lumaMix</property>
    <track producer="producer61" in="00:02:06.520" out="00:02:07.240"/>
    <track producer="producer62" in="00:11:29.840" out="00:11:30.560"/>
    <transition id="transition30" out="00:00:00.720">
      <property name="a_track">0</property>
      <property name="b_track">1</property>
      <property name="factory">loader</property>
      <property name="mlt_service">luma</property>
      <property name="alpha_over">1</property>
    </transition>
    <transition id="transition31" out="00:00:00.720">
      <property name="a_track">0</property>
      <property name="b_track">1</property>
      <property name="mlt_service">mix</property>
      <property name="start">-1</property>
      <property name="accepts_blanks">1</property>
    </transition>
  </tractor>
  <producer id="producer63" in="00:00:00.000" out="00:22:03.400">
    <property name="length">00:22:03.440</property>
    <property name="eof">pause</property>
    <property name="resource">T:/video/para/piemont_2020/0610/Uwe0610_2_1.MP4</property>
    <property name="audio_index">1</property>
    <property name="video_index">0</property>
    <property name="mute_on_pause">0</property>
    <property name="mlt_service">avformat-novalidate</property>
    <property name="seekable">1</property>
    <property name="aspect_ratio">1</property>
    <property name="creation_time">2020-10-05T01:26:53</property>
    <property name="shotcut:hash">a69754fa817da0374f93dbda0da8bff1</property>
    <property name="global_feed">1</property>
    <property name="xml">was here</property>
    <property name="ignore_points">0</property>
    <property name="shotcut:caption">Uwe0610_2_1.MP4</property>
    <filter id="filter11" in="00:11:39.680" out="00:11:42.640">
      <property name="argument">Gerry</property>
      <property name="geometry">-9 963 1930 117 1</property>
      <property name="family">Verdana</property>
      <property name="size">1080</property>
      <property name="weight">500</property>
      <property name="style">normal</property>
      <property name="fgcolour">#aaff7f</property>
      <property name="bgcolour">#00000000</property>
      <property name="olcolour">#aa000000</property>
      <property name="pad">0</property>
      <property name="halign">center</property>
      <property name="valign">bottom</property>
      <property name="outline">3</property>
      <property name="mlt_service">dynamictext</property>
      <property name="shotcut:filter">dynamicText</property>
      <property name="shotcut:usePointSize">0</property>
      <property name="shotcut:animIn">00:00:00.000</property>
      <property name="shotcut:animOut">00:00:00.000</property>
    </filter>
  </producer>
  <tractor id="tractor16" global_feed="1" in="00:00:00.000" out="00:00:00.440">
    <property name="shotcut:transition">lumaMix</property>
    <track producer="producer62" in="00:11:39.200" out="00:11:39.640"/>
    <track producer="producer63" in="00:11:39.680" out="00:11:40.120"/>
    <transition id="transition32" out="00:00:00.440">
      <property name="a_track">0</property>
      <property name="b_track">1</property>
      <property name="factory">loader</property>
      <property name="mlt_service">luma</property>
      <property name="alpha_over">1</property>
    </transition>
    <transition id="transition33" out="00:00:00.440">
      <property name="a_track">0</property>
      <property name="b_track">1</property>
      <property name="mlt_service">mix</property>
      <property name="start">-1</property>
      <property name="accepts_blanks">1</property>
    </transition>
  </tractor>
  <producer id="producer64" in="00:00:00.000" out="00:22:03.400">
    <property name="length">00:22:03.440</property>
    <property name="eof">pause</property>
    <property name="resource">T:/video/para/piemont_2020/0610/Uwe0610_2_1.MP4</property>
    <property name="audio_index">1</property>
    <property name="video_index">0</property>
    <property name="mute_on_pause">0</property>
    <property name="mlt_service">avformat-novalidate</property>
    <property name="seekable">1</property>
    <property name="aspect_ratio">1</property>
    <property name="creation_time">2020-10-05T01:26:53</property>
    <property name="shotcut:hash">a69754fa817da0374f93dbda0da8bff1</property>
    <property name="global_feed">1</property>
    <property name="xml">was here</property>
    <property name="ignore_points">0</property>
    <property name="shotcut:caption">Uwe0610_2_1.MP4</property>
  </producer>
  <producer id="producer65" in="00:00:00.000" out="00:22:03.400">
    <property name="length">00:22:03.440</property>
    <property name="eof">pause</property>
    <property name="resource">T:/video/para/piemont_2020/0610/Uwe0610_2_1.MP4</property>
    <property name="audio_index">1</property>
    <property name="video_index">0</property>
    <property name="mute_on_pause">0</property>
    <property name="mlt_service">avformat-novalidate</property>
    <property name="seekable">1</property>
    <property name="aspect_ratio">1</property>
    <property name="creation_time">2020-10-05T01:26:53</property>
    <property name="shotcut:hash">a69754fa817da0374f93dbda0da8bff1</property>
    <property name="global_feed">1</property>
    <property name="xml">was here</property>
    <property name="ignore_points">0</property>
    <property name="shotcut:caption">Uwe0610_2_1.MP4</property>
    <filter id="filter16" in="00:11:45.160" out="00:11:50.360">
      <property name="argument">Peter</property>
      <property name="geometry">-10 970 1871 110 1</property>
      <property name="family">Verdana</property>
      <property name="size">1080</property>
      <property name="weight">500</property>
      <property name="style">normal</property>
      <property name="fgcolour">#d77d5c</property>
      <property name="bgcolour">#00000000</property>
      <property name="olcolour">#aa000000</property>
      <property name="pad">0</property>
      <property name="halign">center</property>
      <property name="valign">bottom</property>
      <property name="outline">3</property>
      <property name="mlt_service">dynamictext</property>
      <property name="shotcut:filter">dynamicText</property>
      <property name="shotcut:usePointSize">0</property>
      <property name="shotcut:animIn">00:00:00.000</property>
      <property name="shotcut:animOut">00:00:00.000</property>
    </filter>
  </producer>
  <tractor id="tractor17" global_feed="1" in="00:00:00.000" out="00:00:00.760">
    <property name="shotcut:transition">lumaMix</property>
    <track producer="producer64" in="00:11:44.360" out="00:11:45.120"/>
    <track producer="producer65" in="00:11:45.160" out="00:11:45.920"/>
    <transition id="transition34" out="00:00:00.760">
      <property name="a_track">0</property>
      <property name="b_track">1</property>
      <property name="factory">loader</property>
      <property name="mlt_service">luma</property>
      <property name="alpha_over">1</property>
    </transition>
    <transition id="transition35" out="00:00:00.760">
      <property name="a_track">0</property>
      <property name="b_track">1</property>
      <property name="mlt_service">mix</property>
      <property name="start">-1</property>
      <property name="accepts_blanks">1</property>
    </transition>
  </tractor>
  <producer id="producer66" in="00:00:00.000" out="00:22:03.400">
    <property name="length">00:22:03.440</property>
    <property name="eof">pause</property>
    <property name="resource">T:/video/para/piemont_2020/0610/Uwe0610_2_1.MP4</property>
    <property name="audio_index">1</property>
    <property name="video_index">0</property>
    <property name="mute_on_pause">0</property>
    <property name="mlt_service">avformat-novalidate</property>
    <property name="seekable">1</property>
    <property name="aspect_ratio">1</property>
    <property name="creation_time">2020-10-05T01:26:53</property>
    <property name="shotcut:hash">a69754fa817da0374f93dbda0da8bff1</property>
    <property name="global_feed">1</property>
    <property name="xml">was here</property>
    <property name="ignore_points">0</property>
    <property name="shotcut:caption">Uwe0610_2_1.MP4</property>
  </producer>
  <tractor id="tractor18" global_feed="1" in="00:00:00.000" out="00:00:00.400">
    <property name="shotcut:transition">lumaMix</property>
    <track producer="producer65" in="00:11:49.960" out="00:11:50.360"/>
    <track producer="producer66" in="00:12:26.800" out="00:12:27.200"/>
    <transition id="transition36" out="00:00:00.400">
      <property name="a_track">0</property>
      <property name="b_track">1</property>
      <property name="factory">loader</property>
      <property name="mlt_service">luma</property>
      <property name="alpha_over">1</property>
    </transition>
    <transition id="transition37" out="00:00:00.400">
      <property name="a_track">0</property>
      <property name="b_track">1</property>
      <property name="mlt_service">mix</property>
      <property name="start">-1</property>
      <property name="accepts_blanks">1</property>
    </transition>
  </tractor>
  <producer id="producer67" in="00:00:00.000" out="00:22:03.400">
    <property name="length">00:22:03.440</property>
    <property name="eof">pause</property>
    <property name="resource">T:/video/para/piemont_2020/0610/Uwe0610_2_1.MP4</property>
    <property name="audio_index">1</property>
    <property name="video_index">0</property>
    <property name="mute_on_pause">0</property>
    <property name="mlt_service">avformat-novalidate</property>
    <property name="seekable">1</property>
    <property name="aspect_ratio">1</property>
    <property name="creation_time">2020-10-05T01:26:53</property>
    <property name="shotcut:hash">a69754fa817da0374f93dbda0da8bff1</property>
    <property name="global_feed">1</property>
    <property name="xml">was here</property>
    <property name="ignore_points">0</property>
    <property name="shotcut:caption">Uwe0610_2_1.MP4</property>
    <filter id="filter17" in="00:12:39.720" out="00:12:44.240">
      <property name="argument">Gerry</property>
      <property name="geometry">-9 963 1930 117 1</property>
      <property name="family">Verdana</property>
      <property name="size">1080</property>
      <property name="weight">500</property>
      <property name="style">normal</property>
      <property name="fgcolour">#aaff7f</property>
      <property name="bgcolour">#00000000</property>
      <property name="olcolour">#aa000000</property>
      <property name="pad">0</property>
      <property name="halign">center</property>
      <property name="valign">bottom</property>
      <property name="outline">3</property>
      <property name="mlt_service">dynamictext</property>
      <property name="shotcut:filter">dynamicText</property>
      <property name="shotcut:usePointSize">0</property>
      <property name="shotcut:animIn">00:00:00.000</property>
      <property name="shotcut:animOut">00:00:00.000</property>
    </filter>
  </producer>
  <tractor id="tractor19" global_feed="1" in="00:00:00.000" out="00:00:00.480">
    <property name="shotcut:transition">lumaMix</property>
    <track producer="producer66" in="00:12:34.880" out="00:12:35.360"/>
    <track producer="producer67" in="00:12:39.720" out="00:12:40.200"/>
    <transition id="transition38" out="00:00:00.480">
      <property name="a_track">0</property>
      <property name="b_track">1</property>
      <property name="factory">loader</property>
      <property name="mlt_service">luma</property>
      <property name="alpha_over">1</property>
    </transition>
    <transition id="transition39" out="00:00:00.480">
      <property name="a_track">0</property>
      <property name="b_track">1</property>
      <property name="mlt_service">mix</property>
      <property name="start">-1</property>
      <property name="accepts_blanks">1</property>
    </transition>
  </tractor>
  <producer id="producer68" in="00:00:00.000" out="00:22:03.400">
    <property name="length">00:22:03.440</property>
    <property name="eof">pause</property>
    <property name="resource">T:/video/para/piemont_2020/0610/Uwe0610_2_1.MP4</property>
    <property name="audio_index">1</property>
    <property name="video_index">0</property>
    <property name="mute_on_pause">0</property>
    <property name="mlt_service">avformat-novalidate</property>
    <property name="seekable">1</property>
    <property name="aspect_ratio">1</property>
    <property name="creation_time">2020-10-05T01:26:53</property>
    <property name="shotcut:hash">a69754fa817da0374f93dbda0da8bff1</property>
    <property name="global_feed">1</property>
    <property name="xml">was here</property>
    <property name="ignore_points">0</property>
    <property name="shotcut:caption">Uwe0610_2_1.MP4</property>
  </producer>
  <tractor id="tractor20" global_feed="1" in="00:00:00.000" out="00:00:00.440">
    <property name="shotcut:transition">lumaMix</property>
    <track producer="producer67" in="00:12:43.800" out="00:12:44.240"/>
    <track producer="producer68" in="00:12:54.280" out="00:12:54.720"/>
    <transition id="transition40" out="00:00:00.440">
      <property name="a_track">0</property>
      <property name="b_track">1</property>
      <property name="factory">loader</property>
      <property name="mlt_service">luma</property>
      <property name="alpha_over">1</property>
    </transition>
    <transition id="transition41" out="00:00:00.440">
      <property name="a_track">0</property>
      <property name="b_track">1</property>
      <property name="mlt_service">mix</property>
      <property name="start">-1</property>
      <property name="accepts_blanks">1</property>
    </transition>
  </tractor>
  <producer id="producer69" in="00:00:00.000" out="00:22:03.400">
    <property name="length">00:22:03.440</property>
    <property name="eof">pause</property>
    <property name="resource">T:/video/para/piemont_2020/0610/Uwe0610_2_1.MP4</property>
    <property name="seekable">1</property>
    <property name="aspect_ratio">1</property>
    <property name="audio_index">1</property>
    <property name="video_index">0</property>
    <property name="mute_on_pause">1</property>
    <property name="mlt_service">avformat</property>
    <property name="video_delay">0</property>
    <property name="shotcut:hash">a69754fa817da0374f93dbda0da8bff1</property>
    <property name="shotcut:defaultAudioIndex">1</property>
    <property name="shotcut:caption">Uwe0610_2_1.MP4</property>
    <property name="global_feed">1</property>
    <property name="xml">was here</property>
    <filter id="filter18" in="00:13:46.560" out="00:14:02.840">
      <property name="window">75</property>
      <property name="max_gain">20dB</property>
      <property name="level">00:00:13.320=0;00:00:15.800=-60</property>
      <property name="mlt_service">volume</property>
      <property name="shotcut:filter">fadeOutVolume</property>
      <property name="shotcut:animOut">63</property>
    </filter>
    <filter id="filter19" in="00:13:47.040" out="00:14:02.840">
      <property name="start">1</property>
      <property name="level">00:00:13.320=1;00:00:15.800=0</property>
      <property name="mlt_service">brightness</property>
      <property name="shotcut:filter">fadeOutBrightness</property>
      <property name="alpha">1</property>
      <property name="shotcut:animOut">00:00:02.520</property>
      <property name="disable">1</property>
    </filter>
  </producer>
  <tractor id="tractor21" global_feed="1" in="00:00:00.000" out="00:00:00.440">
    <property name="shotcut:transition">lumaMix</property>
    <track producer="producer68" in="00:13:00.800" out="00:13:01.240"/>
    <track producer="producer69" in="00:13:46.560" out="00:13:47.000"/>
    <transition id="transition42" out="00:00:00.440">
      <property name="a_track">0</property>
      <property name="b_track">1</property>
      <property name="factory">loader</property>
      <property name="mlt_service">luma</property>
      <property name="alpha_over">1</property>
    </transition>
    <transition id="transition43" out="00:00:00.440">
      <property name="a_track">0</property>
      <property name="b_track">1</property>
      <property name="mlt_service">mix</property>
      <property name="start">0</property>
      <property name="accepts_blanks">1</property>
    </transition>
  </tractor>
  <producer id="producer70" in="00:00:00.000" out="00:22:03.400">
    <property name="length">00:22:03.440</property>
    <property name="eof">pause</property>
    <property name="resource">T:/video/para/piemont_2020/0610/Uwe0610_2_1.MP4</property>
    <property name="seekable">1</property>
    <property name="aspect_ratio">1</property>
    <property name="audio_index">-1</property>
    <property name="video_index">0</property>
    <property name="mute_on_pause">1</property>
    <property name="mlt_service">avformat</property>
    <property name="video_delay">0</property>
    <property name="shotcut:hash">a69754fa817da0374f93dbda0da8bff1</property>
    <property name="shotcut:defaultAudioIndex">1</property>
    <property name="shotcut:caption">Uwe0610_2_1.MP4</property>
    <property name="global_feed">1</property>
    <property name="xml">was here</property>
  </producer>
  <producer id="producer71" in="00:00:00.000" out="00:22:03.400">
    <property name="length">00:22:03.440</property>
    <property name="eof">pause</property>
    <property name="resource">T:/video/para/piemont_2020/0610/Uwe0610_2_1.MP4</property>
    <property name="seekable">1</property>
    <property name="aspect_ratio">1</property>
    <property name="audio_index">-1</property>
    <property name="video_index">0</property>
    <property name="mute_on_pause">1</property>
    <property name="mlt_service">avformat</property>
    <property name="video_delay">0</property>
    <property name="shotcut:hash">a69754fa817da0374f93dbda0da8bff1</property>
    <property name="shotcut:defaultAudioIndex">1</property>
    <property name="shotcut:caption">Uwe0610_2_1.MP4</property>
    <property name="global_feed">1</property>
    <property name="xml">was here</property>
  </producer>
  <tractor id="tractor22" global_feed="1" in="00:00:00.000" out="00:00:00.440">
    <property name="shotcut:transition">lumaMix</property>
    <track producer="producer70" in="00:14:32.120" out="00:14:32.560"/>
    <track producer="producer71" in="00:17:04.360" out="00:17:04.800"/>
    <transition id="transition44" out="00:00:00.440">
      <property name="a_track">0</property>
      <property name="b_track">1</property>
      <property name="factory">loader</property>
      <property name="mlt_service">luma</property>
      <property name="alpha_over">1</property>
    </transition>
    <transition id="transition45" out="00:00:00.440">
      <property name="a_track">0</property>
      <property name="b_track">1</property>
      <property name="mlt_service">mix</property>
      <property name="start">0</property>
      <property name="accepts_blanks">1</property>
    </transition>
  </tractor>
  <producer id="producer72" in="00:00:00.000" out="00:22:03.400">
    <property name="length">00:22:03.440</property>
    <property name="eof">pause</property>
    <property name="resource">T:/video/para/piemont_2020/0610/Uwe0610_2_1.MP4</property>
    <property name="seekable">1</property>
    <property name="aspect_ratio">1</property>
    <property name="audio_index">-1</property>
    <property name="video_index">0</property>
    <property name="mute_on_pause">1</property>
    <property name="mlt_service">avformat</property>
    <property name="video_delay">0</property>
    <property name="shotcut:hash">a69754fa817da0374f93dbda0da8bff1</property>
    <property name="shotcut:defaultAudioIndex">1</property>
    <property name="shotcut:caption">Uwe0610_2_1.MP4</property>
    <property name="global_feed">1</property>
    <property name="xml">was here</property>
  </producer>
  <tractor id="tractor23" global_feed="1" in="00:00:00.000" out="00:00:00.760">
    <property name="shotcut:transition">lumaMix</property>
    <track producer="producer71" in="00:17:06.400" out="00:17:07.160"/>
    <track producer="producer72" in="00:17:22.880" out="00:17:23.640"/>
    <transition id="transition46" out="00:00:00.760">
      <property name="a_track">0</property>
      <property name="b_track">1</property>
      <property name="factory">loader</property>
      <property name="mlt_service">luma</property>
      <property name="alpha_over">1</property>
    </transition>
    <transition id="transition47" out="00:00:00.760">
      <property name="a_track">0</property>
      <property name="b_track">1</property>
      <property name="mlt_service">mix</property>
      <property name="start">0</property>
      <property name="accepts_blanks">1</property>
    </transition>
  </tractor>
  <producer id="producer74" in="00:00:00.000" out="00:22:03.400">
    <property name="length">00:22:03.440</property>
    <property name="eof">pause</property>
    <property name="resource">T:/video/para/piemont_2020/0610/Uwe0610_2_1.MP4</property>
    <property name="seekable">1</property>
    <property name="aspect_ratio">1</property>
    <property name="audio_index">-1</property>
    <property name="video_index">0</property>
    <property name="mute_on_pause">1</property>
    <property name="mlt_service">avformat</property>
    <property name="video_delay">0</property>
    <property name="shotcut:hash">a69754fa817da0374f93dbda0da8bff1</property>
    <property name="shotcut:defaultAudioIndex">1</property>
    <property name="shotcut:caption">Uwe0610_2_1.MP4</property>
    <property name="global_feed">1</property>
    <property name="xml">was here</property>
  </producer>
  <tractor id="tractor24" global_feed="1" in="00:00:00.000" out="00:00:01.080">
    <property name="shotcut:transition">lumaMix</property>
    <track producer="producer72" in="00:17:30.440" out="00:17:31.520"/>
    <track producer="producer74" in="00:19:25.840" out="00:19:26.920"/>
    <transition id="transition48" out="00:00:01.080">
      <property name="a_track">0</property>
      <property name="b_track">1</property>
      <property name="factory">loader</property>
      <property name="mlt_service">luma</property>
      <property name="alpha_over">1</property>
    </transition>
    <transition id="transition49" out="00:00:01.080">
      <property name="a_track">0</property>
      <property name="b_track">1</property>
      <property name="mlt_service">mix</property>
      <property name="start">0</property>
      <property name="accepts_blanks">1</property>
    </transition>
  </tractor>
  <producer id="producer76" in="00:00:00.000" out="00:22:03.400">
    <property name="length">00:22:03.440</property>
    <property name="eof">pause</property>
    <property name="resource">T:/video/para/piemont_2020/0610/Uwe0610_2_1.MP4</property>
    <property name="seekable">1</property>
    <property name="aspect_ratio">1</property>
    <property name="audio_index">-1</property>
    <property name="video_index">0</property>
    <property name="mute_on_pause">1</property>
    <property name="mlt_service">avformat</property>
    <property name="video_delay">0</property>
    <property name="shotcut:hash">a69754fa817da0374f93dbda0da8bff1</property>
    <property name="shotcut:defaultAudioIndex">1</property>
    <property name="shotcut:caption">Uwe0610_2_1.MP4</property>
    <property name="global_feed">1</property>
    <property name="xml">was here</property>
  </producer>
  <tractor id="tractor25" global_feed="1" in="00:00:00.000" out="00:00:00.840">
    <property name="shotcut:transition">lumaMix</property>
    <track producer="producer74" in="00:20:00.400" out="00:20:01.240"/>
    <track producer="producer76" in="00:20:01.280" out="00:20:02.120"/>
    <transition id="transition50" out="00:00:00.840">
      <property name="a_track">0</property>
      <property name="b_track">1</property>
      <property name="factory">loader</property>
      <property name="mlt_service">luma</property>
      <property name="alpha_over">1</property>
    </transition>
    <transition id="transition51" out="00:00:00.840">
      <property name="a_track">0</property>
      <property name="b_track">1</property>
      <property name="mlt_service">mix</property>
      <property name="start">0</property>
      <property name="accepts_blanks">1</property>
    </transition>
  </tractor>
  <producer id="producer73" in="00:00:00.000" out="00:22:03.400">
    <property name="length">00:22:03.440</property>
    <property name="eof">pause</property>
    <property name="resource">T:/video/para/piemont_2020/0610/Uwe0610_2_1.MP4</property>
    <property name="seekable">1</property>
    <property name="aspect_ratio">1</property>
    <property name="audio_index">-1</property>
    <property name="video_index">0</property>
    <property name="mute_on_pause">1</property>
    <property name="mlt_service">avformat</property>
    <property name="video_delay">0</property>
    <property name="shotcut:hash">a69754fa817da0374f93dbda0da8bff1</property>
    <property name="shotcut:defaultAudioIndex">1</property>
    <property name="shotcut:caption">Uwe0610_2_1.MP4</property>
    <property name="global_feed">1</property>
    <property name="xml">was here</property>
    <filter id="filter20" in="00:20:36.560" out="00:21:06.160">
      <property name="argument">Thomas</property>
      <property name="geometry">-9 963 1930 117 1</property>
      <property name="family">Verdana</property>
      <property name="size">1080</property>
      <property name="weight">500</property>
      <property name="style">normal</property>
      <property name="fgcolour">#c87661</property>
      <property name="bgcolour">#00000000</property>
      <property name="olcolour">#aa000000</property>
      <property name="pad">0</property>
      <property name="halign">center</property>
      <property name="valign">bottom</property>
      <property name="outline">3</property>
      <property name="mlt_service">dynamictext</property>
      <property name="shotcut:filter">dynamicText</property>
      <property name="shotcut:usePointSize">0</property>
      <property name="shotcut:animIn">00:00:00.000</property>
      <property name="shotcut:animOut">00:00:00.000</property>
    </filter>
  </producer>
  <producer id="producer75" in="00:00:00.000" out="00:22:03.400">
    <property name="length">00:22:03.440</property>
    <property name="eof">pause</property>
    <property name="resource">T:/video/para/piemont_2020/0610/Uwe0610_2_1.MP4</property>
    <property name="seekable">1</property>
    <property name="aspect_ratio">1</property>
    <property name="audio_index">-1</property>
    <property name="video_index">0</property>
    <property name="mute_on_pause">1</property>
    <property name="mlt_service">avformat</property>
    <property name="video_delay">0</property>
    <property name="shotcut:hash">a69754fa817da0374f93dbda0da8bff1</property>
    <property name="shotcut:defaultAudioIndex">1</property>
    <property name="shotcut:caption">Uwe0610_2_1.MP4</property>
    <property name="global_feed">1</property>
    <property name="xml">was here</property>
  </producer>
  <producer id="producer78" in="00:00:00.000" out="00:00:31.720">
    <property name="length">00:00:31.760</property>
    <property name="eof">pause</property>
    <property name="resource">T:/video/para/piemont_2020/0610/Franz_und_Alois_0610.MP4</property>
    <property name="seekable">1</property>
    <property name="aspect_ratio">1</property>
    <property name="audio_index">-1</property>
    <property name="video_index">0</property>
    <property name="mute_on_pause">1</property>
    <property name="mlt_service">avformat</property>
    <property name="video_delay">0</property>
    <property name="shotcut:hash">92569a1f0fa83eb86c3e778ba0d08aee</property>
    <property name="shotcut:defaultAudioIndex">1</property>
    <property name="shotcut:caption">Franz_und_Alois_0610.MP4</property>
    <property name="global_feed">1</property>
    <property name="xml">was here</property>
    <filter id="filter21" out="00:00:31.720">
      <property name="argument">Alois vs. Franz</property>
      <property name="geometry">-9 963 1930 117 1</property>
      <property name="family">Verdana</property>
      <property name="size">1080</property>
      <property name="weight">500</property>
      <property name="style">normal</property>
      <property name="fgcolour">#aaff7f</property>
      <property name="bgcolour">#00000000</property>
      <property name="olcolour">#aa000000</property>
      <property name="pad">0</property>
      <property name="halign">center</property>
      <property name="valign">bottom</property>
      <property name="outline">3</property>
      <property name="mlt_service">dynamictext</property>
      <property name="shotcut:filter">dynamicText</property>
      <property name="shotcut:usePointSize">0</property>
      <property name="shotcut:animIn">00:00:00.000</property>
      <property name="shotcut:animOut">00:00:00.000</property>
    </filter>
  </producer>
  <tractor id="tractor26" global_feed="1" in="00:00:00.000" out="00:00:00.800">
    <property name="shotcut:transition">lumaMix</property>
    <track producer="producer75" in="00:21:24.920" out="00:21:25.720"/>
    <track producer="producer78" in="00:00:00.000" out="00:00:00.800"/>
    <transition id="transition52" out="00:00:00.800">
      <property name="a_track">0</property>
      <property name="b_track">1</property>
      <property name="factory">loader</property>
      <property name="mlt_service">luma</property>
      <property name="alpha_over">1</property>
    </transition>
    <transition id="transition53" out="00:00:00.800">
      <property name="a_track">0</property>
      <property name="b_track">1</property>
      <property name="mlt_service">mix</property>
      <property name="start">0</property>
      <property name="accepts_blanks">1</property>
    </transition>
  </tractor>
  <producer id="producer80" in="00:00:00.000" out="00:00:11.840">
    <property name="length">00:00:11.880</property>
    <property name="eof">pause</property>
    <property name="resource">T:/video/para/piemont_2020/0510/Peter0510.MP4</property>
    <property name="seekable">1</property>
    <property name="aspect_ratio">1</property>
    <property name="audio_index">-1</property>
    <property name="video_index">0</property>
    <property name="mute_on_pause">1</property>
    <property name="mlt_service">avformat</property>
    <property name="video_delay">0</property>
    <property name="shotcut:hash">272abd5e5424f82dd95f3c0c963b4630</property>
    <property name="shotcut:defaultAudioIndex">1</property>
    <property name="shotcut:caption">Peter0510.MP4</property>
    <property name="global_feed">1</property>
    <property name="xml">was here</property>
  </producer>
  <tractor id="tractor27" global_feed="1" in="00:00:00.000" out="00:00:00.240">
    <property name="shotcut:transition">lumaMix</property>
    <track producer="producer78" in="00:00:31.480" out="00:00:31.720"/>
    <track producer="producer80" in="00:00:00.000" out="00:00:00.240"/>
    <transition id="transition54" out="00:00:00.240">
      <property name="a_track">0</property>
      <property name="b_track">1</property>
      <property name="factory">loader</property>
      <property name="mlt_service">luma</property>
      <property name="alpha_over">1</property>
    </transition>
    <transition id="transition55" out="00:00:00.240">
      <property name="a_track">0</property>
      <property name="b_track">1</property>
      <property name="mlt_service">mix</property>
      <property name="start">0</property>
      <property name="accepts_blanks">1</property>
    </transition>
  </tractor>
  <producer id="producer82" in="00:00:00.000" out="00:00:24.520">
    <property name="length">00:00:24.560</property>
    <property name="eof">pause</property>
    <property name="resource">T:/video/para/piemont_2020/0510/robert0510.MP4</property>
    <property name="seekable">1</property>
    <property name="aspect_ratio">1</property>
    <property name="audio_index">-1</property>
    <property name="video_index">0</property>
    <property name="mute_on_pause">1</property>
    <property name="mlt_service">avformat</property>
    <property name="video_delay">0</property>
    <property name="shotcut:hash">7c8fffe74ee05a9eb06deee1ec577e77</property>
    <property name="shotcut:defaultAudioIndex">1</property>
    <property name="shotcut:caption">robert0510.MP4</property>
    <property name="global_feed">1</property>
    <property name="xml">was here</property>
  </producer>
  <tractor id="tractor28" global_feed="1" in="00:00:00.000" out="00:00:00.160">
    <property name="shotcut:transition">lumaMix</property>
    <track producer="producer80" in="00:00:06.240" out="00:00:06.400"/>
    <track producer="producer82" in="00:00:18.320" out="00:00:18.480"/>
    <transition id="transition56" out="00:00:00.160">
      <property name="a_track">0</property>
      <property name="b_track">1</property>
      <property name="factory">loader</property>
      <property name="mlt_service">luma</property>
      <property name="alpha_over">1</property>
    </transition>
    <transition id="transition57" out="00:00:00.160">
      <property name="a_track">0</property>
      <property name="b_track">1</property>
      <property name="mlt_service">mix</property>
      <property name="start">0</property>
      <property name="accepts_blanks">1</property>
    </transition>
  </tractor>
  <producer id="producer83" in="00:00:00.000" out="00:00:27.960">
    <property name="length">00:00:28.000</property>
    <property name="eof">pause</property>
    <property name="resource">T:/video/para/piemont_2020/0610/Babs0610_Ldg.MP4</property>
    <property name="seekable">1</property>
    <property name="aspect_ratio">1</property>
    <property name="audio_index">-1</property>
    <property name="video_index">0</property>
    <property name="mute_on_pause">1</property>
    <property name="mlt_service">avformat</property>
    <property name="video_delay">0</property>
    <property name="shotcut:hash">f2469ba2512d4713cbb7db8b3da24332</property>
    <property name="shotcut:defaultAudioIndex">1</property>
    <property name="shotcut:caption">Babs0610_Ldg.MP4</property>
    <property name="global_feed">1</property>
    <property name="xml">was here</property>
    <filter id="filter22" in="00:00:01.000" out="00:00:27.160">
      <property name="argument">Barbara</property>
      <property name="geometry">2 954 1918 126 1</property>
      <property name="family">Verdana</property>
      <property name="size">1080</property>
      <property name="weight">500</property>
      <property name="style">normal</property>
      <property name="fgcolour">#00ff7f</property>
      <property name="bgcolour">#00000000</property>
      <property name="olcolour">#aa000000</property>
      <property name="pad">0</property>
      <property name="halign">center</property>
      <property name="valign">middle</property>
      <property name="outline">3</property>
      <property name="mlt_service">dynamictext</property>
      <property name="shotcut:filter">dynamicText</property>
      <property name="shotcut:usePointSize">0</property>
      <property name="shotcut:animIn">00:00:00.000</property>
      <property name="shotcut:animOut">00:00:00.000</property>
    </filter>
  </producer>
  <producer id="producer85" in="00:00:00.000" out="03:59:59.960">
    <property name="length">04:00:00.000</property>
    <property name="eof">pause</property>
    <property name="resource">pics/menue.jpg</property>
    <property name="ttl">1</property>
    <property name="aspect_ratio">1</property>
    <property name="progressive">1</property>
    <property name="seekable">1</property>
    <property name="mlt_service">qimage</property>
    <property name="creation_time">2020-10-13T19:12:34</property>
    <property name="shotcut:caption">menue.jpg</property>
    <property name="shotcut:hash">3dcd44399d0add0c1c6760e03fc23803</property>
    <property name="ignore_points">0</property>
    <property name="global_feed">1</property>
    <property name="xml">was here</property>
    <filter id="filter23" out="00:00:12.520">
      <property name="start">1</property>
      <property name="level">00:00:10.080=1;00:00:12.520=0</property>
      <property name="mlt_service">brightness</property>
      <property name="shotcut:filter">fadeOutBrightness</property>
      <property name="alpha">1</property>
      <property name="shotcut:animOut">00:00:02.480</property>
    </filter>
  </producer>
  <tractor id="tractor29" global_feed="1" in="00:00:00.000" out="00:00:02.640">
    <property name="shotcut:transition">lumaMix</property>
    <track producer="producer83" in="00:00:24.520" out="00:00:27.160"/>
    <track producer="producer85" in="00:00:00.760" out="00:00:03.400"/>
    <transition id="transition58" out="00:00:02.640">
      <property name="a_track">0</property>
      <property name="b_track">1</property>
      <property name="factory">loader</property>
      <property name="mlt_service">luma</property>
      <property name="alpha_over">1</property>
    </transition>
    <transition id="transition59" out="00:00:02.640">
      <property name="a_track">0</property>
      <property name="b_track">1</property>
      <property name="mlt_service">mix</property>
      <property name="start">0</property>
      <property name="accepts_blanks">1</property>
    </transition>
  </tractor>
  <playlist id="playlist0">
    <property name="shotcut:video">1</property>
    <property name="shotcut:name">V1</property>
    <entry producer="producer41" in="00:00:00.000" out="00:00:01.960"/>
    <entry producer="producer33" in="00:00:00.000" out="00:00:03.200"/>
    <entry producer="producer34" in="00:00:00.000" out="00:00:02.800"/>
    <entry producer="producer35" in="00:00:00.240" out="00:00:02.760"/>
    <entry producer="producer36" in="00:00:00.200" out="00:00:02.960"/>
    <entry producer="producer37" in="00:00:00.000" out="00:00:03.000"/>
    <entry producer="producer38" in="00:00:00.000" out="00:00:03.040"/>
    <entry producer="producer39" in="00:00:00.000" out="00:00:02.960"/>
    <entry producer="producer40" in="00:00:00.000" out="00:00:03.000"/>
    <entry producer="producer42" in="00:00:00.000" out="00:00:02.960"/>
    <entry producer="producer43" in="00:00:16.360" out="00:00:27.520"/>
    <entry producer="tractor1" in="00:00:00.000" out="00:00:01.000"/>
    <entry producer="producer44" in="00:00:01.040" out="00:00:14.200"/>
    <entry producer="tractor2" in="00:00:00.000" out="00:00:01.200"/>
    <entry producer="producer45" in="00:00:01.240" out="00:00:13.440"/>
    <entry producer="tractor0" in="00:00:00.000" out="00:00:00.000"/>
    <entry producer="producer47" in="00:00:00.000" out="00:00:08.800"/>
    <entry producer="producer48" in="00:00:12.720" out="00:00:18.200"/>
    <entry producer="tractor3" in="00:00:00.000" out="00:00:00.520"/>
    <entry producer="producer49" in="00:00:27.880" out="00:01:05.920"/>
    <entry producer="tractor7" in="00:00:00.000" out="00:00:01.040"/>
    <entry producer="producer50" in="00:02:02.040" out="00:02:02.560"/>
    <entry producer="tractor8" in="00:00:00.000" out="00:00:00.640"/>
    <entry producer="producer51" in="00:02:19.200" out="00:02:20.400"/>
    <entry producer="tractor9" in="00:00:00.000" out="00:00:00.720"/>
    <entry producer="producer52" in="00:02:21.960" out="00:02:27.920"/>
    <entry producer="tractor10" in="00:00:00.000" out="00:00:01.040"/>
    <entry producer="producer53" in="00:02:30.120" out="00:02:31.560"/>
    <entry producer="tractor11" in="00:00:00.000" out="00:00:01.040"/>
    <entry producer="producer54" in="00:02:33.760" out="00:02:38.440"/>
    <entry producer="producer55" in="00:02:38.480" out="00:02:40.640"/>
    <entry producer="tractor12" in="00:00:00.000" out="00:00:00.200"/>
    <entry producer="producer56" in="00:02:41.160" out="00:02:56.240"/>
    <entry producer="tractor13" in="00:00:00.000" out="00:00:00.800"/>
    <entry producer="producer57" in="00:23:39.840" out="00:24:02.040"/>
    <entry producer="producer58" in="00:24:02.080" out="00:24:21.400"/>
    <entry producer="tractor14" in="00:00:00.000" out="00:00:00.440"/>
    <entry producer="producer59" in="00:01:48.640" out="00:01:49.360"/>
    <entry producer="producer60" in="00:01:49.400" out="00:01:59.000"/>
    <entry producer="producer61" in="00:01:59.040" out="00:02:06.480"/>
    <entry producer="tractor15" in="00:00:00.000" out="00:00:00.720"/>
    <entry producer="producer62" in="00:11:30.600" out="00:11:39.160"/>
    <entry producer="tractor16" in="00:00:00.000" out="00:00:00.440"/>
    <entry producer="producer63" in="00:11:40.160" out="00:11:42.640"/>
    <entry producer="producer64" in="00:11:42.680" out="00:11:44.320"/>
    <entry producer="tractor17" in="00:00:00.000" out="00:00:00.760"/>
    <entry producer="producer65" in="00:11:45.960" out="00:11:49.920"/>
    <entry producer="tractor18" in="00:00:00.000" out="00:00:00.400"/>
    <entry producer="producer66" in="00:12:27.240" out="00:12:34.840"/>
    <entry producer="tractor19" in="00:00:00.000" out="00:00:00.480"/>
    <entry producer="producer67" in="00:12:40.240" out="00:12:43.760"/>
    <entry producer="tractor20" in="00:00:00.000" out="00:00:00.440"/>
    <entry producer="producer68" in="00:12:54.760" out="00:13:00.760"/>
    <entry producer="tractor21" in="00:00:00.000" out="00:00:00.440"/>
    <entry producer="producer69" in="00:13:47.040" out="00:14:02.840"/>
    <entry producer="producer70" in="00:14:02.880" out="00:14:32.080"/>
    <entry producer="tractor22" in="00:00:00.000" out="00:00:00.440"/>
    <entry producer="producer71" in="00:17:04.840" out="00:17:06.360"/>
    <entry producer="tractor23" in="00:00:00.000" out="00:00:00.760"/>
    <entry producer="producer72" in="00:17:23.680" out="00:17:30.400"/>
    <entry producer="tractor24" in="00:00:00.000" out="00:00:01.080"/>
    <entry producer="producer74" in="00:19:26.960" out="00:20:00.360"/>
    <entry producer="tractor25" in="00:00:00.000" out="00:00:00.840"/>
    <entry producer="producer76" in="00:20:02.160" out="00:20:36.520"/>
    <entry producer="producer73" in="00:20:36.560" out="00:21:06.160"/>
    <entry producer="producer75" in="00:21:06.200" out="00:21:24.880"/>
    <entry producer="tractor26" in="00:00:00.000" out="00:00:00.800"/>
    <entry producer="producer78" in="00:00:00.840" out="00:00:31.440"/>
    <entry producer="tractor27" in="00:00:00.000" out="00:00:00.240"/>
    <entry producer="producer80" in="00:00:00.280" out="00:00:06.200"/>
    <entry producer="tractor28" in="00:00:00.000" out="00:00:00.160"/>
    <entry producer="producer82" in="00:00:18.520" out="00:00:24.520"/>
    <entry producer="producer83" in="00:00:01.000" out="00:00:24.480"/>
    <entry producer="tractor29" in="00:00:00.000" out="00:00:02.640"/>
    <entry producer="producer85" in="00:00:03.440" out="00:00:12.520"/>
  </playlist>
  <producer id="producer86" in="00:00:00.000" out="00:04:19.400">
    <property name="length">00:04:19.440</property>
    <property name="eof">pause</property>
    <property name="resource">C:/Users/uwe/Music/4K YouTube to MP3/Money For Nothing; drum cover by Sina.mp3</property>
    <property name="audio_index">0</property>
    <property name="video_index">1</property>
    <property name="mute_on_pause">0</property>
    <property name="mlt_service">avformat-novalidate</property>
    <property name="seekable">1</property>
    <property name="aspect_ratio">1</property>
    <property name="creation_time">2020-04-07T15:59:57</property>
    <property name="global_feed">1</property>
    <property name="xml">was here</property>
    <property name="shotcut:hash">829e289ac4e6a31116e7a7f72739a4a4</property>
    <property name="ignore_points">0</property>
    <property name="shotcut:caption">Money For Nothing; drum cover by Sina.mp3</property>
    <filter id="filter24" in="00:00:17.360" out="00:00:33.440">
      <property name="window">75</property>
      <property name="max_gain">20dB</property>
      <property name="level">00:00:00.000=-60;00:00:02.480=0</property>
      <property name="mlt_service">volume</property>
      <property name="shotcut:filter">fadeInVolume</property>
      <property name="shotcut:animIn">00:00:02.520</property>
    </filter>
  </producer>
  <producer id="producer87" in="00:00:00.000" out="00:04:19.400">
    <property name="length">00:04:19.440</property>
    <property name="eof">pause</property>
    <property name="resource">C:/Users/uwe/Music/4K YouTube to MP3/Money For Nothing; drum cover by Sina.mp3</property>
    <property name="audio_index">0</property>
    <property name="video_index">1</property>
    <property name="mute_on_pause">0</property>
    <property name="mlt_service">avformat-novalidate</property>
    <property name="seekable">1</property>
    <property name="aspect_ratio">1</property>
    <property name="creation_time">2020-04-07T15:59:57</property>
    <property name="global_feed">1</property>
    <property name="xml">was here</property>
    <property name="shotcut:hash">829e289ac4e6a31116e7a7f72739a4a4</property>
    <property name="ignore_points">0</property>
    <property name="shotcut:caption">Money For Nothing; drum cover by Sina.mp3</property>
  </producer>
  <producer id="producer77" in="00:00:00.000" out="00:04:19.400">
    <property name="length">00:04:19.440</property>
    <property name="eof">pause</property>
    <property name="resource">C:/Users/uwe/Music/4K YouTube to MP3/Money For Nothing; drum cover by Sina.mp3</property>
    <property name="audio_index">0</property>
    <property name="video_index">1</property>
    <property name="mute_on_pause">0</property>
    <property name="mlt_service">avformat-novalidate</property>
    <property name="seekable">1</property>
    <property name="aspect_ratio">1</property>
    <property name="creation_time">2020-04-07T15:59:57</property>
    <property name="global_feed">1</property>
    <property name="xml">was here</property>
    <property name="shotcut:hash">829e289ac4e6a31116e7a7f72739a4a4</property>
    <property name="ignore_points">0</property>
    <property name="shotcut:caption">Money For Nothing; drum cover by Sina.mp3</property>
  </producer>
  <producer id="producer88" in="00:00:00.000" out="00:04:19.400">
    <property name="length">00:04:19.440</property>
    <property name="eof">pause</property>
    <property name="resource">C:/Users/uwe/Music/4K YouTube to MP3/Money For Nothing; drum cover by Sina.mp3</property>
    <property name="audio_index">0</property>
    <property name="video_index">1</property>
    <property name="mute_on_pause">0</property>
    <property name="mlt_service">avformat-novalidate</property>
    <property name="seekable">1</property>
    <property name="aspect_ratio">1</property>
    <property name="creation_time">2020-04-07T15:59:57</property>
    <property name="global_feed">1</property>
    <property name="xml">was here</property>
    <property name="shotcut:hash">829e289ac4e6a31116e7a7f72739a4a4</property>
    <property name="ignore_points">0</property>
    <property name="shotcut:caption">Money For Nothing; drum cover by Sina.mp3</property>
    <filter id="filter25" in="00:00:41.080" out="00:04:31.000">
      <property name="window">75</property>
      <property name="max_gain">20dB</property>
      <property name="level">00:03:48.960=0;00:03:49.920=-60</property>
      <property name="mlt_service">volume</property>
      <property name="shotcut:filter">fadeOutVolume</property>
      <property name="shotcut:animOut">00:00:01.000</property>
    </filter>
  </producer>
  <producer id="producer89" in="00:00:00.000" out="00:03:56.280">
    <property name="length">00:03:56.320</property>
    <property name="eof">pause</property>
    <property name="resource">P:/dokumente/uwe/persoenlich/My Music/abspielbar/mp3/POP/Crosby, Stills, Nash &amp; Young - Woodstock.mp3</property>
    <property name="audio_index">0</property>
    <property name="video_index">1</property>
    <property name="mute_on_pause">0</property>
    <property name="mlt_service">avformat-novalidate</property>
    <property name="seekable">1</property>
    <property name="aspect_ratio">1</property>
    <property name="creation_time">2019-10-13T22:40:02</property>
    <property name="global_feed">1</property>
    <property name="xml">was here</property>
    <property name="shotcut:hash">3b41c2d15d33f0b0332f7626788150de</property>
    <property name="ignore_points">0</property>
    <property name="shotcut:caption">Crosby, Stills, Nash &amp; Young - Woodstock.mp3</property>
    <filter id="filter26" out="00:03:56.280">
      <property name="window">75</property>
      <property name="max_gain">20dB</property>
      <property name="level">00:00:00.000=-60;00:00:01.440=0</property>
      <property name="mlt_service">volume</property>
      <property name="shotcut:filter">fadeInVolume</property>
      <property name="shotcut:animIn">00:00:01.480</property>
    </filter>
    <filter id="filter27" out="00:03:56.280">
      <property name="window">75</property>
      <property name="max_gain">20dB</property>
      <property name="level">00:03:55.320=0;00:03:56.280=-60</property>
      <property name="mlt_service">volume</property>
      <property name="shotcut:filter">fadeOutVolume</property>
      <property name="shotcut:animOut">00:00:01.000</property>
    </filter>
  </producer>
  <playlist id="playlist1">
    <property name="shotcut:audio">1</property>
    <property name="shotcut:name">A1</property>
    <blank length="00:00:07.400"/>
    <entry producer="producer86" in="00:00:17.360" out="00:00:33.440"/>
    <entry producer="producer87" in="00:00:33.480" out="00:00:38.520"/>
    <entry producer="producer77" in="00:00:38.560" out="00:00:41.040"/>
    <entry producer="producer88" in="00:00:41.080" out="00:04:19.400"/>
    <blank length="00:00:21.960"/>
    <entry producer="producer89" in="00:00:00.000" out="00:03:56.280"/>
  </playlist>
  <tractor id="tractor30" title="Shotcut version 20.09.13" global_feed="1" in="00:00:00.000" out="00:08:27.720">
    <property name="shotcut">1</property>
    <property name="shotcut:scaleFactor">0.130302</property>
    <property name="shotcut:projectAudioChannels">2</property>
    <property name="shotcut:projectFolder">1</property>
    <property name="shotcut:trackHeight">30</property>
    <track producer="background"/>
    <track producer="playlist0"/>
    <track producer="playlist1" hide="video"/>
    <transition id="transition60">
      <property name="a_track">0</property>
      <property name="b_track">1</property>
      <property name="mlt_service">mix</property>
      <property name="always_active">1</property>
      <property name="sum">1</property>
    </transition>
    <transition id="transition61">
      <property name="a_track">0</property>
      <property name="b_track">1</property>
      <property name="version">0.9</property>
      <property name="mlt_service">frei0r.cairoblend</property>
      <property name="disable">1</property>
    </transition>
    <transition id="transition62">
      <property name="a_track">0</property>
      <property name="b_track">2</property>
      <property name="mlt_service">mix</property>
      <property name="always_active">1</property>
      <property name="sum">1</property>
    </transition>
  </tractor>
</mlt>
