<?xml version="1.0" encoding="UTF-8" standalone="no"?>
<mlt LC_NUMERIC="C" version="6.23.0" title="Shotcut version 20.09.13" producer="main_bin">
  <profile description="PAL 4:3 DV or DVD" width="1920" height="1080" progressive="1" sample_aspect_num="1" sample_aspect_den="1" display_aspect_num="16" display_aspect_den="9" frame_rate_num="25" frame_rate_den="1" colorspace="709"/>
  <producer id="producer0" in="00:00:00.000" out="00:25:00.480">
    <property name="length">00:25:00.520</property>
    <property name="eof">pause</property>
    <property name="resource">T:/video/para/sardinien_2020/18092020_littigheddu_long_1_20h/VIRB0111.MP4</property>
    <property name="audio_index">1</property>
    <property name="video_index">0</property>
    <property name="mute_on_pause">0</property>
    <property name="mlt_service">avformat-novalidate</property>
    <property name="seekable">1</property>
    <property name="aspect_ratio">1</property>
    <property name="creation_time">2020-09-18T16:26:07</property>
    <property name="global_feed">1</property>
    <property name="xml">was here</property>
    <property name="shotcut:hash">d16577f18146e087d60608d410ef7cec</property>
    <property name="ignore_points">1</property>
    <property name="shotcut:caption">VIRB0111.MP4</property>
  </producer>
  <producer id="producer1" in="00:00:00.000" out="00:25:00.440">
    <property name="length">00:25:00.480</property>
    <property name="eof">pause</property>
    <property name="resource">T:/video/para/sardinien_2020/18092020_littigheddu_long_1_20h/VIRB0111-3.MP4</property>
    <property name="audio_index">1</property>
    <property name="video_index">0</property>
    <property name="mute_on_pause">0</property>
    <property name="mlt_service">avformat-novalidate</property>
    <property name="seekable">1</property>
    <property name="aspect_ratio">1</property>
    <property name="creation_time">2020-09-18T17:16:09</property>
    <property name="global_feed">1</property>
    <property name="xml">was here</property>
    <property name="shotcut:hash">4ee57e8faaa6cc87aee3961f8ee582bb</property>
  </producer>
  <producer id="producer2" in="00:00:00.000" out="00:06:45.200">
    <property name="length">00:06:45.240</property>
    <property name="eof">pause</property>
    <property name="resource">T:/video/para/sardinien_2020/18092020_littigheddu_long_1_20h/VIRB0111-4.MP4</property>
    <property name="audio_index">1</property>
    <property name="video_index">0</property>
    <property name="mute_on_pause">0</property>
    <property name="mlt_service">avformat-novalidate</property>
    <property name="seekable">1</property>
    <property name="aspect_ratio">1</property>
    <property name="creation_time">2020-09-18T17:41:10</property>
    <property name="shotcut:hash">8c177074600d8df5b3ca0e3a96f98639</property>
    <property name="ignore_points">1</property>
    <property name="global_feed">1</property>
    <property name="xml">was here</property>
    <property name="shotcut:caption">VIRB0111-4.MP4</property>
  </producer>
  <producer id="producer3" in="00:00:00.000" out="00:25:00.440">
    <property name="length">00:25:00.480</property>
    <property name="eof">pause</property>
    <property name="resource">T:/video/para/sardinien_2020/18092020_littigheddu_long_1_20h/VIRB0111-2.MP4</property>
    <property name="audio_index">1</property>
    <property name="video_index">0</property>
    <property name="mute_on_pause">0</property>
    <property name="mlt_service">avformat-novalidate</property>
    <property name="seekable">1</property>
    <property name="aspect_ratio">1</property>
    <property name="creation_time">2020-09-18T16:51:09</property>
    <property name="global_feed">1</property>
    <property name="xml">was here</property>
    <property name="shotcut:hash">190d51b30e54f38f532714e004569afe</property>
  </producer>
  <producer id="producer4" in="00:00:00.000" out="03:59:59.960">
    <property name="length">04:00:00.000</property>
    <property name="eof">pause</property>
    <property name="resource">#FF550000</property>
    <property name="aspect_ratio">1</property>
    <property name="mlt_service">color</property>
    <property name="mlt_image_format">rgb24a</property>
    <property name="shotcut:caption">#FF550000</property>
    <property name="shotcut:detail">#FF550000</property>
    <property name="ignore_points">0</property>
    <property name="global_feed">1</property>
    <property name="xml">was here</property>
    <property name="seekable">1</property>
    <filter id="filter0" out="00:00:03.960">
      <property name="argument">Flug in Littigheddu 18.9.2020</property>
      <property name="geometry">0 810 1920 270 1</property>
      <property name="family">Verdana</property>
      <property name="size">80</property>
      <property name="weight">750</property>
      <property name="style">normal</property>
      <property name="fgcolour">#ffffffff</property>
      <property name="bgcolour">#00000000</property>
      <property name="olcolour">#aa000000</property>
      <property name="pad">0</property>
      <property name="halign">center</property>
      <property name="valign">top</property>
      <property name="outline">3</property>
      <property name="mlt_service">dynamictext</property>
      <property name="shotcut:filter">dynamicText</property>
      <property name="shotcut:usePointSize">1</property>
      <property name="shotcut:pointSize">60</property>
    </filter>
  </producer>
  <producer id="producer5" in="00:00:00.000" out="03:59:59.960">
    <property name="length">04:00:00.000</property>
    <property name="eof">pause</property>
    <property name="resource">P:/dokumente/uwe/para/shotcut_projects/Sardinien_2020/1809_littigheddu/pics/littigheddu_meerblick.jpg</property>
    <property name="ttl">1</property>
    <property name="aspect_ratio">1</property>
    <property name="progressive">1</property>
    <property name="seekable">1</property>
    <property name="mlt_service">qimage</property>
    <property name="creation_time">2020-10-19T14:44:59</property>
    <property name="shotcut:caption">littigheddu_meerblick.jpg</property>
    <property name="shotcut:hash">9f9b4454db0676b7d99b8c226c5cc89d</property>
    <property name="ignore_points">0</property>
    <property name="global_feed">1</property>
    <property name="xml">was here</property>
  </producer>
  <playlist id="main_bin">
    <property name="xml_retain">1</property>
    <entry producer="producer0" in="00:00:00.000" out="00:25:00.480"/>
    <entry producer="producer1" in="00:00:00.000" out="00:25:00.440"/>
    <entry producer="producer2" in="00:00:00.000" out="00:06:45.200"/>
    <entry producer="producer3" in="00:00:00.000" out="00:25:00.440"/>
    <entry producer="producer4" in="00:00:00.000" out="00:00:03.960"/>
    <entry producer="producer5" in="00:00:00.000" out="00:00:03.960"/>
  </playlist>
  <producer id="black" in="00:00:00.000" out="00:15:06.680">
    <property name="length">00:15:06.720</property>
    <property name="eof">pause</property>
    <property name="resource">0</property>
    <property name="aspect_ratio">1</property>
    <property name="mlt_service">color</property>
    <property name="mlt_image_format">rgb24a</property>
    <property name="set.test_audio">0</property>
  </producer>
  <playlist id="background">
    <entry producer="black" in="00:00:00.000" out="00:15:06.680"/>
  </playlist>
  <producer id="producer6" in="00:00:00.000" out="03:59:59.960">
    <property name="length">04:00:00.000</property>
    <property name="eof">pause</property>
    <property name="resource">P:/dokumente/uwe/para/shotcut_projects/Sardinien_2020/1809_littigheddu/pics/littigheddu_meerblick.jpg</property>
    <property name="ttl">1</property>
    <property name="aspect_ratio">1</property>
    <property name="progressive">1</property>
    <property name="seekable">1</property>
    <property name="mlt_service">qimage</property>
    <property name="creation_time">2020-10-19T14:44:59</property>
    <property name="shotcut:caption">littigheddu_meerblick.jpg</property>
    <property name="shotcut:hash">9f9b4454db0676b7d99b8c226c5cc89d</property>
    <property name="ignore_points">0</property>
    <property name="global_feed">1</property>
    <property name="xml">was here</property>
    <filter id="filter1" out="00:00:21.080">
      <property name="argument">Luft Begegnungen in Littigheddu 18.9.2020
Im Bild:
Gilda, Ludka, Gerti, Claudia, Barbara, Manfred, Lutz
Gerhard, Horst, Helmut am Start und Uwe (Kamera)</property>
      <property name="geometry">58 330 1782 401 1</property>
      <property name="family">Verdana</property>
      <property name="size">270</property>
      <property name="weight">500</property>
      <property name="style">normal</property>
      <property name="fgcolour">#b2e4ff</property>
      <property name="bgcolour">#00000000</property>
      <property name="olcolour">#aa00007f</property>
      <property name="pad">0</property>
      <property name="halign">center</property>
      <property name="valign">bottom</property>
      <property name="outline">3</property>
      <property name="mlt_service">dynamictext</property>
      <property name="shotcut:filter">dynamicText</property>
      <property name="shotcut:usePointSize">0</property>
      <property name="shotcut:pointSize">60</property>
      <property name="shotcut:animIn">00:00:00.000</property>
      <property name="shotcut:animOut">00:00:00.000</property>
      <property name="disable">0</property>
    </filter>
  </producer>
  <producer id="producer7" in="00:00:00.000" out="00:25:00.480">
    <property name="length">00:25:00.520</property>
    <property name="eof">pause</property>
    <property name="resource">T:/video/para/sardinien_2020/18092020_littigheddu_long_1_20h/VIRB0111.MP4</property>
    <property name="audio_index">1</property>
    <property name="video_index">0</property>
    <property name="mute_on_pause">0</property>
    <property name="mlt_service">avformat-novalidate</property>
    <property name="seekable">1</property>
    <property name="aspect_ratio">1</property>
    <property name="creation_time">2020-09-18T16:26:07</property>
    <property name="global_feed">1</property>
    <property name="xml">was here</property>
    <property name="shotcut:hash">d16577f18146e087d60608d410ef7cec</property>
    <property name="ignore_points">0</property>
    <property name="shotcut:caption">VIRB0111.MP4</property>
    <filter id="filter10" in="00:00:00.720" out="00:00:11.760">
      <property name="argument">Lutz</property>
      <property name="geometry">80 966 1767 95 1</property>
      <property name="family">Verdana</property>
      <property name="size">1080</property>
      <property name="weight">500</property>
      <property name="style">normal</property>
      <property name="fgcolour">#e6e792</property>
      <property name="bgcolour">#00000000</property>
      <property name="olcolour">#aa000000</property>
      <property name="pad">0</property>
      <property name="halign">center</property>
      <property name="valign">top</property>
      <property name="outline">3</property>
      <property name="mlt_service">dynamictext</property>
      <property name="shotcut:filter">dynamicText</property>
      <property name="shotcut:usePointSize">0</property>
      <property name="shotcut:pointSize">60</property>
      <property name="shotcut:animIn">00:00:00.000</property>
      <property name="shotcut:animOut">00:00:00.000</property>
    </filter>
  </producer>
  <tractor id="tractor0" global_feed="1" in="00:00:00.000" out="00:00:00.400">
    <property name="shotcut:transition">lumaMix</property>
    <track producer="producer6" in="00:00:03.560" out="00:00:03.960"/>
    <track producer="producer7" in="00:00:01.360" out="00:00:01.760"/>
    <transition id="transition0" out="00:00:00.400">
      <property name="a_track">0</property>
      <property name="b_track">1</property>
      <property name="factory">loader</property>
      <property name="mlt_service">luma</property>
      <property name="alpha_over">1</property>
    </transition>
    <transition id="transition1" out="00:00:00.400">
      <property name="a_track">0</property>
      <property name="b_track">1</property>
      <property name="start">-1</property>
      <property name="accepts_blanks">1</property>
      <property name="mlt_service">mix</property>
    </transition>
  </tractor>
  <producer id="producer8" in="00:00:00.000" out="00:25:00.480">
    <property name="length">00:25:00.520</property>
    <property name="eof">pause</property>
    <property name="resource">T:/video/para/sardinien_2020/18092020_littigheddu_long_1_20h/VIRB0111.MP4</property>
    <property name="audio_index">1</property>
    <property name="video_index">0</property>
    <property name="mute_on_pause">0</property>
    <property name="mlt_service">avformat-novalidate</property>
    <property name="seekable">1</property>
    <property name="aspect_ratio">1</property>
    <property name="creation_time">2020-09-18T16:26:07</property>
    <property name="global_feed">1</property>
    <property name="xml">was here</property>
    <property name="shotcut:hash">d16577f18146e087d60608d410ef7cec</property>
    <property name="ignore_points">0</property>
    <property name="shotcut:caption">VIRB0111.MP4</property>
    <filter id="filter2" in="00:02:31.240" out="00:02:49.280">
      <property name="argument">Uwe</property>
      <property name="geometry">-10 963 1930 117 1</property>
      <property name="family">Verdana</property>
      <property name="size">1080</property>
      <property name="weight">500</property>
      <property name="style">normal</property>
      <property name="fgcolour">#5500ff</property>
      <property name="bgcolour">#00000000</property>
      <property name="olcolour">#aa000000</property>
      <property name="pad">0</property>
      <property name="halign">center</property>
      <property name="valign">bottom</property>
      <property name="outline">3</property>
      <property name="mlt_service">dynamictext</property>
      <property name="shotcut:filter">dynamicText</property>
      <property name="shotcut:usePointSize">0</property>
      <property name="shotcut:animIn">00:00:00.000</property>
      <property name="shotcut:animOut">00:00:00.000</property>
    </filter>
  </producer>
  <tractor id="tractor1" global_feed="1" in="00:00:00.000" out="00:00:00.440">
    <property name="shotcut:transition">lumaMix</property>
    <track producer="producer7" in="00:00:16.320" out="00:00:16.760"/>
    <track producer="producer8" in="00:02:26.840" out="00:02:27.280"/>
    <transition id="transition2" out="00:00:00.440">
      <property name="a_track">0</property>
      <property name="b_track">1</property>
      <property name="factory">loader</property>
      <property name="mlt_service">luma</property>
      <property name="alpha_over">1</property>
    </transition>
    <transition id="transition3" out="00:00:00.440">
      <property name="a_track">0</property>
      <property name="b_track">1</property>
      <property name="mlt_service">mix</property>
      <property name="start">-1</property>
      <property name="accepts_blanks">1</property>
    </transition>
  </tractor>
  <producer id="producer9" in="00:00:00.000" out="00:25:00.480">
    <property name="length">00:25:00.520</property>
    <property name="eof">pause</property>
    <property name="resource">T:/video/para/sardinien_2020/18092020_littigheddu_long_1_20h/VIRB0111.MP4</property>
    <property name="audio_index">1</property>
    <property name="video_index">0</property>
    <property name="mute_on_pause">0</property>
    <property name="mlt_service">avformat-novalidate</property>
    <property name="seekable">1</property>
    <property name="aspect_ratio">1</property>
    <property name="creation_time">2020-09-18T16:26:07</property>
    <property name="global_feed">1</property>
    <property name="xml">was here</property>
    <property name="shotcut:hash">d16577f18146e087d60608d410ef7cec</property>
    <property name="ignore_points">0</property>
    <property name="shotcut:caption">VIRB0111.MP4</property>
  </producer>
  <tractor id="tractor2" global_feed="1" in="00:00:00.000" out="00:00:00.400">
    <property name="shotcut:transition">lumaMix</property>
    <track producer="producer8" in="00:02:48.880" out="00:02:49.280"/>
    <track producer="producer9" in="00:03:26.080" out="00:03:26.480"/>
    <transition id="transition4" out="00:00:00.400">
      <property name="a_track">0</property>
      <property name="b_track">1</property>
      <property name="factory">loader</property>
      <property name="mlt_service">luma</property>
      <property name="alpha_over">1</property>
    </transition>
    <transition id="transition5" out="00:00:00.400">
      <property name="a_track">0</property>
      <property name="b_track">1</property>
      <property name="mlt_service">mix</property>
      <property name="start">-1</property>
      <property name="accepts_blanks">1</property>
    </transition>
  </tractor>
  <producer id="producer10" in="00:00:00.000" out="00:25:00.480">
    <property name="length">00:25:00.520</property>
    <property name="eof">pause</property>
    <property name="resource">T:/video/para/sardinien_2020/18092020_littigheddu_long_1_20h/VIRB0111.MP4</property>
    <property name="audio_index">1</property>
    <property name="video_index">0</property>
    <property name="mute_on_pause">0</property>
    <property name="mlt_service">avformat-novalidate</property>
    <property name="seekable">1</property>
    <property name="aspect_ratio">1</property>
    <property name="creation_time">2020-09-18T16:26:07</property>
    <property name="global_feed">1</property>
    <property name="xml">was here</property>
    <property name="shotcut:hash">d16577f18146e087d60608d410ef7cec</property>
    <property name="ignore_points">0</property>
    <property name="shotcut:caption">VIRB0111.MP4</property>
  </producer>
  <tractor id="tractor3" global_feed="1" in="00:00:00.000" out="00:00:00.400">
    <property name="shotcut:transition">lumaMix</property>
    <track producer="producer9" in="00:03:35.160" out="00:03:35.560"/>
    <track producer="producer10" in="00:03:35.600" out="00:03:36.000"/>
    <transition id="transition6" out="00:00:00.400">
      <property name="a_track">0</property>
      <property name="b_track">1</property>
      <property name="factory">loader</property>
      <property name="mlt_service">luma</property>
      <property name="alpha_over">1</property>
    </transition>
    <transition id="transition7" out="00:00:00.400">
      <property name="a_track">0</property>
      <property name="b_track">1</property>
      <property name="mlt_service">mix</property>
      <property name="start">-1</property>
      <property name="accepts_blanks">1</property>
    </transition>
  </tractor>
  <producer id="producer11" in="00:00:00.000" out="00:25:00.480">
    <property name="length">00:25:00.520</property>
    <property name="eof">pause</property>
    <property name="resource">T:/video/para/sardinien_2020/18092020_littigheddu_long_1_20h/VIRB0111.MP4</property>
    <property name="audio_index">1</property>
    <property name="video_index">0</property>
    <property name="mute_on_pause">0</property>
    <property name="mlt_service">avformat-novalidate</property>
    <property name="seekable">1</property>
    <property name="aspect_ratio">1</property>
    <property name="creation_time">2020-09-18T16:26:07</property>
    <property name="global_feed">1</property>
    <property name="xml">was here</property>
    <property name="shotcut:hash">d16577f18146e087d60608d410ef7cec</property>
    <property name="ignore_points">0</property>
    <property name="shotcut:caption">VIRB0111.MP4</property>
  </producer>
  <tractor id="tractor4" global_feed="1" in="00:00:00.000" out="00:00:00.560">
    <property name="shotcut:transition">lumaMix</property>
    <track producer="producer10" in="00:03:47.760" out="00:03:48.320"/>
    <track producer="producer11" in="00:04:32.680" out="00:04:33.240"/>
    <transition id="transition8" out="00:00:00.560">
      <property name="a_track">0</property>
      <property name="b_track">1</property>
      <property name="factory">loader</property>
      <property name="mlt_service">luma</property>
      <property name="alpha_over">1</property>
    </transition>
    <transition id="transition9" out="00:00:00.560">
      <property name="a_track">0</property>
      <property name="b_track">1</property>
      <property name="mlt_service">mix</property>
      <property name="start">-1</property>
      <property name="accepts_blanks">1</property>
    </transition>
  </tractor>
  <producer id="producer12" in="00:00:00.000" out="00:25:00.480">
    <property name="length">00:25:00.520</property>
    <property name="eof">pause</property>
    <property name="resource">T:/video/para/sardinien_2020/18092020_littigheddu_long_1_20h/VIRB0111.MP4</property>
    <property name="audio_index">1</property>
    <property name="video_index">0</property>
    <property name="mute_on_pause">0</property>
    <property name="mlt_service">avformat-novalidate</property>
    <property name="seekable">1</property>
    <property name="aspect_ratio">1</property>
    <property name="creation_time">2020-09-18T16:26:07</property>
    <property name="global_feed">1</property>
    <property name="xml">was here</property>
    <property name="shotcut:hash">d16577f18146e087d60608d410ef7cec</property>
    <property name="ignore_points">0</property>
    <property name="shotcut:caption">VIRB0111.MP4</property>
  </producer>
  <tractor id="tractor5" global_feed="1" in="00:00:00.000" out="00:00:00.680">
    <property name="shotcut:transition">lumaMix</property>
    <track producer="producer11" in="00:04:51.400" out="00:04:52.080"/>
    <track producer="producer12" in="00:05:54.440" out="00:05:55.120"/>
    <transition id="transition10" out="00:00:00.680">
      <property name="a_track">0</property>
      <property name="b_track">1</property>
      <property name="factory">loader</property>
      <property name="mlt_service">luma</property>
      <property name="alpha_over">1</property>
    </transition>
    <transition id="transition11" out="00:00:00.680">
      <property name="a_track">0</property>
      <property name="b_track">1</property>
      <property name="mlt_service">mix</property>
      <property name="start">-1</property>
      <property name="accepts_blanks">1</property>
    </transition>
  </tractor>
  <producer id="producer13" in="00:00:00.000" out="00:25:00.480">
    <property name="length">00:25:00.520</property>
    <property name="eof">pause</property>
    <property name="resource">T:/video/para/sardinien_2020/18092020_littigheddu_long_1_20h/VIRB0111.MP4</property>
    <property name="audio_index">1</property>
    <property name="video_index">0</property>
    <property name="mute_on_pause">0</property>
    <property name="mlt_service">avformat-novalidate</property>
    <property name="seekable">1</property>
    <property name="aspect_ratio">1</property>
    <property name="creation_time">2020-09-18T16:26:07</property>
    <property name="global_feed">1</property>
    <property name="xml">was here</property>
    <property name="shotcut:hash">d16577f18146e087d60608d410ef7cec</property>
    <property name="ignore_points">0</property>
    <property name="shotcut:caption">VIRB0111.MP4</property>
    <filter id="filter3" in="00:06:14.800" out="00:06:19.840">
      <property name="argument">Gilda</property>
      <property name="geometry">148 948 1717 113 1</property>
      <property name="family">Verdana</property>
      <property name="size">1080</property>
      <property name="weight">500</property>
      <property name="style">normal</property>
      <property name="fgcolour">#fbfdb7</property>
      <property name="bgcolour">#00000000</property>
      <property name="olcolour">#aa000000</property>
      <property name="pad">0</property>
      <property name="halign">center</property>
      <property name="valign">top</property>
      <property name="outline">3</property>
      <property name="mlt_service">dynamictext</property>
      <property name="shotcut:filter">dynamicText</property>
      <property name="shotcut:usePointSize">0</property>
      <property name="shotcut:pointSize">60</property>
      <property name="shotcut:animIn">00:00:00.000</property>
      <property name="shotcut:animOut">00:00:00.000</property>
    </filter>
  </producer>
  <tractor id="tractor6" global_feed="1" in="00:00:00.000" out="00:00:00.480">
    <property name="shotcut:transition">lumaMix</property>
    <track producer="producer12" in="00:06:14.280" out="00:06:14.760"/>
    <track producer="producer13" in="00:06:14.800" out="00:06:15.280"/>
    <transition id="transition12" out="00:00:00.480">
      <property name="a_track">0</property>
      <property name="b_track">1</property>
      <property name="factory">loader</property>
      <property name="mlt_service">luma</property>
      <property name="alpha_over">1</property>
    </transition>
    <transition id="transition13" out="00:00:00.480">
      <property name="a_track">0</property>
      <property name="b_track">1</property>
      <property name="mlt_service">mix</property>
      <property name="start">-1</property>
      <property name="accepts_blanks">1</property>
    </transition>
  </tractor>
  <producer id="producer14" in="00:00:00.000" out="00:25:00.480">
    <property name="length">00:25:00.520</property>
    <property name="eof">pause</property>
    <property name="resource">T:/video/para/sardinien_2020/18092020_littigheddu_long_1_20h/VIRB0111.MP4</property>
    <property name="audio_index">1</property>
    <property name="video_index">0</property>
    <property name="mute_on_pause">0</property>
    <property name="mlt_service">avformat-novalidate</property>
    <property name="seekable">1</property>
    <property name="aspect_ratio">1</property>
    <property name="creation_time">2020-09-18T16:26:07</property>
    <property name="global_feed">1</property>
    <property name="xml">was here</property>
    <property name="shotcut:hash">d16577f18146e087d60608d410ef7cec</property>
    <property name="ignore_points">0</property>
    <property name="shotcut:caption">VIRB0111.MP4</property>
    <filter id="filter4" in="00:06:45.040" out="00:06:53.080">
      <property name="argument">Gilda</property>
      <property name="geometry">148 948 1717 113 1</property>
      <property name="family">Verdana</property>
      <property name="size">1080</property>
      <property name="weight">500</property>
      <property name="style">normal</property>
      <property name="fgcolour">#fbfdb7</property>
      <property name="bgcolour">#00000000</property>
      <property name="olcolour">#aa000000</property>
      <property name="pad">0</property>
      <property name="halign">center</property>
      <property name="valign">top</property>
      <property name="outline">3</property>
      <property name="mlt_service">dynamictext</property>
      <property name="shotcut:filter">dynamicText</property>
      <property name="shotcut:usePointSize">0</property>
      <property name="shotcut:pointSize">60</property>
      <property name="shotcut:animIn">00:00:00.000</property>
      <property name="shotcut:animOut">00:00:00.000</property>
    </filter>
  </producer>
  <tractor id="tractor7" global_feed="1" in="00:00:00.000" out="00:00:00.480">
    <property name="shotcut:transition">lumaMix</property>
    <track producer="producer13" in="00:06:19.360" out="00:06:19.840"/>
    <track producer="producer14" in="00:06:45.040" out="00:06:45.520"/>
    <transition id="transition14" out="00:00:00.480">
      <property name="a_track">0</property>
      <property name="b_track">1</property>
      <property name="factory">loader</property>
      <property name="mlt_service">luma</property>
      <property name="alpha_over">1</property>
    </transition>
    <transition id="transition15" out="00:00:00.480">
      <property name="a_track">0</property>
      <property name="b_track">1</property>
      <property name="mlt_service">mix</property>
      <property name="start">-1</property>
      <property name="accepts_blanks">1</property>
    </transition>
  </tractor>
  <producer id="producer15" in="00:00:00.000" out="00:25:00.480">
    <property name="length">00:25:00.520</property>
    <property name="eof">pause</property>
    <property name="resource">T:/video/para/sardinien_2020/18092020_littigheddu_long_1_20h/VIRB0111.MP4</property>
    <property name="audio_index">1</property>
    <property name="video_index">0</property>
    <property name="mute_on_pause">0</property>
    <property name="mlt_service">avformat-novalidate</property>
    <property name="seekable">1</property>
    <property name="aspect_ratio">1</property>
    <property name="creation_time">2020-09-18T16:26:07</property>
    <property name="global_feed">1</property>
    <property name="xml">was here</property>
    <property name="shotcut:hash">d16577f18146e087d60608d410ef7cec</property>
    <property name="ignore_points">0</property>
    <property name="shotcut:caption">VIRB0111.MP4</property>
    <filter id="filter5" in="00:07:10.040" out="00:07:21.960">
      <property name="argument">Gilda</property>
      <property name="geometry">148 948 1717 113 1</property>
      <property name="family">Verdana</property>
      <property name="size">1080</property>
      <property name="weight">500</property>
      <property name="style">normal</property>
      <property name="fgcolour">#fbfdb7</property>
      <property name="bgcolour">#00000000</property>
      <property name="olcolour">#aa000000</property>
      <property name="pad">0</property>
      <property name="halign">center</property>
      <property name="valign">top</property>
      <property name="outline">3</property>
      <property name="mlt_service">dynamictext</property>
      <property name="shotcut:filter">dynamicText</property>
      <property name="shotcut:usePointSize">0</property>
      <property name="shotcut:pointSize">60</property>
      <property name="shotcut:animIn">00:00:00.000</property>
      <property name="shotcut:animOut">00:00:00.000</property>
    </filter>
  </producer>
  <tractor id="tractor8" global_feed="1" in="00:00:00.000" out="00:00:00.600">
    <property name="shotcut:transition">lumaMix</property>
    <track producer="producer14" in="00:06:52.480" out="00:06:53.080"/>
    <track producer="producer15" in="00:07:10.040" out="00:07:10.640"/>
    <transition id="transition16" out="00:00:00.600">
      <property name="a_track">0</property>
      <property name="b_track">1</property>
      <property name="factory">loader</property>
      <property name="mlt_service">luma</property>
      <property name="alpha_over">1</property>
    </transition>
    <transition id="transition17" out="00:00:00.600">
      <property name="a_track">0</property>
      <property name="b_track">1</property>
      <property name="mlt_service">mix</property>
      <property name="start">-1</property>
      <property name="accepts_blanks">1</property>
    </transition>
  </tractor>
  <producer id="producer16" in="00:00:00.000" out="00:25:00.480">
    <property name="length">00:25:00.520</property>
    <property name="eof">pause</property>
    <property name="resource">T:/video/para/sardinien_2020/18092020_littigheddu_long_1_20h/VIRB0111.MP4</property>
    <property name="audio_index">1</property>
    <property name="video_index">0</property>
    <property name="mute_on_pause">0</property>
    <property name="mlt_service">avformat-novalidate</property>
    <property name="seekable">1</property>
    <property name="aspect_ratio">1</property>
    <property name="creation_time">2020-09-18T16:26:07</property>
    <property name="global_feed">1</property>
    <property name="xml">was here</property>
    <property name="shotcut:hash">d16577f18146e087d60608d410ef7cec</property>
    <property name="ignore_points">0</property>
    <property name="shotcut:caption">VIRB0111.MP4</property>
    <filter id="filter6" in="00:08:56.240" out="00:09:25.480">
      <property name="argument">Barbara</property>
      <property name="geometry">2 954 1918 126 1</property>
      <property name="family">Verdana</property>
      <property name="size">1080</property>
      <property name="weight">500</property>
      <property name="style">normal</property>
      <property name="fgcolour">#00ff7f</property>
      <property name="bgcolour">#00000000</property>
      <property name="olcolour">#aa000000</property>
      <property name="pad">0</property>
      <property name="halign">center</property>
      <property name="valign">middle</property>
      <property name="outline">3</property>
      <property name="mlt_service">dynamictext</property>
      <property name="shotcut:filter">dynamicText</property>
      <property name="shotcut:usePointSize">0</property>
      <property name="shotcut:pointSize">60</property>
      <property name="shotcut:animIn">00:00:00.000</property>
      <property name="shotcut:animOut">00:00:00.000</property>
    </filter>
  </producer>
  <tractor id="tractor9" global_feed="1" in="00:00:00.000" out="00:00:00.360">
    <property name="shotcut:transition">lumaMix</property>
    <track producer="producer15" in="00:07:27.480" out="00:07:27.840"/>
    <track producer="producer16" in="00:08:56.240" out="00:08:56.600"/>
    <transition id="transition18" out="00:00:00.360">
      <property name="a_track">0</property>
      <property name="b_track">1</property>
      <property name="factory">loader</property>
      <property name="mlt_service">luma</property>
      <property name="alpha_over">1</property>
    </transition>
    <transition id="transition19" out="00:00:00.360">
      <property name="a_track">0</property>
      <property name="b_track">1</property>
      <property name="mlt_service">mix</property>
      <property name="start">-1</property>
      <property name="accepts_blanks">1</property>
    </transition>
  </tractor>
  <producer id="producer17" in="00:00:00.000" out="00:25:00.480">
    <property name="length">00:25:00.520</property>
    <property name="eof">pause</property>
    <property name="resource">T:/video/para/sardinien_2020/18092020_littigheddu_long_1_20h/VIRB0111.MP4</property>
    <property name="audio_index">1</property>
    <property name="video_index">0</property>
    <property name="mute_on_pause">0</property>
    <property name="mlt_service">avformat-novalidate</property>
    <property name="seekable">1</property>
    <property name="aspect_ratio">1</property>
    <property name="creation_time">2020-09-18T16:26:07</property>
    <property name="global_feed">1</property>
    <property name="xml">was here</property>
    <property name="shotcut:hash">d16577f18146e087d60608d410ef7cec</property>
    <property name="ignore_points">0</property>
    <property name="shotcut:caption">VIRB0111.MP4</property>
  </producer>
  <tractor id="tractor10" global_feed="1" in="00:00:00.000" out="00:00:00.680">
    <property name="shotcut:transition">lumaMix</property>
    <track producer="producer16" in="00:09:24.800" out="00:09:25.480"/>
    <track producer="producer17" in="00:09:52.400" out="00:09:53.080"/>
    <transition id="transition20" out="00:00:00.680">
      <property name="a_track">0</property>
      <property name="b_track">1</property>
      <property name="factory">loader</property>
      <property name="mlt_service">luma</property>
      <property name="alpha_over">1</property>
    </transition>
    <transition id="transition21" out="00:00:00.680">
      <property name="a_track">0</property>
      <property name="b_track">1</property>
      <property name="mlt_service">mix</property>
      <property name="start">-1</property>
      <property name="accepts_blanks">1</property>
    </transition>
  </tractor>
  <producer id="producer18" in="00:00:00.000" out="00:25:00.480">
    <property name="length">00:25:00.520</property>
    <property name="eof">pause</property>
    <property name="resource">T:/video/para/sardinien_2020/18092020_littigheddu_long_1_20h/VIRB0111.MP4</property>
    <property name="audio_index">1</property>
    <property name="video_index">0</property>
    <property name="mute_on_pause">0</property>
    <property name="mlt_service">avformat-novalidate</property>
    <property name="seekable">1</property>
    <property name="aspect_ratio">1</property>
    <property name="creation_time">2020-09-18T16:26:07</property>
    <property name="global_feed">1</property>
    <property name="xml">was here</property>
    <property name="shotcut:hash">d16577f18146e087d60608d410ef7cec</property>
    <property name="ignore_points">0</property>
    <property name="shotcut:caption">VIRB0111.MP4</property>
    <filter id="filter7" in="00:10:14.760" out="00:10:26.960">
      <property name="argument">Puh!
 Endlich über der Kante!</property>
      <property name="geometry">2 954 1918 126 1</property>
      <property name="family">Verdana</property>
      <property name="size">540</property>
      <property name="weight">500</property>
      <property name="style">normal</property>
      <property name="fgcolour">#ffffff</property>
      <property name="bgcolour">#00000000</property>
      <property name="olcolour">#aa000000</property>
      <property name="pad">0</property>
      <property name="halign">center</property>
      <property name="valign">middle</property>
      <property name="outline">3</property>
      <property name="mlt_service">dynamictext</property>
      <property name="shotcut:filter">dynamicText</property>
      <property name="shotcut:usePointSize">0</property>
      <property name="shotcut:pointSize">60</property>
      <property name="shotcut:animIn">00:00:00.000</property>
      <property name="shotcut:animOut">00:00:00.000</property>
    </filter>
  </producer>
  <tractor id="tractor11" global_feed="1" in="00:00:00.000" out="00:00:00.680">
    <property name="shotcut:transition">lumaMix</property>
    <track producer="producer17" in="00:10:14.040" out="00:10:14.720"/>
    <track producer="producer18" in="00:10:14.760" out="00:10:15.440"/>
    <transition id="transition22" out="00:00:00.680">
      <property name="a_track">0</property>
      <property name="b_track">1</property>
      <property name="factory">loader</property>
      <property name="mlt_service">luma</property>
      <property name="alpha_over">1</property>
    </transition>
    <transition id="transition23" out="00:00:00.680">
      <property name="a_track">0</property>
      <property name="b_track">1</property>
      <property name="mlt_service">mix</property>
      <property name="start">-1</property>
      <property name="accepts_blanks">1</property>
    </transition>
  </tractor>
  <producer id="producer19" in="00:00:00.000" out="00:25:00.480">
    <property name="length">00:25:00.520</property>
    <property name="eof">pause</property>
    <property name="resource">T:/video/para/sardinien_2020/18092020_littigheddu_long_1_20h/VIRB0111.MP4</property>
    <property name="audio_index">1</property>
    <property name="video_index">0</property>
    <property name="mute_on_pause">0</property>
    <property name="mlt_service">avformat-novalidate</property>
    <property name="seekable">1</property>
    <property name="aspect_ratio">1</property>
    <property name="creation_time">2020-09-18T16:26:07</property>
    <property name="global_feed">1</property>
    <property name="xml">was here</property>
    <property name="shotcut:hash">d16577f18146e087d60608d410ef7cec</property>
    <property name="ignore_points">0</property>
    <property name="shotcut:caption">VIRB0111.MP4</property>
    <filter id="filter8" in="00:11:14.160" out="00:11:22.840">
      <property name="argument">Einheimischer Pilot auf Jazz,
der beim Start immer seine Steuerleinen 
sucht.</property>
      <property name="geometry">-4 852 1924 228 1</property>
      <property name="family">Verdana</property>
      <property name="size">360</property>
      <property name="weight">500</property>
      <property name="style">normal</property>
      <property name="fgcolour">#ffffff</property>
      <property name="bgcolour">#00000000</property>
      <property name="olcolour">#aa000000</property>
      <property name="pad">0</property>
      <property name="halign">center</property>
      <property name="valign">middle</property>
      <property name="outline">3</property>
      <property name="mlt_service">dynamictext</property>
      <property name="shotcut:filter">dynamicText</property>
      <property name="shotcut:usePointSize">0</property>
      <property name="shotcut:pointSize">60</property>
      <property name="shotcut:animIn">00:00:00.000</property>
      <property name="shotcut:animOut">00:00:00.000</property>
    </filter>
  </producer>
  <tractor id="tractor12" global_feed="1" in="00:00:00.000" out="00:00:00.400">
    <property name="shotcut:transition">lumaMix</property>
    <track producer="producer18" in="00:10:35.360" out="00:10:35.760"/>
    <track producer="producer19" in="00:11:14.160" out="00:11:14.560"/>
    <transition id="transition24" out="00:00:00.400">
      <property name="a_track">0</property>
      <property name="b_track">1</property>
      <property name="factory">loader</property>
      <property name="mlt_service">luma</property>
      <property name="alpha_over">1</property>
    </transition>
    <transition id="transition25" out="00:00:00.400">
      <property name="a_track">0</property>
      <property name="b_track">1</property>
      <property name="mlt_service">mix</property>
      <property name="start">-1</property>
      <property name="accepts_blanks">1</property>
    </transition>
  </tractor>
  <producer id="producer20" in="00:00:00.000" out="00:25:00.480">
    <property name="length">00:25:00.520</property>
    <property name="eof">pause</property>
    <property name="resource">T:/video/para/sardinien_2020/18092020_littigheddu_long_1_20h/VIRB0111.MP4</property>
    <property name="audio_index">1</property>
    <property name="video_index">0</property>
    <property name="mute_on_pause">0</property>
    <property name="mlt_service">avformat-novalidate</property>
    <property name="seekable">1</property>
    <property name="aspect_ratio">1</property>
    <property name="creation_time">2020-09-18T16:26:07</property>
    <property name="global_feed">1</property>
    <property name="xml">was here</property>
    <property name="shotcut:hash">d16577f18146e087d60608d410ef7cec</property>
    <property name="ignore_points">0</property>
    <property name="shotcut:caption">VIRB0111.MP4</property>
  </producer>
  <tractor id="tractor13" global_feed="1" in="00:00:00.000" out="00:00:00.440">
    <property name="shotcut:transition">lumaMix</property>
    <track producer="producer19" in="00:11:22.400" out="00:11:22.840"/>
    <track producer="producer20" in="00:11:22.880" out="00:11:23.320"/>
    <transition id="transition26" out="00:00:00.440">
      <property name="a_track">0</property>
      <property name="b_track">1</property>
      <property name="factory">loader</property>
      <property name="mlt_service">luma</property>
      <property name="alpha_over">1</property>
    </transition>
    <transition id="transition27" out="00:00:00.440">
      <property name="a_track">0</property>
      <property name="b_track">1</property>
      <property name="mlt_service">mix</property>
      <property name="start">-1</property>
      <property name="accepts_blanks">1</property>
    </transition>
  </tractor>
  <producer id="producer21" in="00:00:00.000" out="00:25:00.480">
    <property name="length">00:25:00.520</property>
    <property name="eof">pause</property>
    <property name="resource">T:/video/para/sardinien_2020/18092020_littigheddu_long_1_20h/VIRB0111.MP4</property>
    <property name="audio_index">1</property>
    <property name="video_index">0</property>
    <property name="mute_on_pause">0</property>
    <property name="mlt_service">avformat-novalidate</property>
    <property name="seekable">1</property>
    <property name="aspect_ratio">1</property>
    <property name="creation_time">2020-09-18T16:26:07</property>
    <property name="global_feed">1</property>
    <property name="xml">was here</property>
    <property name="shotcut:hash">d16577f18146e087d60608d410ef7cec</property>
    <property name="ignore_points">0</property>
    <property name="shotcut:caption">VIRB0111.MP4</property>
  </producer>
  <tractor id="tractor14" global_feed="1" in="00:00:00.000" out="00:00:00.520">
    <property name="shotcut:transition">lumaMix</property>
    <track producer="producer20" in="00:11:24.840" out="00:11:25.360"/>
    <track producer="producer21" in="00:11:54.560" out="00:11:55.080"/>
    <transition id="transition28" out="00:00:00.520">
      <property name="a_track">0</property>
      <property name="b_track">1</property>
      <property name="factory">loader</property>
      <property name="mlt_service">luma</property>
      <property name="alpha_over">1</property>
    </transition>
    <transition id="transition29" out="00:00:00.520">
      <property name="a_track">0</property>
      <property name="b_track">1</property>
      <property name="mlt_service">mix</property>
      <property name="start">-1</property>
      <property name="accepts_blanks">1</property>
    </transition>
  </tractor>
  <producer id="producer22" in="00:00:00.000" out="00:25:00.480">
    <property name="length">00:25:00.520</property>
    <property name="eof">pause</property>
    <property name="resource">T:/video/para/sardinien_2020/18092020_littigheddu_long_1_20h/VIRB0111.MP4</property>
    <property name="audio_index">1</property>
    <property name="video_index">0</property>
    <property name="mute_on_pause">0</property>
    <property name="mlt_service">avformat-novalidate</property>
    <property name="seekable">1</property>
    <property name="aspect_ratio">1</property>
    <property name="creation_time">2020-09-18T16:26:07</property>
    <property name="global_feed">1</property>
    <property name="xml">was here</property>
    <property name="shotcut:hash">d16577f18146e087d60608d410ef7cec</property>
    <property name="ignore_points">0</property>
    <property name="shotcut:caption">VIRB0111.MP4</property>
  </producer>
  <tractor id="tractor15" global_feed="1" in="00:00:00.000" out="00:00:00.640">
    <property name="shotcut:transition">lumaMix</property>
    <track producer="producer21" in="00:11:56.320" out="00:11:56.960"/>
    <track producer="producer22" in="00:11:57.000" out="00:11:57.640"/>
    <transition id="transition30" out="00:00:00.640">
      <property name="a_track">0</property>
      <property name="b_track">1</property>
      <property name="factory">loader</property>
      <property name="mlt_service">luma</property>
      <property name="alpha_over">1</property>
    </transition>
    <transition id="transition31" out="00:00:00.640">
      <property name="a_track">0</property>
      <property name="b_track">1</property>
      <property name="mlt_service">mix</property>
      <property name="start">-1</property>
      <property name="accepts_blanks">1</property>
    </transition>
  </tractor>
  <producer id="producer23" in="00:00:00.000" out="00:25:00.480">
    <property name="length">00:25:00.520</property>
    <property name="eof">pause</property>
    <property name="resource">T:/video/para/sardinien_2020/18092020_littigheddu_long_1_20h/VIRB0111.MP4</property>
    <property name="audio_index">1</property>
    <property name="video_index">0</property>
    <property name="mute_on_pause">0</property>
    <property name="mlt_service">avformat-novalidate</property>
    <property name="seekable">1</property>
    <property name="aspect_ratio">1</property>
    <property name="creation_time">2020-09-18T16:26:07</property>
    <property name="global_feed">1</property>
    <property name="xml">was here</property>
    <property name="shotcut:hash">d16577f18146e087d60608d410ef7cec</property>
    <property name="ignore_points">0</property>
    <property name="shotcut:caption">VIRB0111.MP4</property>
    <filter id="filter9" in="00:12:32.600" out="00:12:35.800">
      <property name="argument">Gilda</property>
      <property name="geometry">148 948 1717 113 1</property>
      <property name="family">Verdana</property>
      <property name="size">1080</property>
      <property name="weight">500</property>
      <property name="style">normal</property>
      <property name="fgcolour">#fbfdb7</property>
      <property name="bgcolour">#00000000</property>
      <property name="olcolour">#aa000000</property>
      <property name="pad">0</property>
      <property name="halign">center</property>
      <property name="valign">top</property>
      <property name="outline">3</property>
      <property name="mlt_service">dynamictext</property>
      <property name="shotcut:filter">dynamicText</property>
      <property name="shotcut:usePointSize">0</property>
      <property name="shotcut:animIn">00:00:00.000</property>
      <property name="shotcut:animOut">00:00:00.000</property>
    </filter>
  </producer>
  <tractor id="tractor16" global_feed="1" in="00:00:00.000" out="00:00:00.560">
    <property name="shotcut:transition">lumaMix</property>
    <track producer="producer22" in="00:12:02.120" out="00:12:02.680"/>
    <track producer="producer23" in="00:12:32.600" out="00:12:33.160"/>
    <transition id="transition32" out="00:00:00.560">
      <property name="a_track">0</property>
      <property name="b_track">1</property>
      <property name="factory">loader</property>
      <property name="mlt_service">luma</property>
      <property name="alpha_over">1</property>
    </transition>
    <transition id="transition33" out="00:00:00.560">
      <property name="a_track">0</property>
      <property name="b_track">1</property>
      <property name="mlt_service">mix</property>
      <property name="start">-1</property>
      <property name="accepts_blanks">1</property>
    </transition>
  </tractor>
  <producer id="producer24" in="00:00:00.000" out="00:25:00.480">
    <property name="length">00:25:00.520</property>
    <property name="eof">pause</property>
    <property name="resource">T:/video/para/sardinien_2020/18092020_littigheddu_long_1_20h/VIRB0111.MP4</property>
    <property name="audio_index">1</property>
    <property name="video_index">0</property>
    <property name="mute_on_pause">0</property>
    <property name="mlt_service">avformat-novalidate</property>
    <property name="seekable">1</property>
    <property name="aspect_ratio">1</property>
    <property name="creation_time">2020-09-18T16:26:07</property>
    <property name="global_feed">1</property>
    <property name="xml">was here</property>
    <property name="shotcut:hash">d16577f18146e087d60608d410ef7cec</property>
    <property name="ignore_points">0</property>
    <property name="shotcut:caption">VIRB0111.MP4</property>
  </producer>
  <tractor id="tractor17" global_feed="1" in="00:00:00.000" out="00:00:00.480">
    <property name="shotcut:transition">lumaMix</property>
    <track producer="producer23" in="00:12:35.320" out="00:12:35.800"/>
    <track producer="producer24" in="00:13:56.280" out="00:13:56.760"/>
    <transition id="transition34" out="00:00:00.480">
      <property name="a_track">0</property>
      <property name="b_track">1</property>
      <property name="factory">loader</property>
      <property name="mlt_service">luma</property>
      <property name="alpha_over">1</property>
    </transition>
    <transition id="transition35" out="00:00:00.480">
      <property name="a_track">0</property>
      <property name="b_track">1</property>
      <property name="mlt_service">mix</property>
      <property name="start">-1</property>
      <property name="accepts_blanks">1</property>
    </transition>
  </tractor>
  <producer id="producer25" in="00:00:00.000" out="00:25:00.480">
    <property name="length">00:25:00.520</property>
    <property name="eof">pause</property>
    <property name="resource">T:/video/para/sardinien_2020/18092020_littigheddu_long_1_20h/VIRB0111.MP4</property>
    <property name="audio_index">1</property>
    <property name="video_index">0</property>
    <property name="mute_on_pause">0</property>
    <property name="mlt_service">avformat-novalidate</property>
    <property name="seekable">1</property>
    <property name="aspect_ratio">1</property>
    <property name="creation_time">2020-09-18T16:26:07</property>
    <property name="global_feed">1</property>
    <property name="xml">was here</property>
    <property name="shotcut:hash">d16577f18146e087d60608d410ef7cec</property>
    <property name="ignore_points">0</property>
    <property name="shotcut:caption">VIRB0111.MP4</property>
  </producer>
  <tractor id="tractor18" global_feed="1" in="00:00:00.000" out="00:00:00.600">
    <property name="shotcut:transition">lumaMix</property>
    <track producer="producer24" in="00:14:00.920" out="00:14:01.520"/>
    <track producer="producer25" in="00:14:01.560" out="00:14:02.160"/>
    <transition id="transition36" out="00:00:00.600">
      <property name="a_track">0</property>
      <property name="b_track">1</property>
      <property name="factory">loader</property>
      <property name="mlt_service">luma</property>
      <property name="alpha_over">1</property>
    </transition>
    <transition id="transition37" out="00:00:00.600">
      <property name="a_track">0</property>
      <property name="b_track">1</property>
      <property name="mlt_service">mix</property>
      <property name="start">-1</property>
      <property name="accepts_blanks">1</property>
    </transition>
  </tractor>
  <producer id="producer26" in="00:00:00.000" out="00:25:00.480">
    <property name="length">00:25:00.520</property>
    <property name="eof">pause</property>
    <property name="resource">T:/video/para/sardinien_2020/18092020_littigheddu_long_1_20h/VIRB0111.MP4</property>
    <property name="audio_index">1</property>
    <property name="video_index">0</property>
    <property name="mute_on_pause">0</property>
    <property name="mlt_service">avformat-novalidate</property>
    <property name="seekable">1</property>
    <property name="aspect_ratio">1</property>
    <property name="creation_time">2020-09-18T16:26:07</property>
    <property name="global_feed">1</property>
    <property name="xml">was here</property>
    <property name="shotcut:hash">d16577f18146e087d60608d410ef7cec</property>
    <property name="ignore_points">0</property>
    <property name="shotcut:caption">VIRB0111.MP4</property>
  </producer>
  <producer id="producer27" in="00:00:00.000" out="00:25:00.480">
    <property name="length">00:25:00.520</property>
    <property name="eof">pause</property>
    <property name="resource">T:/video/para/sardinien_2020/18092020_littigheddu_long_1_20h/VIRB0111.MP4</property>
    <property name="audio_index">1</property>
    <property name="video_index">0</property>
    <property name="mute_on_pause">0</property>
    <property name="mlt_service">avformat-novalidate</property>
    <property name="seekable">1</property>
    <property name="aspect_ratio">1</property>
    <property name="creation_time">2020-09-18T16:26:07</property>
    <property name="global_feed">1</property>
    <property name="xml">was here</property>
    <property name="shotcut:hash">d16577f18146e087d60608d410ef7cec</property>
    <property name="ignore_points">0</property>
    <property name="shotcut:caption">VIRB0111.MP4</property>
  </producer>
  <tractor id="tractor19" global_feed="1" in="00:00:00.000" out="00:00:00.640">
    <property name="shotcut:transition">lumaMix</property>
    <track producer="producer26" in="00:14:10.800" out="00:14:11.440"/>
    <track producer="producer27" in="00:15:05.640" out="00:15:06.280"/>
    <transition id="transition38" out="00:00:00.640">
      <property name="a_track">0</property>
      <property name="b_track">1</property>
      <property name="factory">loader</property>
      <property name="mlt_service">luma</property>
      <property name="alpha_over">1</property>
    </transition>
    <transition id="transition39" out="00:00:00.640">
      <property name="a_track">0</property>
      <property name="b_track">1</property>
      <property name="mlt_service">mix</property>
      <property name="start">-1</property>
      <property name="accepts_blanks">1</property>
    </transition>
  </tractor>
  <producer id="producer28" in="00:00:00.000" out="00:25:00.480">
    <property name="length">00:25:00.520</property>
    <property name="eof">pause</property>
    <property name="resource">T:/video/para/sardinien_2020/18092020_littigheddu_long_1_20h/VIRB0111.MP4</property>
    <property name="audio_index">1</property>
    <property name="video_index">0</property>
    <property name="mute_on_pause">0</property>
    <property name="mlt_service">avformat-novalidate</property>
    <property name="seekable">1</property>
    <property name="aspect_ratio">1</property>
    <property name="creation_time">2020-09-18T16:26:07</property>
    <property name="global_feed">1</property>
    <property name="xml">was here</property>
    <property name="shotcut:hash">d16577f18146e087d60608d410ef7cec</property>
    <property name="ignore_points">0</property>
    <property name="shotcut:caption">VIRB0111.MP4</property>
  </producer>
  <tractor id="tractor20" global_feed="1" in="00:00:00.000" out="00:00:00.480">
    <property name="shotcut:transition">lumaMix</property>
    <track producer="producer27" in="00:15:09.480" out="00:15:09.960"/>
    <track producer="producer28" in="00:15:22.200" out="00:15:22.680"/>
    <transition id="transition40" out="00:00:00.480">
      <property name="a_track">0</property>
      <property name="b_track">1</property>
      <property name="factory">loader</property>
      <property name="mlt_service">luma</property>
      <property name="alpha_over">1</property>
    </transition>
    <transition id="transition41" out="00:00:00.480">
      <property name="a_track">0</property>
      <property name="b_track">1</property>
      <property name="mlt_service">mix</property>
      <property name="start">-1</property>
      <property name="accepts_blanks">1</property>
    </transition>
  </tractor>
  <producer id="producer29" in="00:00:00.000" out="00:25:00.480">
    <property name="length">00:25:00.520</property>
    <property name="eof">pause</property>
    <property name="resource">T:/video/para/sardinien_2020/18092020_littigheddu_long_1_20h/VIRB0111.MP4</property>
    <property name="audio_index">1</property>
    <property name="video_index">0</property>
    <property name="mute_on_pause">0</property>
    <property name="mlt_service">avformat-novalidate</property>
    <property name="seekable">1</property>
    <property name="aspect_ratio">1</property>
    <property name="creation_time">2020-09-18T16:26:07</property>
    <property name="global_feed">1</property>
    <property name="xml">was here</property>
    <property name="shotcut:hash">d16577f18146e087d60608d410ef7cec</property>
    <property name="ignore_points">0</property>
    <property name="shotcut:caption">VIRB0111.MP4</property>
    <property name="shotcut:defaultAudioIndex">-1</property>
    <filter id="filter11" in="00:15:25.920" out="00:15:27.880">
      <property name="argument">Lutz</property>
      <property name="geometry">148 948 1717 113 1</property>
      <property name="family">Verdana</property>
      <property name="size">1080</property>
      <property name="weight">500</property>
      <property name="style">normal</property>
      <property name="fgcolour">#fbfdb7</property>
      <property name="bgcolour">#00000000</property>
      <property name="olcolour">#aa000000</property>
      <property name="pad">0</property>
      <property name="halign">center</property>
      <property name="valign">top</property>
      <property name="outline">3</property>
      <property name="mlt_service">dynamictext</property>
      <property name="shotcut:filter">dynamicText</property>
      <property name="shotcut:usePointSize">0</property>
      <property name="shotcut:pointSize">60</property>
    </filter>
  </producer>
  <tractor id="tractor21" global_feed="1" in="00:00:00.000" out="00:00:00.640">
    <property name="shotcut:transition">lumaMix</property>
    <track producer="producer28" in="00:15:25.240" out="00:15:25.880"/>
    <track producer="producer29" in="00:15:25.920" out="00:15:26.560"/>
    <transition id="transition42" out="00:00:00.640">
      <property name="a_track">0</property>
      <property name="b_track">1</property>
      <property name="factory">loader</property>
      <property name="mlt_service">luma</property>
      <property name="alpha_over">1</property>
    </transition>
    <transition id="transition43" out="00:00:00.640">
      <property name="a_track">0</property>
      <property name="b_track">1</property>
      <property name="mlt_service">mix</property>
      <property name="start">-1</property>
      <property name="accepts_blanks">1</property>
    </transition>
  </tractor>
  <producer id="producer30" in="00:00:00.000" out="00:25:00.480">
    <property name="length">00:25:00.520</property>
    <property name="eof">pause</property>
    <property name="resource">T:/video/para/sardinien_2020/18092020_littigheddu_long_1_20h/VIRB0111.MP4</property>
    <property name="audio_index">1</property>
    <property name="video_index">0</property>
    <property name="mute_on_pause">0</property>
    <property name="mlt_service">avformat-novalidate</property>
    <property name="seekable">1</property>
    <property name="aspect_ratio">1</property>
    <property name="creation_time">2020-09-18T16:26:07</property>
    <property name="global_feed">1</property>
    <property name="xml">was here</property>
    <property name="shotcut:hash">d16577f18146e087d60608d410ef7cec</property>
    <property name="ignore_points">0</property>
    <property name="shotcut:caption">VIRB0111.MP4</property>
  </producer>
  <tractor id="tractor22" global_feed="1" in="00:00:00.000" out="00:00:00.680">
    <property name="shotcut:transition">lumaMix</property>
    <track producer="producer29" in="00:15:29.480" out="00:15:30.160"/>
    <track producer="producer30" in="00:18:56.760" out="00:18:57.440"/>
    <transition id="transition44" out="00:00:00.680">
      <property name="a_track">0</property>
      <property name="b_track">1</property>
      <property name="factory">loader</property>
      <property name="mlt_service">luma</property>
      <property name="alpha_over">1</property>
    </transition>
    <transition id="transition45" out="00:00:00.680">
      <property name="a_track">0</property>
      <property name="b_track">1</property>
      <property name="mlt_service">mix</property>
      <property name="start">-1</property>
      <property name="accepts_blanks">1</property>
    </transition>
  </tractor>
  <producer id="producer31" in="00:00:00.000" out="00:25:00.480">
    <property name="length">00:25:00.520</property>
    <property name="eof">pause</property>
    <property name="resource">T:/video/para/sardinien_2020/18092020_littigheddu_long_1_20h/VIRB0111.MP4</property>
    <property name="audio_index">1</property>
    <property name="video_index">0</property>
    <property name="mute_on_pause">0</property>
    <property name="mlt_service">avformat-novalidate</property>
    <property name="seekable">1</property>
    <property name="aspect_ratio">1</property>
    <property name="creation_time">2020-09-18T16:26:07</property>
    <property name="global_feed">1</property>
    <property name="xml">was here</property>
    <property name="shotcut:hash">d16577f18146e087d60608d410ef7cec</property>
    <property name="ignore_points">0</property>
    <property name="shotcut:caption">VIRB0111.MP4</property>
  </producer>
  <tractor id="tractor23" global_feed="1" in="00:00:00.000" out="00:00:01.160">
    <property name="shotcut:transition">lumaMix</property>
    <track producer="producer30" in="00:19:03.840" out="00:19:05.000"/>
    <track producer="producer31" in="00:19:05.040" out="00:19:06.200"/>
    <transition id="transition46" out="00:00:01.160">
      <property name="a_track">0</property>
      <property name="b_track">1</property>
      <property name="factory">loader</property>
      <property name="mlt_service">luma</property>
      <property name="alpha_over">1</property>
    </transition>
    <transition id="transition47" out="00:00:01.160">
      <property name="a_track">0</property>
      <property name="b_track">1</property>
      <property name="mlt_service">mix</property>
      <property name="start">-1</property>
      <property name="accepts_blanks">1</property>
    </transition>
  </tractor>
  <producer id="producer32" in="00:00:00.000" out="00:25:00.480">
    <property name="length">00:25:00.520</property>
    <property name="eof">pause</property>
    <property name="resource">T:/video/para/sardinien_2020/18092020_littigheddu_long_1_20h/VIRB0111.MP4</property>
    <property name="audio_index">1</property>
    <property name="video_index">0</property>
    <property name="mute_on_pause">0</property>
    <property name="mlt_service">avformat-novalidate</property>
    <property name="seekable">1</property>
    <property name="aspect_ratio">1</property>
    <property name="creation_time">2020-09-18T16:26:07</property>
    <property name="global_feed">1</property>
    <property name="xml">was here</property>
    <property name="shotcut:hash">d16577f18146e087d60608d410ef7cec</property>
    <property name="ignore_points">0</property>
    <property name="shotcut:caption">VIRB0111.MP4</property>
  </producer>
  <tractor id="tractor24" global_feed="1" in="00:00:00.000" out="00:00:00.680">
    <property name="shotcut:transition">lumaMix</property>
    <track producer="producer31" in="00:19:17.440" out="00:19:18.120"/>
    <track producer="producer32" in="00:19:18.160" out="00:19:18.840"/>
    <transition id="transition48" out="00:00:00.680">
      <property name="a_track">0</property>
      <property name="b_track">1</property>
      <property name="factory">loader</property>
      <property name="mlt_service">luma</property>
      <property name="alpha_over">1</property>
    </transition>
    <transition id="transition49" out="00:00:00.680">
      <property name="a_track">0</property>
      <property name="b_track">1</property>
      <property name="mlt_service">mix</property>
      <property name="start">-1</property>
      <property name="accepts_blanks">1</property>
    </transition>
  </tractor>
  <producer id="producer33" in="00:00:00.000" out="00:25:00.480">
    <property name="length">00:25:00.520</property>
    <property name="eof">pause</property>
    <property name="resource">T:/video/para/sardinien_2020/18092020_littigheddu_long_1_20h/VIRB0111.MP4</property>
    <property name="audio_index">1</property>
    <property name="video_index">0</property>
    <property name="mute_on_pause">0</property>
    <property name="mlt_service">avformat-novalidate</property>
    <property name="seekable">1</property>
    <property name="aspect_ratio">1</property>
    <property name="creation_time">2020-09-18T16:26:07</property>
    <property name="global_feed">1</property>
    <property name="xml">was here</property>
    <property name="shotcut:hash">d16577f18146e087d60608d410ef7cec</property>
    <property name="ignore_points">0</property>
    <property name="shotcut:caption">VIRB0111.MP4</property>
  </producer>
  <tractor id="tractor25" global_feed="1" in="00:00:00.000" out="00:00:00.640">
    <property name="shotcut:transition">lumaMix</property>
    <track producer="producer32" in="00:19:21.360" out="00:19:22.000"/>
    <track producer="producer33" in="00:19:22.040" out="00:19:22.680"/>
    <transition id="transition50" out="00:00:00.640">
      <property name="a_track">0</property>
      <property name="b_track">1</property>
      <property name="factory">loader</property>
      <property name="mlt_service">luma</property>
      <property name="alpha_over">1</property>
    </transition>
    <transition id="transition51" out="00:00:00.640">
      <property name="a_track">0</property>
      <property name="b_track">1</property>
      <property name="mlt_service">mix</property>
      <property name="start">-1</property>
      <property name="accepts_blanks">1</property>
    </transition>
  </tractor>
  <producer id="producer34" in="00:00:00.000" out="00:25:00.480">
    <property name="length">00:25:00.520</property>
    <property name="eof">pause</property>
    <property name="resource">T:/video/para/sardinien_2020/18092020_littigheddu_long_1_20h/VIRB0111.MP4</property>
    <property name="audio_index">1</property>
    <property name="video_index">0</property>
    <property name="mute_on_pause">0</property>
    <property name="mlt_service">avformat-novalidate</property>
    <property name="seekable">1</property>
    <property name="aspect_ratio">1</property>
    <property name="creation_time">2020-09-18T16:26:07</property>
    <property name="global_feed">1</property>
    <property name="xml">was here</property>
    <property name="shotcut:hash">d16577f18146e087d60608d410ef7cec</property>
    <property name="ignore_points">0</property>
    <property name="shotcut:caption">VIRB0111.MP4</property>
  </producer>
  <tractor id="tractor26" global_feed="1" in="00:00:00.000" out="00:00:00.680">
    <property name="shotcut:transition">lumaMix</property>
    <track producer="producer33" in="00:19:28.280" out="00:19:28.960"/>
    <track producer="producer34" in="00:19:42.080" out="00:19:42.760"/>
    <transition id="transition52" out="00:00:00.680">
      <property name="a_track">0</property>
      <property name="b_track">1</property>
      <property name="factory">loader</property>
      <property name="mlt_service">luma</property>
      <property name="alpha_over">1</property>
    </transition>
    <transition id="transition53" out="00:00:00.680">
      <property name="a_track">0</property>
      <property name="b_track">1</property>
      <property name="mlt_service">mix</property>
      <property name="start">-1</property>
      <property name="accepts_blanks">1</property>
    </transition>
  </tractor>
  <producer id="producer35" in="00:00:00.000" out="00:25:00.480">
    <property name="length">00:25:00.520</property>
    <property name="eof">pause</property>
    <property name="resource">T:/video/para/sardinien_2020/18092020_littigheddu_long_1_20h/VIRB0111.MP4</property>
    <property name="audio_index">1</property>
    <property name="video_index">0</property>
    <property name="mute_on_pause">0</property>
    <property name="mlt_service">avformat-novalidate</property>
    <property name="seekable">1</property>
    <property name="aspect_ratio">1</property>
    <property name="creation_time">2020-09-18T16:26:07</property>
    <property name="global_feed">1</property>
    <property name="xml">was here</property>
    <property name="shotcut:hash">d16577f18146e087d60608d410ef7cec</property>
    <property name="ignore_points">0</property>
    <property name="shotcut:caption">VIRB0111.MP4</property>
  </producer>
  <tractor id="tractor27" global_feed="1" in="00:00:00.000" out="00:00:00.440">
    <property name="shotcut:transition">lumaMix</property>
    <track producer="producer34" in="00:19:53.520" out="00:19:53.960"/>
    <track producer="producer35" in="00:19:54.000" out="00:19:54.440"/>
    <transition id="transition54" out="00:00:00.440">
      <property name="a_track">0</property>
      <property name="b_track">1</property>
      <property name="factory">loader</property>
      <property name="mlt_service">luma</property>
      <property name="alpha_over">1</property>
    </transition>
    <transition id="transition55" out="00:00:00.440">
      <property name="a_track">0</property>
      <property name="b_track">1</property>
      <property name="mlt_service">mix</property>
      <property name="start">-1</property>
      <property name="accepts_blanks">1</property>
    </transition>
  </tractor>
  <producer id="producer36" in="00:00:00.000" out="00:25:00.480">
    <property name="length">00:25:00.520</property>
    <property name="eof">pause</property>
    <property name="resource">T:/video/para/sardinien_2020/18092020_littigheddu_long_1_20h/VIRB0111.MP4</property>
    <property name="audio_index">1</property>
    <property name="video_index">0</property>
    <property name="mute_on_pause">0</property>
    <property name="mlt_service">avformat-novalidate</property>
    <property name="seekable">1</property>
    <property name="aspect_ratio">1</property>
    <property name="creation_time">2020-09-18T16:26:07</property>
    <property name="global_feed">1</property>
    <property name="xml">was here</property>
    <property name="shotcut:hash">d16577f18146e087d60608d410ef7cec</property>
    <property name="ignore_points">0</property>
    <property name="shotcut:caption">VIRB0111.MP4</property>
    <filter id="filter12" in="00:19:57.400" out="00:20:06.560">
      <property name="argument">Horst/Barbara</property>
      <property name="geometry">148 948 1717 113 1</property>
      <property name="family">Verdana</property>
      <property name="size">1080</property>
      <property name="weight">500</property>
      <property name="style">normal</property>
      <property name="fgcolour">#fbfdb7</property>
      <property name="bgcolour">#00000000</property>
      <property name="olcolour">#aa000000</property>
      <property name="pad">0</property>
      <property name="halign">center</property>
      <property name="valign">top</property>
      <property name="outline">3</property>
      <property name="mlt_service">dynamictext</property>
      <property name="shotcut:filter">dynamicText</property>
      <property name="shotcut:usePointSize">0</property>
      <property name="shotcut:pointSize">60</property>
    </filter>
  </producer>
  <tractor id="tractor28" global_feed="1" in="00:00:00.000" out="00:00:00.520">
    <property name="shotcut:transition">lumaMix</property>
    <track producer="producer35" in="00:19:56.840" out="00:19:57.360"/>
    <track producer="producer36" in="00:19:57.400" out="00:19:57.920"/>
    <transition id="transition56" out="00:00:00.520">
      <property name="a_track">0</property>
      <property name="b_track">1</property>
      <property name="factory">loader</property>
      <property name="mlt_service">luma</property>
      <property name="alpha_over">1</property>
    </transition>
    <transition id="transition57" out="00:00:00.520">
      <property name="a_track">0</property>
      <property name="b_track">1</property>
      <property name="mlt_service">mix</property>
      <property name="start">-1</property>
      <property name="accepts_blanks">1</property>
    </transition>
  </tractor>
  <producer id="producer37" in="00:00:00.000" out="00:25:00.480">
    <property name="length">00:25:00.520</property>
    <property name="eof">pause</property>
    <property name="resource">T:/video/para/sardinien_2020/18092020_littigheddu_long_1_20h/VIRB0111.MP4</property>
    <property name="audio_index">1</property>
    <property name="video_index">0</property>
    <property name="mute_on_pause">0</property>
    <property name="mlt_service">avformat-novalidate</property>
    <property name="seekable">1</property>
    <property name="aspect_ratio">1</property>
    <property name="creation_time">2020-09-18T16:26:07</property>
    <property name="global_feed">1</property>
    <property name="xml">was here</property>
    <property name="shotcut:hash">d16577f18146e087d60608d410ef7cec</property>
    <property name="ignore_points">0</property>
    <property name="shotcut:caption">VIRB0111.MP4</property>
  </producer>
  <tractor id="tractor29" global_feed="1" in="00:00:00.000" out="00:00:00.720">
    <property name="shotcut:transition">lumaMix</property>
    <track producer="producer36" in="00:20:05.840" out="00:20:06.560"/>
    <track producer="producer37" in="00:20:36.040" out="00:20:36.760"/>
    <transition id="transition58" out="00:00:00.720">
      <property name="a_track">0</property>
      <property name="b_track">1</property>
      <property name="factory">loader</property>
      <property name="mlt_service">luma</property>
      <property name="alpha_over">1</property>
    </transition>
    <transition id="transition59" out="00:00:00.720">
      <property name="a_track">0</property>
      <property name="b_track">1</property>
      <property name="mlt_service">mix</property>
      <property name="start">-1</property>
      <property name="accepts_blanks">1</property>
    </transition>
  </tractor>
  <producer id="producer38" in="00:00:00.000" out="00:25:00.480">
    <property name="length">00:25:00.520</property>
    <property name="eof">pause</property>
    <property name="resource">T:/video/para/sardinien_2020/18092020_littigheddu_long_1_20h/VIRB0111.MP4</property>
    <property name="audio_index">1</property>
    <property name="video_index">0</property>
    <property name="mute_on_pause">0</property>
    <property name="mlt_service">avformat-novalidate</property>
    <property name="seekable">1</property>
    <property name="aspect_ratio">1</property>
    <property name="creation_time">2020-09-18T16:26:07</property>
    <property name="global_feed">1</property>
    <property name="xml">was here</property>
    <property name="shotcut:hash">d16577f18146e087d60608d410ef7cec</property>
    <property name="ignore_points">0</property>
    <property name="shotcut:caption">VIRB0111.MP4</property>
  </producer>
  <tractor id="tractor30" global_feed="1" in="00:00:00.000" out="00:00:00.720">
    <property name="shotcut:transition">lumaMix</property>
    <track producer="producer37" in="00:20:41.240" out="00:20:41.960"/>
    <track producer="producer38" in="00:22:54.280" out="00:22:55.000"/>
    <transition id="transition60" out="00:00:00.720">
      <property name="a_track">0</property>
      <property name="b_track">1</property>
      <property name="factory">loader</property>
      <property name="mlt_service">luma</property>
      <property name="alpha_over">1</property>
    </transition>
    <transition id="transition61" out="00:00:00.720">
      <property name="a_track">0</property>
      <property name="b_track">1</property>
      <property name="mlt_service">mix</property>
      <property name="start">-1</property>
      <property name="accepts_blanks">1</property>
    </transition>
  </tractor>
  <producer id="producer39" in="00:00:00.000" out="00:25:00.480">
    <property name="length">00:25:00.520</property>
    <property name="eof">pause</property>
    <property name="resource">T:/video/para/sardinien_2020/18092020_littigheddu_long_1_20h/VIRB0111.MP4</property>
    <property name="audio_index">1</property>
    <property name="video_index">0</property>
    <property name="mute_on_pause">0</property>
    <property name="mlt_service">avformat-novalidate</property>
    <property name="seekable">1</property>
    <property name="aspect_ratio">1</property>
    <property name="creation_time">2020-09-18T16:26:07</property>
    <property name="global_feed">1</property>
    <property name="xml">was here</property>
    <property name="shotcut:hash">d16577f18146e087d60608d410ef7cec</property>
    <property name="ignore_points">0</property>
    <property name="shotcut:caption">VIRB0111.MP4</property>
  </producer>
  <tractor id="tractor31" global_feed="1" in="00:00:00.000" out="00:00:00.680">
    <property name="shotcut:transition">lumaMix</property>
    <track producer="producer38" in="00:23:37.080" out="00:23:37.760"/>
    <track producer="producer39" in="00:23:37.800" out="00:23:38.480"/>
    <transition id="transition62" out="00:00:00.680">
      <property name="a_track">0</property>
      <property name="b_track">1</property>
      <property name="factory">loader</property>
      <property name="mlt_service">luma</property>
      <property name="alpha_over">1</property>
    </transition>
    <transition id="transition63" out="00:00:00.680">
      <property name="a_track">0</property>
      <property name="b_track">1</property>
      <property name="mlt_service">mix</property>
      <property name="start">-1</property>
      <property name="accepts_blanks">1</property>
    </transition>
  </tractor>
  <producer id="producer40" in="00:00:00.000" out="00:25:00.440">
    <property name="length">00:25:00.480</property>
    <property name="eof">pause</property>
    <property name="resource">T:/video/para/sardinien_2020/18092020_littigheddu_long_1_20h/VIRB0111-2.MP4</property>
    <property name="audio_index">1</property>
    <property name="video_index">0</property>
    <property name="mute_on_pause">0</property>
    <property name="mlt_service">avformat-novalidate</property>
    <property name="seekable">1</property>
    <property name="aspect_ratio">1</property>
    <property name="creation_time">2020-09-18T16:51:09</property>
    <property name="global_feed">1</property>
    <property name="xml">was here</property>
    <property name="shotcut:hash">190d51b30e54f38f532714e004569afe</property>
    <property name="shotcut:caption">VIRB0111-2.MP4</property>
  </producer>
  <tractor id="tractor32" global_feed="1" in="00:00:00.000" out="00:00:00.760">
    <property name="shotcut:transition">lumaMix</property>
    <track producer="producer39" in="00:23:48.320" out="00:23:49.080"/>
    <track producer="producer40" in="00:00:00.000" out="00:00:00.760"/>
    <transition id="transition64" out="00:00:00.760">
      <property name="a_track">0</property>
      <property name="b_track">1</property>
      <property name="factory">loader</property>
      <property name="mlt_service">luma</property>
      <property name="alpha_over">1</property>
    </transition>
    <transition id="transition65" out="00:00:00.760">
      <property name="a_track">0</property>
      <property name="b_track">1</property>
      <property name="mlt_service">mix</property>
      <property name="start">-1</property>
      <property name="accepts_blanks">1</property>
    </transition>
  </tractor>
  <producer id="producer41" in="00:00:00.000" out="00:25:00.440">
    <property name="length">00:25:00.480</property>
    <property name="eof">pause</property>
    <property name="resource">T:/video/para/sardinien_2020/18092020_littigheddu_long_1_20h/VIRB0111-2.MP4</property>
    <property name="audio_index">1</property>
    <property name="video_index">0</property>
    <property name="mute_on_pause">0</property>
    <property name="mlt_service">avformat-novalidate</property>
    <property name="seekable">1</property>
    <property name="aspect_ratio">1</property>
    <property name="creation_time">2020-09-18T16:51:09</property>
    <property name="global_feed">1</property>
    <property name="xml">was here</property>
    <property name="shotcut:hash">190d51b30e54f38f532714e004569afe</property>
    <property name="shotcut:caption">VIRB0111-2.MP4</property>
    <filter id="filter13" in="00:01:46.640" out="00:01:49.200">
      <property name="argument">Claudia</property>
      <property name="geometry">80 966 1767 95 1</property>
      <property name="family">Verdana</property>
      <property name="size">1080</property>
      <property name="weight">500</property>
      <property name="style">normal</property>
      <property name="fgcolour">#e6e792</property>
      <property name="bgcolour">#00000000</property>
      <property name="olcolour">#aa000000</property>
      <property name="pad">0</property>
      <property name="halign">center</property>
      <property name="valign">top</property>
      <property name="outline">3</property>
      <property name="mlt_service">dynamictext</property>
      <property name="shotcut:filter">dynamicText</property>
      <property name="shotcut:usePointSize">0</property>
      <property name="shotcut:pointSize">60</property>
      <property name="shotcut:animIn">00:00:00.000</property>
      <property name="shotcut:animOut">00:00:00.000</property>
    </filter>
  </producer>
  <tractor id="tractor33" global_feed="1" in="00:00:00.000" out="00:00:00.240">
    <property name="shotcut:transition">lumaMix</property>
    <track producer="producer40" in="00:01:46.360" out="00:01:46.600"/>
    <track producer="producer41" in="00:01:46.640" out="00:01:46.880"/>
    <transition id="transition66" out="00:00:00.240">
      <property name="a_track">0</property>
      <property name="b_track">1</property>
      <property name="factory">loader</property>
      <property name="mlt_service">luma</property>
      <property name="alpha_over">1</property>
    </transition>
    <transition id="transition67" out="00:00:00.240">
      <property name="a_track">0</property>
      <property name="b_track">1</property>
      <property name="mlt_service">mix</property>
      <property name="start">-1</property>
      <property name="accepts_blanks">1</property>
    </transition>
  </tractor>
  <producer id="producer42" in="00:00:00.000" out="00:25:00.440">
    <property name="length">00:25:00.480</property>
    <property name="eof">pause</property>
    <property name="resource">T:/video/para/sardinien_2020/18092020_littigheddu_long_1_20h/VIRB0111-2.MP4</property>
    <property name="audio_index">1</property>
    <property name="video_index">0</property>
    <property name="mute_on_pause">0</property>
    <property name="mlt_service">avformat-novalidate</property>
    <property name="seekable">1</property>
    <property name="aspect_ratio">1</property>
    <property name="creation_time">2020-09-18T16:51:09</property>
    <property name="global_feed">1</property>
    <property name="xml">was here</property>
    <property name="shotcut:hash">190d51b30e54f38f532714e004569afe</property>
    <property name="shotcut:caption">VIRB0111-2.MP4</property>
  </producer>
  <tractor id="tractor34" global_feed="1" in="00:00:00.000" out="00:00:00.520">
    <property name="shotcut:transition">lumaMix</property>
    <track producer="producer41" in="00:01:48.680" out="00:01:49.200"/>
    <track producer="producer42" in="00:03:04.120" out="00:03:04.640"/>
    <transition id="transition68" out="00:00:00.520">
      <property name="a_track">0</property>
      <property name="b_track">1</property>
      <property name="factory">loader</property>
      <property name="mlt_service">luma</property>
      <property name="alpha_over">1</property>
    </transition>
    <transition id="transition69" out="00:00:00.520">
      <property name="a_track">0</property>
      <property name="b_track">1</property>
      <property name="mlt_service">mix</property>
      <property name="start">-1</property>
      <property name="accepts_blanks">1</property>
    </transition>
  </tractor>
  <producer id="producer43" in="00:00:00.000" out="00:25:00.440">
    <property name="length">00:25:00.480</property>
    <property name="eof">pause</property>
    <property name="resource">T:/video/para/sardinien_2020/18092020_littigheddu_long_1_20h/VIRB0111-2.MP4</property>
    <property name="audio_index">1</property>
    <property name="video_index">0</property>
    <property name="mute_on_pause">0</property>
    <property name="mlt_service">avformat-novalidate</property>
    <property name="seekable">1</property>
    <property name="aspect_ratio">1</property>
    <property name="creation_time">2020-09-18T16:51:09</property>
    <property name="global_feed">1</property>
    <property name="xml">was here</property>
    <property name="shotcut:hash">190d51b30e54f38f532714e004569afe</property>
    <property name="shotcut:caption">VIRB0111-2.MP4</property>
    <filter id="filter14" in="00:04:34.840" out="00:04:38.320">
      <property name="argument">Links Horst, rechts Barbara, im Hintergrund Tandem</property>
      <property name="geometry">97 979 1750 82 1</property>
      <property name="family">Verdana</property>
      <property name="size">1080</property>
      <property name="weight">500</property>
      <property name="style">normal</property>
      <property name="fgcolour">#e6e792</property>
      <property name="bgcolour">#00000000</property>
      <property name="olcolour">#aa000000</property>
      <property name="pad">0</property>
      <property name="halign">center</property>
      <property name="valign">top</property>
      <property name="outline">3</property>
      <property name="mlt_service">dynamictext</property>
      <property name="shotcut:filter">dynamicText</property>
      <property name="shotcut:usePointSize">0</property>
      <property name="shotcut:pointSize">60</property>
    </filter>
  </producer>
  <tractor id="tractor35" global_feed="1" in="00:00:00.000" out="00:00:00.480">
    <property name="shotcut:transition">lumaMix</property>
    <track producer="producer42" in="00:03:51.320" out="00:03:51.800"/>
    <track producer="producer43" in="00:04:34.840" out="00:04:35.320"/>
    <transition id="transition70" out="00:00:00.480">
      <property name="a_track">0</property>
      <property name="b_track">1</property>
      <property name="factory">loader</property>
      <property name="mlt_service">luma</property>
      <property name="alpha_over">1</property>
    </transition>
    <transition id="transition71" out="00:00:00.480">
      <property name="a_track">0</property>
      <property name="b_track">1</property>
      <property name="mlt_service">mix</property>
      <property name="start">-1</property>
      <property name="accepts_blanks">1</property>
    </transition>
  </tractor>
  <producer id="producer44" in="00:00:00.000" out="00:25:00.440">
    <property name="length">00:25:00.480</property>
    <property name="eof">pause</property>
    <property name="resource">T:/video/para/sardinien_2020/18092020_littigheddu_long_1_20h/VIRB0111-2.MP4</property>
    <property name="audio_index">1</property>
    <property name="video_index">0</property>
    <property name="mute_on_pause">0</property>
    <property name="mlt_service">avformat-novalidate</property>
    <property name="seekable">1</property>
    <property name="aspect_ratio">1</property>
    <property name="creation_time">2020-09-18T16:51:09</property>
    <property name="global_feed">1</property>
    <property name="xml">was here</property>
    <property name="shotcut:hash">190d51b30e54f38f532714e004569afe</property>
    <property name="shotcut:caption">VIRB0111-2.MP4</property>
  </producer>
  <tractor id="tractor36" global_feed="1" in="00:00:00.000" out="00:00:00.840">
    <property name="shotcut:transition">lumaMix</property>
    <track producer="producer43" in="00:04:55.840" out="00:04:56.680"/>
    <track producer="producer44" in="00:04:56.720" out="00:04:57.560"/>
    <transition id="transition72" out="00:00:00.840">
      <property name="a_track">0</property>
      <property name="b_track">1</property>
      <property name="factory">loader</property>
      <property name="mlt_service">luma</property>
      <property name="alpha_over">1</property>
    </transition>
    <transition id="transition73" out="00:00:00.840">
      <property name="a_track">0</property>
      <property name="b_track">1</property>
      <property name="mlt_service">mix</property>
      <property name="start">-1</property>
      <property name="accepts_blanks">1</property>
    </transition>
  </tractor>
  <producer id="producer45" in="00:00:00.000" out="00:25:00.440">
    <property name="length">00:25:00.480</property>
    <property name="eof">pause</property>
    <property name="resource">T:/video/para/sardinien_2020/18092020_littigheddu_long_1_20h/VIRB0111-2.MP4</property>
    <property name="audio_index">1</property>
    <property name="video_index">0</property>
    <property name="mute_on_pause">0</property>
    <property name="mlt_service">avformat-novalidate</property>
    <property name="seekable">1</property>
    <property name="aspect_ratio">1</property>
    <property name="creation_time">2020-09-18T16:51:09</property>
    <property name="global_feed">1</property>
    <property name="xml">was here</property>
    <property name="shotcut:hash">190d51b30e54f38f532714e004569afe</property>
    <property name="shotcut:caption">VIRB0111-2.MP4</property>
    <filter id="filter15" in="00:06:28.440" out="00:06:31.080">
      <property name="argument">Barbara</property>
      <property name="geometry">80 966 1767 95 1</property>
      <property name="family">Verdana</property>
      <property name="size">1080</property>
      <property name="weight">500</property>
      <property name="style">normal</property>
      <property name="fgcolour">#e6e792</property>
      <property name="bgcolour">#00000000</property>
      <property name="olcolour">#aa000000</property>
      <property name="pad">0</property>
      <property name="halign">center</property>
      <property name="valign">top</property>
      <property name="outline">3</property>
      <property name="mlt_service">dynamictext</property>
      <property name="shotcut:filter">dynamicText</property>
      <property name="shotcut:usePointSize">0</property>
      <property name="shotcut:pointSize">60</property>
      <property name="shotcut:animOut">00:00:00.000</property>
    </filter>
  </producer>
  <tractor id="tractor37" global_feed="1" in="00:00:00.000" out="00:00:00.760">
    <property name="shotcut:transition">lumaMix</property>
    <track producer="producer44" in="00:05:10.360" out="00:05:11.120"/>
    <track producer="producer45" in="00:06:28.440" out="00:06:29.200"/>
    <transition id="transition74" out="00:00:00.760">
      <property name="a_track">0</property>
      <property name="b_track">1</property>
      <property name="factory">loader</property>
      <property name="mlt_service">luma</property>
      <property name="alpha_over">1</property>
    </transition>
    <transition id="transition75" out="00:00:00.760">
      <property name="a_track">0</property>
      <property name="b_track">1</property>
      <property name="mlt_service">mix</property>
      <property name="start">-1</property>
      <property name="accepts_blanks">1</property>
    </transition>
  </tractor>
  <producer id="producer46" in="00:00:00.000" out="00:25:00.440">
    <property name="length">00:25:00.480</property>
    <property name="eof">pause</property>
    <property name="resource">T:/video/para/sardinien_2020/18092020_littigheddu_long_1_20h/VIRB0111-2.MP4</property>
    <property name="audio_index">1</property>
    <property name="video_index">0</property>
    <property name="mute_on_pause">0</property>
    <property name="mlt_service">avformat-novalidate</property>
    <property name="seekable">1</property>
    <property name="aspect_ratio">1</property>
    <property name="creation_time">2020-09-18T16:51:09</property>
    <property name="global_feed">1</property>
    <property name="xml">was here</property>
    <property name="shotcut:hash">190d51b30e54f38f532714e004569afe</property>
    <property name="shotcut:caption">VIRB0111-2.MP4</property>
  </producer>
  <tractor id="tractor38" global_feed="1" in="00:00:00.000" out="00:00:00.720">
    <property name="shotcut:transition">lumaMix</property>
    <track producer="producer45" in="00:06:33.480" out="00:06:34.200"/>
    <track producer="producer46" in="00:07:58.320" out="00:07:59.040"/>
    <transition id="transition76" out="00:00:00.720">
      <property name="a_track">0</property>
      <property name="b_track">1</property>
      <property name="factory">loader</property>
      <property name="mlt_service">luma</property>
      <property name="alpha_over">1</property>
    </transition>
    <transition id="transition77" out="00:00:00.720">
      <property name="a_track">0</property>
      <property name="b_track">1</property>
      <property name="mlt_service">mix</property>
      <property name="start">-1</property>
      <property name="accepts_blanks">1</property>
    </transition>
  </tractor>
  <producer id="producer47" in="00:00:00.000" out="00:25:00.440">
    <property name="length">00:25:00.480</property>
    <property name="eof">pause</property>
    <property name="resource">T:/video/para/sardinien_2020/18092020_littigheddu_long_1_20h/VIRB0111-2.MP4</property>
    <property name="audio_index">1</property>
    <property name="video_index">0</property>
    <property name="mute_on_pause">0</property>
    <property name="mlt_service">avformat-novalidate</property>
    <property name="seekable">1</property>
    <property name="aspect_ratio">1</property>
    <property name="creation_time">2020-09-18T16:51:09</property>
    <property name="global_feed">1</property>
    <property name="xml">was here</property>
    <property name="shotcut:hash">190d51b30e54f38f532714e004569afe</property>
    <property name="shotcut:caption">VIRB0111-2.MP4</property>
  </producer>
  <tractor id="tractor39" global_feed="1" in="00:00:00.000" out="00:00:00.200">
    <property name="shotcut:transition">lumaMix</property>
    <track producer="producer46" in="00:08:01.280" out="00:08:01.480"/>
    <track producer="producer47" in="00:08:01.520" out="00:08:01.720"/>
    <transition id="transition78" out="00:00:00.200">
      <property name="a_track">0</property>
      <property name="b_track">1</property>
      <property name="factory">loader</property>
      <property name="mlt_service">luma</property>
      <property name="alpha_over">1</property>
    </transition>
    <transition id="transition79" out="00:00:00.200">
      <property name="a_track">0</property>
      <property name="b_track">1</property>
      <property name="mlt_service">mix</property>
      <property name="start">-1</property>
      <property name="accepts_blanks">1</property>
    </transition>
  </tractor>
  <producer id="producer48" in="00:00:00.000" out="00:25:00.440">
    <property name="length">00:25:00.480</property>
    <property name="eof">pause</property>
    <property name="resource">T:/video/para/sardinien_2020/18092020_littigheddu_long_1_20h/VIRB0111-2.MP4</property>
    <property name="audio_index">1</property>
    <property name="video_index">0</property>
    <property name="mute_on_pause">0</property>
    <property name="mlt_service">avformat-novalidate</property>
    <property name="seekable">1</property>
    <property name="aspect_ratio">1</property>
    <property name="creation_time">2020-09-18T16:51:09</property>
    <property name="global_feed">1</property>
    <property name="xml">was here</property>
    <property name="shotcut:hash">190d51b30e54f38f532714e004569afe</property>
    <property name="shotcut:caption">VIRB0111-2.MP4</property>
  </producer>
  <tractor id="tractor40" global_feed="1" in="00:00:00.000" out="00:00:00.400">
    <property name="shotcut:transition">lumaMix</property>
    <track producer="producer47" in="00:08:02.400" out="00:08:02.800"/>
    <track producer="producer48" in="00:09:40.240" out="00:09:40.640"/>
    <transition id="transition80" out="00:00:00.400">
      <property name="a_track">0</property>
      <property name="b_track">1</property>
      <property name="factory">loader</property>
      <property name="mlt_service">luma</property>
      <property name="alpha_over">1</property>
    </transition>
    <transition id="transition81" out="00:00:00.400">
      <property name="a_track">0</property>
      <property name="b_track">1</property>
      <property name="mlt_service">mix</property>
      <property name="start">-1</property>
      <property name="accepts_blanks">1</property>
    </transition>
  </tractor>
  <producer id="producer49" in="00:00:00.000" out="00:25:00.440">
    <property name="length">00:25:00.480</property>
    <property name="eof">pause</property>
    <property name="resource">T:/video/para/sardinien_2020/18092020_littigheddu_long_1_20h/VIRB0111-2.MP4</property>
    <property name="audio_index">1</property>
    <property name="video_index">0</property>
    <property name="mute_on_pause">0</property>
    <property name="mlt_service">avformat-novalidate</property>
    <property name="seekable">1</property>
    <property name="aspect_ratio">1</property>
    <property name="creation_time">2020-09-18T16:51:09</property>
    <property name="global_feed">1</property>
    <property name="xml">was here</property>
    <property name="shotcut:hash">190d51b30e54f38f532714e004569afe</property>
    <property name="shotcut:caption">VIRB0111-2.MP4</property>
  </producer>
  <tractor id="tractor41" global_feed="1" in="00:00:00.000" out="00:00:00.520">
    <property name="shotcut:transition">lumaMix</property>
    <track producer="producer48" in="00:09:50.560" out="00:09:51.080"/>
    <track producer="producer49" in="00:11:14.200" out="00:11:14.720"/>
    <transition id="transition82" out="00:00:00.520">
      <property name="a_track">0</property>
      <property name="b_track">1</property>
      <property name="factory">loader</property>
      <property name="mlt_service">luma</property>
      <property name="alpha_over">1</property>
    </transition>
    <transition id="transition83" out="00:00:00.520">
      <property name="a_track">0</property>
      <property name="b_track">1</property>
      <property name="mlt_service">mix</property>
      <property name="start">-1</property>
      <property name="accepts_blanks">1</property>
    </transition>
  </tractor>
  <producer id="producer50" in="00:00:00.000" out="00:25:00.440">
    <property name="length">00:25:00.480</property>
    <property name="eof">pause</property>
    <property name="resource">T:/video/para/sardinien_2020/18092020_littigheddu_long_1_20h/VIRB0111-2.MP4</property>
    <property name="audio_index">1</property>
    <property name="video_index">0</property>
    <property name="mute_on_pause">0</property>
    <property name="mlt_service">avformat-novalidate</property>
    <property name="seekable">1</property>
    <property name="aspect_ratio">1</property>
    <property name="creation_time">2020-09-18T16:51:09</property>
    <property name="global_feed">1</property>
    <property name="xml">was here</property>
    <property name="shotcut:hash">190d51b30e54f38f532714e004569afe</property>
    <property name="shotcut:caption">VIRB0111-2.MP4</property>
    <filter id="filter16" in="00:11:30.120" out="00:11:33.400">
      <property name="argument">Gerti</property>
      <property name="geometry">80 896 1785 165 1</property>
      <property name="family">Verdana</property>
      <property name="size">1080</property>
      <property name="weight">500</property>
      <property name="style">normal</property>
      <property name="fgcolour">#e6e792</property>
      <property name="bgcolour">#00000000</property>
      <property name="olcolour">#aa000000</property>
      <property name="pad">0</property>
      <property name="halign">center</property>
      <property name="valign">top</property>
      <property name="outline">3</property>
      <property name="mlt_service">dynamictext</property>
      <property name="shotcut:filter">dynamicText</property>
      <property name="shotcut:usePointSize">0</property>
      <property name="shotcut:pointSize">60</property>
    </filter>
  </producer>
  <tractor id="tractor42" global_feed="1" in="00:00:00.000" out="00:00:00.480">
    <property name="shotcut:transition">lumaMix</property>
    <track producer="producer49" in="00:11:29.600" out="00:11:30.080"/>
    <track producer="producer50" in="00:11:30.120" out="00:11:30.600"/>
    <transition id="transition84" out="00:00:00.480">
      <property name="a_track">0</property>
      <property name="b_track">1</property>
      <property name="factory">loader</property>
      <property name="mlt_service">luma</property>
      <property name="alpha_over">1</property>
    </transition>
    <transition id="transition85" out="00:00:00.480">
      <property name="a_track">0</property>
      <property name="b_track">1</property>
      <property name="mlt_service">mix</property>
      <property name="start">-1</property>
      <property name="accepts_blanks">1</property>
    </transition>
  </tractor>
  <producer id="producer51" in="00:00:00.000" out="00:25:00.440">
    <property name="length">00:25:00.480</property>
    <property name="eof">pause</property>
    <property name="resource">T:/video/para/sardinien_2020/18092020_littigheddu_long_1_20h/VIRB0111-2.MP4</property>
    <property name="audio_index">1</property>
    <property name="video_index">0</property>
    <property name="mute_on_pause">0</property>
    <property name="mlt_service">avformat-novalidate</property>
    <property name="seekable">1</property>
    <property name="aspect_ratio">1</property>
    <property name="creation_time">2020-09-18T16:51:09</property>
    <property name="global_feed">1</property>
    <property name="xml">was here</property>
    <property name="shotcut:hash">190d51b30e54f38f532714e004569afe</property>
    <property name="shotcut:caption">VIRB0111-2.MP4</property>
    <filter id="filter17" in="00:12:18.760" out="00:12:20.120">
      <property name="argument">Ludka</property>
      <property name="geometry">80 966 1767 95 1</property>
      <property name="family">Verdana</property>
      <property name="size">1080</property>
      <property name="weight">500</property>
      <property name="style">normal</property>
      <property name="fgcolour">#e6e792</property>
      <property name="bgcolour">#00000000</property>
      <property name="olcolour">#aa000000</property>
      <property name="pad">0</property>
      <property name="halign">center</property>
      <property name="valign">top</property>
      <property name="outline">3</property>
      <property name="mlt_service">dynamictext</property>
      <property name="shotcut:filter">dynamicText</property>
      <property name="shotcut:usePointSize">0</property>
      <property name="shotcut:pointSize">60</property>
      <property name="shotcut:animIn">00:00:00.000</property>
      <property name="shotcut:animOut">00:00:00.000</property>
    </filter>
  </producer>
  <tractor id="tractor43" global_feed="1" in="00:00:00.000" out="00:00:00.280">
    <property name="shotcut:transition">lumaMix</property>
    <track producer="producer50" in="00:12:18.440" out="00:12:18.720"/>
    <track producer="producer51" in="00:12:18.760" out="00:12:19.040"/>
    <transition id="transition86" out="00:00:00.280">
      <property name="a_track">0</property>
      <property name="b_track">1</property>
      <property name="factory">loader</property>
      <property name="mlt_service">luma</property>
      <property name="alpha_over">1</property>
    </transition>
    <transition id="transition87" out="00:00:00.280">
      <property name="a_track">0</property>
      <property name="b_track">1</property>
      <property name="mlt_service">mix</property>
      <property name="start">-1</property>
      <property name="accepts_blanks">1</property>
    </transition>
  </tractor>
  <producer id="producer52" in="00:00:00.000" out="00:25:00.440">
    <property name="length">00:25:00.480</property>
    <property name="eof">pause</property>
    <property name="resource">T:/video/para/sardinien_2020/18092020_littigheddu_long_1_20h/VIRB0111-2.MP4</property>
    <property name="audio_index">1</property>
    <property name="video_index">0</property>
    <property name="mute_on_pause">0</property>
    <property name="mlt_service">avformat-novalidate</property>
    <property name="seekable">1</property>
    <property name="aspect_ratio">1</property>
    <property name="creation_time">2020-09-18T16:51:09</property>
    <property name="global_feed">1</property>
    <property name="xml">was here</property>
    <property name="shotcut:hash">190d51b30e54f38f532714e004569afe</property>
    <property name="shotcut:caption">VIRB0111-2.MP4</property>
  </producer>
  <tractor id="tractor44" global_feed="1" in="00:00:00.000" out="00:00:00.240">
    <property name="shotcut:transition">lumaMix</property>
    <track producer="producer51" in="00:12:19.880" out="00:12:20.120"/>
    <track producer="producer52" in="00:12:20.160" out="00:12:20.400"/>
    <transition id="transition88" out="00:00:00.240">
      <property name="a_track">0</property>
      <property name="b_track">1</property>
      <property name="factory">loader</property>
      <property name="mlt_service">luma</property>
      <property name="alpha_over">1</property>
    </transition>
    <transition id="transition89" out="00:00:00.240">
      <property name="a_track">0</property>
      <property name="b_track">1</property>
      <property name="mlt_service">mix</property>
      <property name="start">-1</property>
      <property name="accepts_blanks">1</property>
    </transition>
  </tractor>
  <producer id="producer53" in="00:00:00.000" out="00:25:00.440">
    <property name="length">00:25:00.480</property>
    <property name="eof">pause</property>
    <property name="resource">T:/video/para/sardinien_2020/18092020_littigheddu_long_1_20h/VIRB0111-2.MP4</property>
    <property name="audio_index">1</property>
    <property name="video_index">0</property>
    <property name="mute_on_pause">0</property>
    <property name="mlt_service">avformat-novalidate</property>
    <property name="seekable">1</property>
    <property name="aspect_ratio">1</property>
    <property name="creation_time">2020-09-18T16:51:09</property>
    <property name="global_feed">1</property>
    <property name="xml">was here</property>
    <property name="shotcut:hash">190d51b30e54f38f532714e004569afe</property>
    <property name="shotcut:caption">VIRB0111-2.MP4</property>
  </producer>
  <tractor id="tractor45" global_feed="1" in="00:00:00.000" out="00:00:00.400">
    <property name="shotcut:transition">lumaMix</property>
    <track producer="producer52" in="00:12:27.080" out="00:12:27.480"/>
    <track producer="producer53" in="00:16:07.720" out="00:16:08.120"/>
    <transition id="transition90" out="00:00:00.400">
      <property name="a_track">0</property>
      <property name="b_track">1</property>
      <property name="factory">loader</property>
      <property name="mlt_service">luma</property>
      <property name="alpha_over">1</property>
    </transition>
    <transition id="transition91" out="00:00:00.400">
      <property name="a_track">0</property>
      <property name="b_track">1</property>
      <property name="mlt_service">mix</property>
      <property name="start">-1</property>
      <property name="accepts_blanks">1</property>
    </transition>
  </tractor>
  <producer id="producer54" in="00:00:00.000" out="00:25:00.440">
    <property name="length">00:25:00.480</property>
    <property name="eof">pause</property>
    <property name="resource">T:/video/para/sardinien_2020/18092020_littigheddu_long_1_20h/VIRB0111-2.MP4</property>
    <property name="audio_index">1</property>
    <property name="video_index">0</property>
    <property name="mute_on_pause">0</property>
    <property name="mlt_service">avformat-novalidate</property>
    <property name="seekable">1</property>
    <property name="aspect_ratio">1</property>
    <property name="creation_time">2020-09-18T16:51:09</property>
    <property name="global_feed">1</property>
    <property name="xml">was here</property>
    <property name="shotcut:hash">190d51b30e54f38f532714e004569afe</property>
    <property name="shotcut:caption">VIRB0111-2.MP4</property>
    <filter id="filter18" in="00:16:32.760" out="00:16:36.360">
      <property name="argument">Gerti</property>
      <property name="geometry">80 966 1767 95 1</property>
      <property name="family">Verdana</property>
      <property name="size">1080</property>
      <property name="weight">500</property>
      <property name="style">normal</property>
      <property name="fgcolour">#e6e792</property>
      <property name="bgcolour">#00000000</property>
      <property name="olcolour">#aa000000</property>
      <property name="pad">0</property>
      <property name="halign">center</property>
      <property name="valign">top</property>
      <property name="outline">3</property>
      <property name="mlt_service">dynamictext</property>
      <property name="shotcut:filter">dynamicText</property>
      <property name="shotcut:usePointSize">0</property>
      <property name="shotcut:pointSize">60</property>
      <property name="shotcut:animIn">00:00:00.000</property>
      <property name="shotcut:animOut">00:00:00.000</property>
    </filter>
  </producer>
  <tractor id="tractor46" global_feed="1" in="00:00:00.000" out="00:00:00.680">
    <property name="shotcut:transition">lumaMix</property>
    <track producer="producer53" in="00:16:32.040" out="00:16:32.720"/>
    <track producer="producer54" in="00:16:32.760" out="00:16:33.440"/>
    <transition id="transition92" out="00:00:00.680">
      <property name="a_track">0</property>
      <property name="b_track">1</property>
      <property name="factory">loader</property>
      <property name="mlt_service">luma</property>
      <property name="alpha_over">1</property>
    </transition>
    <transition id="transition93" out="00:00:00.680">
      <property name="a_track">0</property>
      <property name="b_track">1</property>
      <property name="mlt_service">mix</property>
      <property name="start">-1</property>
      <property name="accepts_blanks">1</property>
    </transition>
  </tractor>
  <producer id="producer55" in="00:00:00.000" out="00:25:00.440">
    <property name="length">00:25:00.480</property>
    <property name="eof">pause</property>
    <property name="resource">T:/video/para/sardinien_2020/18092020_littigheddu_long_1_20h/VIRB0111-2.MP4</property>
    <property name="audio_index">1</property>
    <property name="video_index">0</property>
    <property name="mute_on_pause">0</property>
    <property name="mlt_service">avformat-novalidate</property>
    <property name="seekable">1</property>
    <property name="aspect_ratio">1</property>
    <property name="creation_time">2020-09-18T16:51:09</property>
    <property name="global_feed">1</property>
    <property name="xml">was here</property>
    <property name="shotcut:hash">190d51b30e54f38f532714e004569afe</property>
    <property name="shotcut:caption">VIRB0111-2.MP4</property>
    <filter id="filter19" in="00:16:36.400" out="00:16:42.920">
      <property name="argument">Gerti</property>
      <property name="geometry">80 966 1767 95 1</property>
      <property name="family">Verdana</property>
      <property name="size">1080</property>
      <property name="weight">500</property>
      <property name="style">normal</property>
      <property name="fgcolour">#e6e792</property>
      <property name="bgcolour">#00000000</property>
      <property name="olcolour">#aa000000</property>
      <property name="pad">0</property>
      <property name="halign">center</property>
      <property name="valign">top</property>
      <property name="outline">3</property>
      <property name="mlt_service">dynamictext</property>
      <property name="shotcut:filter">dynamicText</property>
      <property name="shotcut:usePointSize">0</property>
      <property name="shotcut:pointSize">60</property>
      <property name="shotcut:animIn">00:00:00.000</property>
      <property name="shotcut:animOut">00:00:00.000</property>
    </filter>
  </producer>
  <tractor id="tractor47" global_feed="1" in="00:00:00.000" out="00:00:00.760">
    <property name="shotcut:transition">lumaMix</property>
    <track producer="producer54" in="00:16:35.600" out="00:16:36.360"/>
    <track producer="producer55" in="00:16:36.400" out="00:16:37.160"/>
    <transition id="transition94" out="00:00:00.760">
      <property name="a_track">0</property>
      <property name="b_track">1</property>
      <property name="factory">loader</property>
      <property name="mlt_service">luma</property>
      <property name="alpha_over">1</property>
    </transition>
    <transition id="transition95" out="00:00:00.760">
      <property name="a_track">0</property>
      <property name="b_track">1</property>
      <property name="mlt_service">mix</property>
      <property name="start">-1</property>
      <property name="accepts_blanks">1</property>
    </transition>
  </tractor>
  <producer id="producer56" in="00:00:00.000" out="00:25:00.440">
    <property name="length">00:25:00.480</property>
    <property name="eof">pause</property>
    <property name="resource">T:/video/para/sardinien_2020/18092020_littigheddu_long_1_20h/VIRB0111-2.MP4</property>
    <property name="audio_index">1</property>
    <property name="video_index">0</property>
    <property name="mute_on_pause">0</property>
    <property name="mlt_service">avformat-novalidate</property>
    <property name="seekable">1</property>
    <property name="aspect_ratio">1</property>
    <property name="creation_time">2020-09-18T16:51:09</property>
    <property name="global_feed">1</property>
    <property name="xml">was here</property>
    <property name="shotcut:hash">190d51b30e54f38f532714e004569afe</property>
    <property name="shotcut:caption">VIRB0111-2.MP4</property>
  </producer>
  <tractor id="tractor48" global_feed="1" in="00:00:00.000" out="00:00:00.800">
    <property name="shotcut:transition">lumaMix</property>
    <track producer="producer55" in="00:16:42.120" out="00:16:42.920"/>
    <track producer="producer56" in="00:20:12.640" out="00:20:13.440"/>
    <transition id="transition96" out="00:00:00.800">
      <property name="a_track">0</property>
      <property name="b_track">1</property>
      <property name="factory">loader</property>
      <property name="mlt_service">luma</property>
      <property name="alpha_over">1</property>
    </transition>
    <transition id="transition97" out="00:00:00.800">
      <property name="a_track">0</property>
      <property name="b_track">1</property>
      <property name="mlt_service">mix</property>
      <property name="start">-1</property>
      <property name="accepts_blanks">1</property>
    </transition>
  </tractor>
  <producer id="producer57" in="00:00:00.000" out="00:25:00.440">
    <property name="length">00:25:00.480</property>
    <property name="eof">pause</property>
    <property name="resource">T:/video/para/sardinien_2020/18092020_littigheddu_long_1_20h/VIRB0111-2.MP4</property>
    <property name="audio_index">1</property>
    <property name="video_index">0</property>
    <property name="mute_on_pause">0</property>
    <property name="mlt_service">avformat-novalidate</property>
    <property name="seekable">1</property>
    <property name="aspect_ratio">1</property>
    <property name="creation_time">2020-09-18T16:51:09</property>
    <property name="global_feed">1</property>
    <property name="xml">was here</property>
    <property name="shotcut:hash">190d51b30e54f38f532714e004569afe</property>
    <property name="shotcut:caption">VIRB0111-2.MP4</property>
  </producer>
  <tractor id="tractor49" global_feed="1" in="00:00:00.000" out="00:00:00.600">
    <property name="shotcut:transition">lumaMix</property>
    <track producer="producer56" in="00:20:59.680" out="00:21:00.280"/>
    <track producer="producer57" in="00:21:00.320" out="00:21:00.920"/>
    <transition id="transition98" out="00:00:00.600">
      <property name="a_track">0</property>
      <property name="b_track">1</property>
      <property name="factory">loader</property>
      <property name="mlt_service">luma</property>
      <property name="alpha_over">1</property>
    </transition>
    <transition id="transition99" out="00:00:00.600">
      <property name="a_track">0</property>
      <property name="b_track">1</property>
      <property name="mlt_service">mix</property>
      <property name="start">-1</property>
      <property name="accepts_blanks">1</property>
    </transition>
  </tractor>
  <producer id="producer58" in="00:00:00.000" out="00:25:00.440">
    <property name="length">00:25:00.480</property>
    <property name="eof">pause</property>
    <property name="resource">T:/video/para/sardinien_2020/18092020_littigheddu_long_1_20h/VIRB0111-2.MP4</property>
    <property name="audio_index">1</property>
    <property name="video_index">0</property>
    <property name="mute_on_pause">0</property>
    <property name="mlt_service">avformat-novalidate</property>
    <property name="seekable">1</property>
    <property name="aspect_ratio">1</property>
    <property name="creation_time">2020-09-18T16:51:09</property>
    <property name="global_feed">1</property>
    <property name="xml">was here</property>
    <property name="shotcut:hash">190d51b30e54f38f532714e004569afe</property>
    <property name="shotcut:caption">VIRB0111-2.MP4</property>
  </producer>
  <tractor id="tractor50" global_feed="1" in="00:00:00.000" out="00:00:00.600">
    <property name="shotcut:transition">lumaMix</property>
    <track producer="producer57" in="00:21:09.720" out="00:21:10.320"/>
    <track producer="producer58" in="00:21:10.360" out="00:21:10.960"/>
    <transition id="transition100" out="00:00:00.600">
      <property name="a_track">0</property>
      <property name="b_track">1</property>
      <property name="factory">loader</property>
      <property name="mlt_service">luma</property>
      <property name="alpha_over">1</property>
    </transition>
    <transition id="transition101" out="00:00:00.600">
      <property name="a_track">0</property>
      <property name="b_track">1</property>
      <property name="mlt_service">mix</property>
      <property name="start">-1</property>
      <property name="accepts_blanks">1</property>
    </transition>
  </tractor>
  <producer id="producer59" in="00:00:00.000" out="00:25:00.440">
    <property name="length">00:25:00.480</property>
    <property name="eof">pause</property>
    <property name="resource">T:/video/para/sardinien_2020/18092020_littigheddu_long_1_20h/VIRB0111-2.MP4</property>
    <property name="audio_index">1</property>
    <property name="video_index">0</property>
    <property name="mute_on_pause">0</property>
    <property name="mlt_service">avformat-novalidate</property>
    <property name="seekable">1</property>
    <property name="aspect_ratio">1</property>
    <property name="creation_time">2020-09-18T16:51:09</property>
    <property name="global_feed">1</property>
    <property name="xml">was here</property>
    <property name="shotcut:hash">190d51b30e54f38f532714e004569afe</property>
    <property name="shotcut:caption">VIRB0111-2.MP4</property>
  </producer>
  <tractor id="tractor51" global_feed="1" in="00:00:00.000" out="00:00:00.680">
    <property name="shotcut:transition">lumaMix</property>
    <track producer="producer58" in="00:21:22.320" out="00:21:23.000"/>
    <track producer="producer59" in="00:21:23.040" out="00:21:23.720"/>
    <transition id="transition102" out="00:00:00.680">
      <property name="a_track">0</property>
      <property name="b_track">1</property>
      <property name="factory">loader</property>
      <property name="mlt_service">luma</property>
      <property name="alpha_over">1</property>
    </transition>
    <transition id="transition103" out="00:00:00.680">
      <property name="a_track">0</property>
      <property name="b_track">1</property>
      <property name="mlt_service">mix</property>
      <property name="start">-1</property>
      <property name="accepts_blanks">1</property>
    </transition>
  </tractor>
  <producer id="producer60" in="00:00:00.000" out="00:25:00.440">
    <property name="length">00:25:00.480</property>
    <property name="eof">pause</property>
    <property name="resource">T:/video/para/sardinien_2020/18092020_littigheddu_long_1_20h/VIRB0111-3.MP4</property>
    <property name="audio_index">1</property>
    <property name="video_index">0</property>
    <property name="mute_on_pause">0</property>
    <property name="mlt_service">avformat-novalidate</property>
    <property name="seekable">1</property>
    <property name="aspect_ratio">1</property>
    <property name="creation_time">2020-09-18T17:16:09</property>
    <property name="global_feed">1</property>
    <property name="xml">was here</property>
    <property name="shotcut:hash">4ee57e8faaa6cc87aee3961f8ee582bb</property>
    <property name="shotcut:caption">VIRB0111-3.MP4</property>
  </producer>
  <tractor id="tractor52" global_feed="1" in="00:00:00.000" out="00:00:00.680">
    <property name="shotcut:transition">lumaMix</property>
    <track producer="producer59" in="00:21:35.400" out="00:21:36.080"/>
    <track producer="producer60" in="00:00:00.000" out="00:00:00.680"/>
    <transition id="transition104" out="00:00:00.680">
      <property name="a_track">0</property>
      <property name="b_track">1</property>
      <property name="factory">loader</property>
      <property name="mlt_service">luma</property>
      <property name="alpha_over">1</property>
    </transition>
    <transition id="transition105" out="00:00:00.680">
      <property name="a_track">0</property>
      <property name="b_track">1</property>
      <property name="mlt_service">mix</property>
      <property name="start">-1</property>
      <property name="accepts_blanks">1</property>
    </transition>
  </tractor>
  <producer id="producer61" in="00:00:00.000" out="00:25:00.440">
    <property name="length">00:25:00.480</property>
    <property name="eof">pause</property>
    <property name="resource">T:/video/para/sardinien_2020/18092020_littigheddu_long_1_20h/VIRB0111-3.MP4</property>
    <property name="audio_index">1</property>
    <property name="video_index">0</property>
    <property name="mute_on_pause">0</property>
    <property name="mlt_service">avformat-novalidate</property>
    <property name="seekable">1</property>
    <property name="aspect_ratio">1</property>
    <property name="creation_time">2020-09-18T17:16:09</property>
    <property name="global_feed">1</property>
    <property name="xml">was here</property>
    <property name="shotcut:hash">4ee57e8faaa6cc87aee3961f8ee582bb</property>
    <property name="shotcut:caption">VIRB0111-3.MP4</property>
  </producer>
  <tractor id="tractor53" global_feed="1" in="00:00:00.000" out="00:00:00.440">
    <property name="shotcut:transition">lumaMix</property>
    <track producer="producer60" in="00:00:11.120" out="00:00:11.560"/>
    <track producer="producer61" in="00:00:11.600" out="00:00:12.040"/>
    <transition id="transition106" out="00:00:00.440">
      <property name="a_track">0</property>
      <property name="b_track">1</property>
      <property name="factory">loader</property>
      <property name="mlt_service">luma</property>
      <property name="alpha_over">1</property>
    </transition>
    <transition id="transition107" out="00:00:00.440">
      <property name="a_track">0</property>
      <property name="b_track">1</property>
      <property name="mlt_service">mix</property>
      <property name="start">-1</property>
      <property name="accepts_blanks">1</property>
    </transition>
  </tractor>
  <producer id="producer62" in="00:00:00.000" out="00:25:00.440">
    <property name="length">00:25:00.480</property>
    <property name="eof">pause</property>
    <property name="resource">T:/video/para/sardinien_2020/18092020_littigheddu_long_1_20h/VIRB0111-3.MP4</property>
    <property name="audio_index">1</property>
    <property name="video_index">0</property>
    <property name="mute_on_pause">0</property>
    <property name="mlt_service">avformat-novalidate</property>
    <property name="seekable">1</property>
    <property name="aspect_ratio">1</property>
    <property name="creation_time">2020-09-18T17:16:09</property>
    <property name="global_feed">1</property>
    <property name="xml">was here</property>
    <property name="shotcut:hash">4ee57e8faaa6cc87aee3961f8ee582bb</property>
    <property name="shotcut:caption">VIRB0111-3.MP4</property>
  </producer>
  <tractor id="tractor54" global_feed="1" in="00:00:00.000" out="00:00:00.520">
    <property name="shotcut:transition">lumaMix</property>
    <track producer="producer61" in="00:00:14.280" out="00:00:14.800"/>
    <track producer="producer62" in="00:00:14.840" out="00:00:15.360"/>
    <transition id="transition108" out="00:00:00.520">
      <property name="a_track">0</property>
      <property name="b_track">1</property>
      <property name="factory">loader</property>
      <property name="mlt_service">luma</property>
      <property name="alpha_over">1</property>
    </transition>
    <transition id="transition109" out="00:00:00.520">
      <property name="a_track">0</property>
      <property name="b_track">1</property>
      <property name="mlt_service">mix</property>
      <property name="start">-1</property>
      <property name="accepts_blanks">1</property>
    </transition>
  </tractor>
  <producer id="producer63" in="00:00:00.000" out="00:25:00.440">
    <property name="length">00:25:00.480</property>
    <property name="eof">pause</property>
    <property name="resource">T:/video/para/sardinien_2020/18092020_littigheddu_long_1_20h/VIRB0111-3.MP4</property>
    <property name="audio_index">1</property>
    <property name="video_index">0</property>
    <property name="mute_on_pause">0</property>
    <property name="mlt_service">avformat-novalidate</property>
    <property name="seekable">1</property>
    <property name="aspect_ratio">1</property>
    <property name="creation_time">2020-09-18T17:16:09</property>
    <property name="global_feed">1</property>
    <property name="xml">was here</property>
    <property name="shotcut:hash">4ee57e8faaa6cc87aee3961f8ee582bb</property>
    <property name="shotcut:caption">VIRB0111-3.MP4</property>
  </producer>
  <tractor id="tractor55" global_feed="1" in="00:00:00.000" out="00:00:00.680">
    <property name="shotcut:transition">lumaMix</property>
    <track producer="producer62" in="00:00:21.560" out="00:00:22.240"/>
    <track producer="producer63" in="00:00:58.320" out="00:00:59.000"/>
    <transition id="transition110" out="00:00:00.680">
      <property name="a_track">0</property>
      <property name="b_track">1</property>
      <property name="factory">loader</property>
      <property name="mlt_service">luma</property>
      <property name="alpha_over">1</property>
    </transition>
    <transition id="transition111" out="00:00:00.680">
      <property name="a_track">0</property>
      <property name="b_track">1</property>
      <property name="mlt_service">mix</property>
      <property name="start">-1</property>
      <property name="accepts_blanks">1</property>
    </transition>
  </tractor>
  <producer id="producer64" in="00:00:00.000" out="00:25:00.440">
    <property name="length">00:25:00.480</property>
    <property name="eof">pause</property>
    <property name="resource">T:/video/para/sardinien_2020/18092020_littigheddu_long_1_20h/VIRB0111-3.MP4</property>
    <property name="audio_index">1</property>
    <property name="video_index">0</property>
    <property name="mute_on_pause">0</property>
    <property name="mlt_service">avformat-novalidate</property>
    <property name="seekable">1</property>
    <property name="aspect_ratio">1</property>
    <property name="creation_time">2020-09-18T17:16:09</property>
    <property name="global_feed">1</property>
    <property name="xml">was here</property>
    <property name="shotcut:hash">4ee57e8faaa6cc87aee3961f8ee582bb</property>
    <property name="shotcut:caption">VIRB0111-3.MP4</property>
    <filter id="filter20" in="00:01:58.640" out="00:02:19.720">
      <property name="argument">Mal sehen, ob ich hier wieder hochkomme ...</property>
      <property name="geometry">87 977 1760 84 1</property>
      <property name="family">Verdana</property>
      <property name="size">1080</property>
      <property name="weight">500</property>
      <property name="style">normal</property>
      <property name="fgcolour">#ffffff</property>
      <property name="bgcolour">#00000000</property>
      <property name="olcolour">#aa000000</property>
      <property name="pad">0</property>
      <property name="halign">center</property>
      <property name="valign">top</property>
      <property name="outline">3</property>
      <property name="mlt_service">dynamictext</property>
      <property name="shotcut:filter">dynamicText</property>
      <property name="shotcut:usePointSize">0</property>
      <property name="shotcut:pointSize">60</property>
    </filter>
  </producer>
  <tractor id="tractor56" global_feed="1" in="00:00:00.000" out="00:00:01.240">
    <property name="shotcut:transition">lumaMix</property>
    <track producer="producer63" in="00:01:02.320" out="00:01:03.560"/>
    <track producer="producer64" in="00:01:58.640" out="00:01:59.880"/>
    <transition id="transition112" out="00:00:01.240">
      <property name="a_track">0</property>
      <property name="b_track">1</property>
      <property name="factory">loader</property>
      <property name="mlt_service">luma</property>
      <property name="alpha_over">1</property>
    </transition>
    <transition id="transition113" out="00:00:01.240">
      <property name="a_track">0</property>
      <property name="b_track">1</property>
      <property name="mlt_service">mix</property>
      <property name="start">-1</property>
      <property name="accepts_blanks">1</property>
    </transition>
  </tractor>
  <producer id="producer65" in="00:00:00.000" out="00:25:00.440">
    <property name="length">00:25:00.480</property>
    <property name="eof">pause</property>
    <property name="resource">T:/video/para/sardinien_2020/18092020_littigheddu_long_1_20h/VIRB0111-3.MP4</property>
    <property name="audio_index">1</property>
    <property name="video_index">0</property>
    <property name="mute_on_pause">0</property>
    <property name="mlt_service">avformat-novalidate</property>
    <property name="seekable">1</property>
    <property name="aspect_ratio">1</property>
    <property name="creation_time">2020-09-18T17:16:09</property>
    <property name="global_feed">1</property>
    <property name="xml">was here</property>
    <property name="shotcut:hash">4ee57e8faaa6cc87aee3961f8ee582bb</property>
    <property name="shotcut:caption">VIRB0111-3.MP4</property>
  </producer>
  <tractor id="tractor57" global_feed="1" in="00:00:00.000" out="00:00:00.720">
    <property name="shotcut:transition">lumaMix</property>
    <track producer="producer64" in="00:02:19.000" out="00:02:19.720"/>
    <track producer="producer65" in="00:05:32.120" out="00:05:32.840"/>
    <transition id="transition114" out="00:00:00.720">
      <property name="a_track">0</property>
      <property name="b_track">1</property>
      <property name="factory">loader</property>
      <property name="mlt_service">luma</property>
      <property name="alpha_over">1</property>
    </transition>
    <transition id="transition115" out="00:00:00.720">
      <property name="a_track">0</property>
      <property name="b_track">1</property>
      <property name="mlt_service">mix</property>
      <property name="start">-1</property>
      <property name="accepts_blanks">1</property>
    </transition>
  </tractor>
  <producer id="producer66" in="00:00:00.000" out="00:25:00.440">
    <property name="length">00:25:00.480</property>
    <property name="eof">pause</property>
    <property name="resource">T:/video/para/sardinien_2020/18092020_littigheddu_long_1_20h/VIRB0111-3.MP4</property>
    <property name="audio_index">1</property>
    <property name="video_index">0</property>
    <property name="mute_on_pause">0</property>
    <property name="mlt_service">avformat-novalidate</property>
    <property name="seekable">1</property>
    <property name="aspect_ratio">1</property>
    <property name="creation_time">2020-09-18T17:16:09</property>
    <property name="global_feed">1</property>
    <property name="xml">was here</property>
    <property name="shotcut:hash">4ee57e8faaa6cc87aee3961f8ee582bb</property>
    <property name="shotcut:caption">VIRB0111-3.MP4</property>
  </producer>
  <tractor id="tractor58" global_feed="1" in="00:00:00.000" out="00:00:00.560">
    <property name="shotcut:transition">lumaMix</property>
    <track producer="producer65" in="00:05:36.280" out="00:05:36.840"/>
    <track producer="producer66" in="00:05:36.880" out="00:05:37.440"/>
    <transition id="transition116" out="00:00:00.560">
      <property name="a_track">0</property>
      <property name="b_track">1</property>
      <property name="factory">loader</property>
      <property name="mlt_service">luma</property>
      <property name="alpha_over">1</property>
    </transition>
    <transition id="transition117" out="00:00:00.560">
      <property name="a_track">0</property>
      <property name="b_track">1</property>
      <property name="mlt_service">mix</property>
      <property name="start">-1</property>
      <property name="accepts_blanks">1</property>
    </transition>
  </tractor>
  <producer id="producer67" in="00:00:00.000" out="00:25:00.440">
    <property name="length">00:25:00.480</property>
    <property name="eof">pause</property>
    <property name="resource">T:/video/para/sardinien_2020/18092020_littigheddu_long_1_20h/VIRB0111-3.MP4</property>
    <property name="audio_index">1</property>
    <property name="video_index">0</property>
    <property name="mute_on_pause">0</property>
    <property name="mlt_service">avformat-novalidate</property>
    <property name="seekable">1</property>
    <property name="aspect_ratio">1</property>
    <property name="creation_time">2020-09-18T17:16:09</property>
    <property name="global_feed">1</property>
    <property name="xml">was here</property>
    <property name="shotcut:hash">4ee57e8faaa6cc87aee3961f8ee582bb</property>
    <property name="shotcut:caption">VIRB0111-3.MP4</property>
  </producer>
  <tractor id="tractor59" global_feed="1" in="00:00:00.000" out="00:00:00.560">
    <property name="shotcut:transition">lumaMix</property>
    <track producer="producer66" in="00:05:42.920" out="00:05:43.480"/>
    <track producer="producer67" in="00:05:52.520" out="00:05:53.080"/>
    <transition id="transition118" out="00:00:00.560">
      <property name="a_track">0</property>
      <property name="b_track">1</property>
      <property name="factory">loader</property>
      <property name="mlt_service">luma</property>
      <property name="alpha_over">1</property>
    </transition>
    <transition id="transition119" out="00:00:00.560">
      <property name="a_track">0</property>
      <property name="b_track">1</property>
      <property name="mlt_service">mix</property>
      <property name="start">-1</property>
      <property name="accepts_blanks">1</property>
    </transition>
  </tractor>
  <producer id="producer68" in="00:00:00.000" out="00:25:00.440">
    <property name="length">00:25:00.480</property>
    <property name="eof">pause</property>
    <property name="resource">T:/video/para/sardinien_2020/18092020_littigheddu_long_1_20h/VIRB0111-3.MP4</property>
    <property name="audio_index">1</property>
    <property name="video_index">0</property>
    <property name="mute_on_pause">0</property>
    <property name="mlt_service">avformat-novalidate</property>
    <property name="seekable">1</property>
    <property name="aspect_ratio">1</property>
    <property name="creation_time">2020-09-18T17:16:09</property>
    <property name="global_feed">1</property>
    <property name="xml">was here</property>
    <property name="shotcut:hash">4ee57e8faaa6cc87aee3961f8ee582bb</property>
    <property name="shotcut:caption">VIRB0111-3.MP4</property>
  </producer>
  <tractor id="tractor60" global_feed="1" in="00:00:00.000" out="00:00:00.400">
    <property name="shotcut:transition">lumaMix</property>
    <track producer="producer67" in="00:05:54.320" out="00:05:54.720"/>
    <track producer="producer68" in="00:06:24.920" out="00:06:25.320"/>
    <transition id="transition120" out="00:00:00.400">
      <property name="a_track">0</property>
      <property name="b_track">1</property>
      <property name="factory">loader</property>
      <property name="mlt_service">luma</property>
      <property name="alpha_over">1</property>
    </transition>
    <transition id="transition121" out="00:00:00.400">
      <property name="a_track">0</property>
      <property name="b_track">1</property>
      <property name="mlt_service">mix</property>
      <property name="start">-1</property>
      <property name="accepts_blanks">1</property>
    </transition>
  </tractor>
  <producer id="producer69" in="00:00:00.000" out="00:25:00.440">
    <property name="length">00:25:00.480</property>
    <property name="eof">pause</property>
    <property name="resource">T:/video/para/sardinien_2020/18092020_littigheddu_long_1_20h/VIRB0111-3.MP4</property>
    <property name="audio_index">1</property>
    <property name="video_index">0</property>
    <property name="mute_on_pause">0</property>
    <property name="mlt_service">avformat-novalidate</property>
    <property name="seekable">1</property>
    <property name="aspect_ratio">1</property>
    <property name="creation_time">2020-09-18T17:16:09</property>
    <property name="global_feed">1</property>
    <property name="xml">was here</property>
    <property name="shotcut:hash">4ee57e8faaa6cc87aee3961f8ee582bb</property>
    <property name="shotcut:caption">VIRB0111-3.MP4</property>
  </producer>
  <tractor id="tractor61" global_feed="1" in="00:00:00.000" out="00:00:00.440">
    <property name="shotcut:transition">lumaMix</property>
    <track producer="producer68" in="00:06:26.400" out="00:06:26.840"/>
    <track producer="producer69" in="00:06:43.800" out="00:06:44.240"/>
    <transition id="transition122" out="00:00:00.440">
      <property name="a_track">0</property>
      <property name="b_track">1</property>
      <property name="factory">loader</property>
      <property name="mlt_service">luma</property>
      <property name="alpha_over">1</property>
    </transition>
    <transition id="transition123" out="00:00:00.440">
      <property name="a_track">0</property>
      <property name="b_track">1</property>
      <property name="mlt_service">mix</property>
      <property name="start">-1</property>
      <property name="accepts_blanks">1</property>
    </transition>
  </tractor>
  <producer id="producer70" in="00:00:00.000" out="00:25:00.440">
    <property name="length">00:25:00.480</property>
    <property name="eof">pause</property>
    <property name="resource">T:/video/para/sardinien_2020/18092020_littigheddu_long_1_20h/VIRB0111-3.MP4</property>
    <property name="audio_index">1</property>
    <property name="video_index">0</property>
    <property name="mute_on_pause">0</property>
    <property name="mlt_service">avformat-novalidate</property>
    <property name="seekable">1</property>
    <property name="aspect_ratio">1</property>
    <property name="creation_time">2020-09-18T17:16:09</property>
    <property name="global_feed">1</property>
    <property name="xml">was here</property>
    <property name="shotcut:hash">4ee57e8faaa6cc87aee3961f8ee582bb</property>
    <property name="shotcut:caption">VIRB0111-3.MP4</property>
    <filter id="filter21" in="00:06:51.920" out="00:07:05.600">
      <property name="argument">Geht doch!</property>
      <property name="geometry">87 977 1760 84 1</property>
      <property name="family">Verdana</property>
      <property name="size">1080</property>
      <property name="weight">500</property>
      <property name="style">normal</property>
      <property name="fgcolour">#ffffff</property>
      <property name="bgcolour">#00000000</property>
      <property name="olcolour">#aa000000</property>
      <property name="pad">0</property>
      <property name="halign">center</property>
      <property name="valign">top</property>
      <property name="outline">3</property>
      <property name="mlt_service">dynamictext</property>
      <property name="shotcut:filter">dynamicText</property>
      <property name="shotcut:usePointSize">0</property>
      <property name="shotcut:pointSize">60</property>
    </filter>
  </producer>
  <tractor id="tractor62" global_feed="1" in="00:00:00.000" out="00:00:00.480">
    <property name="shotcut:transition">lumaMix</property>
    <track producer="producer69" in="00:06:45.200" out="00:06:45.680"/>
    <track producer="producer70" in="00:06:51.920" out="00:06:52.400"/>
    <transition id="transition124" out="00:00:00.480">
      <property name="a_track">0</property>
      <property name="b_track">1</property>
      <property name="factory">loader</property>
      <property name="mlt_service">luma</property>
      <property name="alpha_over">1</property>
    </transition>
    <transition id="transition125" out="00:00:00.480">
      <property name="a_track">0</property>
      <property name="b_track">1</property>
      <property name="mlt_service">mix</property>
      <property name="start">-1</property>
      <property name="accepts_blanks">1</property>
    </transition>
  </tractor>
  <producer id="producer71" in="00:00:00.000" out="00:25:00.440">
    <property name="length">00:25:00.480</property>
    <property name="eof">pause</property>
    <property name="resource">T:/video/para/sardinien_2020/18092020_littigheddu_long_1_20h/VIRB0111-3.MP4</property>
    <property name="audio_index">1</property>
    <property name="video_index">0</property>
    <property name="mute_on_pause">0</property>
    <property name="mlt_service">avformat-novalidate</property>
    <property name="seekable">1</property>
    <property name="aspect_ratio">1</property>
    <property name="creation_time">2020-09-18T17:16:09</property>
    <property name="global_feed">1</property>
    <property name="xml">was here</property>
    <property name="shotcut:hash">4ee57e8faaa6cc87aee3961f8ee582bb</property>
    <property name="shotcut:caption">VIRB0111-3.MP4</property>
  </producer>
  <tractor id="tractor63" global_feed="1" in="00:00:00.000" out="00:00:00.760">
    <property name="shotcut:transition">lumaMix</property>
    <track producer="producer70" in="00:07:04.840" out="00:07:05.600"/>
    <track producer="producer71" in="00:07:09.960" out="00:07:10.720"/>
    <transition id="transition126" out="00:00:00.760">
      <property name="a_track">0</property>
      <property name="b_track">1</property>
      <property name="factory">loader</property>
      <property name="mlt_service">luma</property>
      <property name="alpha_over">1</property>
    </transition>
    <transition id="transition127" out="00:00:00.760">
      <property name="a_track">0</property>
      <property name="b_track">1</property>
      <property name="mlt_service">mix</property>
      <property name="start">-1</property>
      <property name="accepts_blanks">1</property>
    </transition>
  </tractor>
  <producer id="producer72" in="00:00:00.000" out="00:25:00.440">
    <property name="length">00:25:00.480</property>
    <property name="eof">pause</property>
    <property name="resource">T:/video/para/sardinien_2020/18092020_littigheddu_long_1_20h/VIRB0111-3.MP4</property>
    <property name="audio_index">1</property>
    <property name="video_index">0</property>
    <property name="mute_on_pause">0</property>
    <property name="mlt_service">avformat-novalidate</property>
    <property name="seekable">1</property>
    <property name="aspect_ratio">1</property>
    <property name="creation_time">2020-09-18T17:16:09</property>
    <property name="global_feed">1</property>
    <property name="xml">was here</property>
    <property name="shotcut:hash">4ee57e8faaa6cc87aee3961f8ee582bb</property>
    <property name="shotcut:caption">VIRB0111-3.MP4</property>
  </producer>
  <tractor id="tractor64" global_feed="1" in="00:00:00.000" out="00:00:00.640">
    <property name="shotcut:transition">lumaMix</property>
    <track producer="producer71" in="00:07:12.440" out="00:07:13.080"/>
    <track producer="producer72" in="00:07:26.320" out="00:07:26.960"/>
    <transition id="transition128" out="00:00:00.640">
      <property name="a_track">0</property>
      <property name="b_track">1</property>
      <property name="factory">loader</property>
      <property name="mlt_service">luma</property>
      <property name="alpha_over">1</property>
    </transition>
    <transition id="transition129" out="00:00:00.640">
      <property name="a_track">0</property>
      <property name="b_track">1</property>
      <property name="mlt_service">mix</property>
      <property name="start">-1</property>
      <property name="accepts_blanks">1</property>
    </transition>
  </tractor>
  <producer id="producer73" in="00:00:00.000" out="00:25:00.440">
    <property name="length">00:25:00.480</property>
    <property name="eof">pause</property>
    <property name="resource">T:/video/para/sardinien_2020/18092020_littigheddu_long_1_20h/VIRB0111-3.MP4</property>
    <property name="audio_index">1</property>
    <property name="video_index">0</property>
    <property name="mute_on_pause">0</property>
    <property name="mlt_service">avformat-novalidate</property>
    <property name="seekable">1</property>
    <property name="aspect_ratio">1</property>
    <property name="creation_time">2020-09-18T17:16:09</property>
    <property name="global_feed">1</property>
    <property name="xml">was here</property>
    <property name="shotcut:hash">4ee57e8faaa6cc87aee3961f8ee582bb</property>
    <property name="shotcut:caption">VIRB0111-3.MP4</property>
  </producer>
  <tractor id="tractor65" global_feed="1" in="00:00:00.000" out="00:00:01.200">
    <property name="shotcut:transition">lumaMix</property>
    <track producer="producer72" in="00:07:29.720" out="00:07:30.920"/>
    <track producer="producer73" in="00:08:08.440" out="00:08:09.640"/>
    <transition id="transition130" out="00:00:01.200">
      <property name="a_track">0</property>
      <property name="b_track">1</property>
      <property name="factory">loader</property>
      <property name="mlt_service">luma</property>
      <property name="alpha_over">1</property>
    </transition>
    <transition id="transition131" out="00:00:01.200">
      <property name="a_track">0</property>
      <property name="b_track">1</property>
      <property name="mlt_service">mix</property>
      <property name="start">-1</property>
      <property name="accepts_blanks">1</property>
    </transition>
  </tractor>
  <producer id="producer74" in="00:00:00.000" out="00:25:00.440">
    <property name="length">00:25:00.480</property>
    <property name="eof">pause</property>
    <property name="resource">T:/video/para/sardinien_2020/18092020_littigheddu_long_1_20h/VIRB0111-3.MP4</property>
    <property name="audio_index">1</property>
    <property name="video_index">0</property>
    <property name="mute_on_pause">0</property>
    <property name="mlt_service">avformat-novalidate</property>
    <property name="seekable">1</property>
    <property name="aspect_ratio">1</property>
    <property name="creation_time">2020-09-18T17:16:09</property>
    <property name="global_feed">1</property>
    <property name="xml">was here</property>
    <property name="shotcut:hash">4ee57e8faaa6cc87aee3961f8ee582bb</property>
    <property name="shotcut:caption">VIRB0111-3.MP4</property>
  </producer>
  <tractor id="tractor66" global_feed="1" in="00:00:00.000" out="00:00:01.360">
    <property name="shotcut:transition">lumaMix</property>
    <track producer="producer73" in="00:08:24.200" out="00:08:25.560"/>
    <track producer="producer74" in="00:09:27.480" out="00:09:28.840"/>
    <transition id="transition132" out="00:00:01.360">
      <property name="a_track">0</property>
      <property name="b_track">1</property>
      <property name="factory">loader</property>
      <property name="mlt_service">luma</property>
      <property name="alpha_over">1</property>
    </transition>
    <transition id="transition133" out="00:00:01.360">
      <property name="a_track">0</property>
      <property name="b_track">1</property>
      <property name="mlt_service">mix</property>
      <property name="start">-1</property>
      <property name="accepts_blanks">1</property>
    </transition>
  </tractor>
  <producer id="producer75" in="00:00:00.000" out="00:25:00.440">
    <property name="length">00:25:00.480</property>
    <property name="eof">pause</property>
    <property name="resource">T:/video/para/sardinien_2020/18092020_littigheddu_long_1_20h/VIRB0111-3.MP4</property>
    <property name="audio_index">1</property>
    <property name="video_index">0</property>
    <property name="mute_on_pause">0</property>
    <property name="mlt_service">avformat-novalidate</property>
    <property name="seekable">1</property>
    <property name="aspect_ratio">1</property>
    <property name="creation_time">2020-09-18T17:16:09</property>
    <property name="global_feed">1</property>
    <property name="xml">was here</property>
    <property name="shotcut:hash">4ee57e8faaa6cc87aee3961f8ee582bb</property>
    <property name="shotcut:caption">VIRB0111-3.MP4</property>
  </producer>
  <tractor id="tractor67" global_feed="1" in="00:00:00.000" out="00:00:00.880">
    <property name="shotcut:transition">lumaMix</property>
    <track producer="producer74" in="00:09:40.320" out="00:09:41.200"/>
    <track producer="producer75" in="00:09:56.920" out="00:09:57.800"/>
    <transition id="transition134" out="00:00:00.880">
      <property name="a_track">0</property>
      <property name="b_track">1</property>
      <property name="factory">loader</property>
      <property name="mlt_service">luma</property>
      <property name="alpha_over">1</property>
    </transition>
    <transition id="transition135" out="00:00:00.880">
      <property name="a_track">0</property>
      <property name="b_track">1</property>
      <property name="mlt_service">mix</property>
      <property name="start">-1</property>
      <property name="accepts_blanks">1</property>
    </transition>
  </tractor>
  <producer id="producer76" in="00:00:00.000" out="00:25:00.440">
    <property name="length">00:25:00.480</property>
    <property name="eof">pause</property>
    <property name="resource">T:/video/para/sardinien_2020/18092020_littigheddu_long_1_20h/VIRB0111-3.MP4</property>
    <property name="audio_index">1</property>
    <property name="video_index">0</property>
    <property name="mute_on_pause">0</property>
    <property name="mlt_service">avformat-novalidate</property>
    <property name="seekable">1</property>
    <property name="aspect_ratio">1</property>
    <property name="creation_time">2020-09-18T17:16:09</property>
    <property name="global_feed">1</property>
    <property name="xml">was here</property>
    <property name="shotcut:hash">4ee57e8faaa6cc87aee3961f8ee582bb</property>
    <property name="shotcut:caption">VIRB0111-3.MP4</property>
  </producer>
  <tractor id="tractor68" global_feed="1" in="00:00:00.000" out="00:00:00.960">
    <property name="shotcut:transition">lumaMix</property>
    <track producer="producer75" in="00:10:00.000" out="00:10:00.960"/>
    <track producer="producer76" in="00:10:19.840" out="00:10:20.800"/>
    <transition id="transition136" out="00:00:00.960">
      <property name="a_track">0</property>
      <property name="b_track">1</property>
      <property name="factory">loader</property>
      <property name="mlt_service">luma</property>
      <property name="alpha_over">1</property>
    </transition>
    <transition id="transition137" out="00:00:00.960">
      <property name="a_track">0</property>
      <property name="b_track">1</property>
      <property name="mlt_service">mix</property>
      <property name="start">-1</property>
      <property name="accepts_blanks">1</property>
    </transition>
  </tractor>
  <producer id="producer77" in="00:00:00.000" out="00:06:45.200">
    <property name="length">00:06:45.240</property>
    <property name="eof">pause</property>
    <property name="resource">T:/video/para/sardinien_2020/18092020_littigheddu_long_1_20h/VIRB0111-4.MP4</property>
    <property name="audio_index">1</property>
    <property name="video_index">0</property>
    <property name="mute_on_pause">0</property>
    <property name="mlt_service">avformat-novalidate</property>
    <property name="seekable">1</property>
    <property name="aspect_ratio">1</property>
    <property name="creation_time">2020-09-18T17:41:10</property>
    <property name="shotcut:hash">8c177074600d8df5b3ca0e3a96f98639</property>
    <property name="ignore_points">0</property>
    <property name="global_feed">1</property>
    <property name="xml">was here</property>
    <property name="shotcut:caption">VIRB0111-4.MP4</property>
  </producer>
  <tractor id="tractor69" global_feed="1" in="00:00:00.000" out="00:00:00.920">
    <property name="shotcut:transition">lumaMix</property>
    <track producer="producer76" in="00:10:24.280" out="00:10:25.200"/>
    <track producer="producer77" in="00:04:12.960" out="00:04:13.880"/>
    <transition id="transition138" out="00:00:00.920">
      <property name="a_track">0</property>
      <property name="b_track">1</property>
      <property name="factory">loader</property>
      <property name="mlt_service">luma</property>
      <property name="alpha_over">1</property>
    </transition>
    <transition id="transition139" out="00:00:00.920">
      <property name="a_track">0</property>
      <property name="b_track">1</property>
      <property name="mlt_service">mix</property>
      <property name="start">-1</property>
      <property name="accepts_blanks">1</property>
    </transition>
  </tractor>
  <producer id="producer78" in="00:00:00.000" out="00:06:45.200">
    <property name="length">00:06:45.240</property>
    <property name="eof">pause</property>
    <property name="resource">T:/video/para/sardinien_2020/18092020_littigheddu_long_1_20h/VIRB0111-4.MP4</property>
    <property name="audio_index">1</property>
    <property name="video_index">0</property>
    <property name="mute_on_pause">0</property>
    <property name="mlt_service">avformat-novalidate</property>
    <property name="seekable">1</property>
    <property name="aspect_ratio">1</property>
    <property name="creation_time">2020-09-18T17:41:10</property>
    <property name="shotcut:hash">8c177074600d8df5b3ca0e3a96f98639</property>
    <property name="ignore_points">0</property>
    <property name="global_feed">1</property>
    <property name="xml">was here</property>
    <property name="shotcut:caption">VIRB0111-4.MP4</property>
  </producer>
  <tractor id="tractor70" global_feed="1" in="00:00:00.000" out="00:00:00.640">
    <property name="shotcut:transition">lumaMix</property>
    <track producer="producer77" in="00:04:19.960" out="00:04:20.600"/>
    <track producer="producer78" in="00:05:56.720" out="00:05:57.360"/>
    <transition id="transition140" out="00:00:00.640">
      <property name="a_track">0</property>
      <property name="b_track">1</property>
      <property name="factory">loader</property>
      <property name="mlt_service">luma</property>
      <property name="alpha_over">1</property>
    </transition>
    <transition id="transition141" out="00:00:00.640">
      <property name="a_track">0</property>
      <property name="b_track">1</property>
      <property name="mlt_service">mix</property>
      <property name="start">-1</property>
      <property name="accepts_blanks">1</property>
    </transition>
  </tractor>
  <producer id="producer79" in="00:00:00.000" out="00:06:45.200">
    <property name="length">00:06:45.240</property>
    <property name="eof">pause</property>
    <property name="resource">T:/video/para/sardinien_2020/18092020_littigheddu_long_1_20h/VIRB0111-4.MP4</property>
    <property name="audio_index">1</property>
    <property name="video_index">0</property>
    <property name="mute_on_pause">0</property>
    <property name="mlt_service">avformat-novalidate</property>
    <property name="seekable">1</property>
    <property name="aspect_ratio">1</property>
    <property name="creation_time">2020-09-18T17:41:10</property>
    <property name="shotcut:hash">8c177074600d8df5b3ca0e3a96f98639</property>
    <property name="ignore_points">0</property>
    <property name="global_feed">1</property>
    <property name="xml">was here</property>
    <property name="shotcut:caption">VIRB0111-4.MP4</property>
  </producer>
  <tractor id="tractor71" global_feed="1" in="00:00:00.000" out="00:00:00.520">
    <property name="shotcut:transition">lumaMix</property>
    <track producer="producer78" in="00:05:59.960" out="00:06:00.480"/>
    <track producer="producer79" in="00:06:13.560" out="00:06:14.080"/>
    <transition id="transition142" out="00:00:00.520">
      <property name="a_track">0</property>
      <property name="b_track">1</property>
      <property name="factory">loader</property>
      <property name="mlt_service">luma</property>
      <property name="alpha_over">1</property>
    </transition>
    <transition id="transition143" out="00:00:00.520">
      <property name="a_track">0</property>
      <property name="b_track">1</property>
      <property name="mlt_service">mix</property>
      <property name="start">-1</property>
      <property name="accepts_blanks">1</property>
    </transition>
  </tractor>
  <producer id="producer80" in="00:00:00.000" out="00:06:45.200">
    <property name="length">00:06:45.240</property>
    <property name="eof">pause</property>
    <property name="resource">T:/video/para/sardinien_2020/18092020_littigheddu_long_1_20h/VIRB0111-4.MP4</property>
    <property name="audio_index">1</property>
    <property name="video_index">0</property>
    <property name="mute_on_pause">0</property>
    <property name="mlt_service">avformat-novalidate</property>
    <property name="seekable">1</property>
    <property name="aspect_ratio">1</property>
    <property name="creation_time">2020-09-18T17:41:10</property>
    <property name="shotcut:hash">8c177074600d8df5b3ca0e3a96f98639</property>
    <property name="ignore_points">1</property>
    <property name="global_feed">1</property>
    <property name="xml">was here</property>
    <property name="shotcut:caption">VIRB0111-4.MP4</property>
  </producer>
  <tractor id="tractor72" global_feed="1" in="00:00:00.000" out="00:00:00.480">
    <property name="shotcut:transition">lumaMix</property>
    <track producer="producer79" in="00:06:14.680" out="00:06:15.160"/>
    <track producer="producer80" in="00:06:27.000" out="00:06:27.480"/>
    <transition id="transition144" out="00:00:00.480">
      <property name="a_track">0</property>
      <property name="b_track">1</property>
      <property name="factory">loader</property>
      <property name="mlt_service">luma</property>
      <property name="alpha_over">1</property>
    </transition>
    <transition id="transition145" out="00:00:00.480">
      <property name="a_track">0</property>
      <property name="b_track">1</property>
      <property name="mlt_service">mix</property>
      <property name="start">-1</property>
      <property name="accepts_blanks">1</property>
    </transition>
  </tractor>
  <playlist id="playlist0">
    <property name="shotcut:video">1</property>
    <property name="shotcut:name">V1</property>
    <entry producer="producer6" in="00:00:00.000" out="00:00:20.640"/>
    <entry producer="tractor0" in="00:00:00.000" out="00:00:00.400"/>
    <entry producer="producer7" in="00:00:01.800" out="00:00:16.280"/>
    <entry producer="tractor1" in="00:00:00.000" out="00:00:00.440"/>
    <entry producer="producer8" in="00:02:31.720" out="00:02:48.840"/>
    <entry producer="tractor2" in="00:00:00.000" out="00:00:00.400"/>
    <entry producer="producer9" in="00:03:26.520" out="00:03:35.120"/>
    <entry producer="tractor3" in="00:00:00.000" out="00:00:00.400"/>
    <entry producer="producer10" in="00:03:36.040" out="00:03:47.720"/>
    <entry producer="tractor4" in="00:00:00.000" out="00:00:00.560"/>
    <entry producer="producer11" in="00:04:33.280" out="00:04:51.360"/>
    <entry producer="tractor5" in="00:00:00.000" out="00:00:00.680"/>
    <entry producer="producer12" in="00:05:55.160" out="00:06:14.240"/>
    <entry producer="tractor6" in="00:00:00.000" out="00:00:00.480"/>
    <entry producer="producer13" in="00:06:15.320" out="00:06:19.320"/>
    <entry producer="tractor7" in="00:00:00.000" out="00:00:00.480"/>
    <entry producer="producer14" in="00:06:45.560" out="00:06:52.440"/>
    <entry producer="tractor8" in="00:00:00.000" out="00:00:00.600"/>
    <entry producer="producer15" in="00:07:10.680" out="00:07:27.440"/>
    <entry producer="tractor9" in="00:00:00.000" out="00:00:00.360"/>
    <entry producer="producer16" in="00:08:56.640" out="00:09:24.760"/>
    <entry producer="tractor10" in="00:00:00.000" out="00:00:00.680"/>
    <entry producer="producer17" in="00:09:53.120" out="00:10:14.000"/>
    <entry producer="tractor11" in="00:00:00.000" out="00:00:00.680"/>
    <entry producer="producer18" in="00:10:15.480" out="00:10:35.320"/>
    <entry producer="tractor12" in="00:00:00.000" out="00:00:00.400"/>
    <entry producer="producer19" in="00:11:14.600" out="00:11:22.360"/>
    <entry producer="tractor13" in="00:00:00.000" out="00:00:00.440"/>
    <entry producer="producer20" in="00:11:23.360" out="00:11:24.800"/>
    <entry producer="tractor14" in="00:00:00.000" out="00:00:00.520"/>
    <entry producer="producer21" in="00:11:55.120" out="00:11:56.280"/>
    <entry producer="tractor15" in="00:00:00.000" out="00:00:00.640"/>
    <entry producer="producer22" in="00:11:57.680" out="00:12:02.080"/>
    <entry producer="tractor16" in="00:00:00.000" out="00:00:00.560"/>
    <entry producer="producer23" in="00:12:33.200" out="00:12:35.280"/>
    <entry producer="tractor17" in="00:00:00.000" out="00:00:00.480"/>
    <entry producer="producer24" in="00:13:56.800" out="00:14:00.880"/>
    <entry producer="tractor18" in="00:00:00.000" out="00:00:00.600"/>
    <entry producer="producer26" in="00:14:02.200" out="00:14:10.760"/>
    <entry producer="tractor19" in="00:00:00.000" out="00:00:00.640"/>
    <entry producer="producer27" in="00:15:06.320" out="00:15:09.440"/>
    <entry producer="tractor20" in="00:00:00.000" out="00:00:00.480"/>
    <entry producer="producer28" in="00:15:22.720" out="00:15:25.200"/>
    <entry producer="tractor21" in="00:00:00.000" out="00:00:00.640"/>
    <entry producer="producer29" in="00:15:26.600" out="00:15:29.440"/>
    <entry producer="tractor22" in="00:00:00.000" out="00:00:00.680"/>
    <entry producer="producer30" in="00:18:57.480" out="00:19:03.800"/>
    <entry producer="tractor23" in="00:00:00.000" out="00:00:01.160"/>
    <entry producer="producer31" in="00:19:06.240" out="00:19:17.400"/>
    <entry producer="tractor24" in="00:00:00.000" out="00:00:00.680"/>
    <entry producer="producer32" in="00:19:18.880" out="00:19:21.320"/>
    <entry producer="tractor25" in="00:00:00.000" out="00:00:00.640"/>
    <entry producer="producer33" in="00:19:22.720" out="00:19:28.240"/>
    <entry producer="tractor26" in="00:00:00.000" out="00:00:00.680"/>
    <entry producer="producer34" in="00:19:42.800" out="00:19:53.480"/>
    <entry producer="tractor27" in="00:00:00.000" out="00:00:00.440"/>
    <entry producer="producer35" in="00:19:54.480" out="00:19:56.800"/>
    <entry producer="tractor28" in="00:00:00.000" out="00:00:00.520"/>
    <entry producer="producer36" in="00:19:57.960" out="00:20:05.800"/>
    <entry producer="tractor29" in="00:00:00.000" out="00:00:00.720"/>
    <entry producer="producer37" in="00:20:36.800" out="00:20:41.200"/>
    <entry producer="tractor30" in="00:00:00.000" out="00:00:00.720"/>
    <entry producer="producer38" in="00:22:55.040" out="00:23:37.040"/>
    <entry producer="tractor31" in="00:00:00.000" out="00:00:00.680"/>
    <entry producer="producer39" in="00:23:38.520" out="00:23:48.280"/>
    <entry producer="tractor32" in="00:00:00.000" out="00:00:00.760"/>
    <entry producer="producer40" in="00:00:00.800" out="00:01:46.320"/>
    <entry producer="tractor33" in="00:00:00.000" out="00:00:00.240"/>
    <entry producer="producer41" in="00:01:46.920" out="00:01:48.640"/>
    <entry producer="tractor34" in="00:00:00.000" out="00:00:00.520"/>
    <entry producer="producer42" in="00:03:04.680" out="00:03:51.280"/>
    <entry producer="tractor35" in="00:00:00.000" out="00:00:00.480"/>
    <entry producer="producer43" in="00:04:35.360" out="00:04:55.800"/>
    <entry producer="tractor36" in="00:00:00.000" out="00:00:00.840"/>
    <entry producer="producer44" in="00:04:57.600" out="00:05:10.320"/>
    <entry producer="tractor37" in="00:00:00.000" out="00:00:00.760"/>
    <entry producer="producer45" in="00:06:29.240" out="00:06:33.440"/>
    <entry producer="tractor38" in="00:00:00.000" out="00:00:00.720"/>
    <entry producer="producer46" in="00:07:59.080" out="00:08:01.240"/>
    <entry producer="tractor39" in="00:00:00.000" out="00:00:00.200"/>
    <entry producer="producer47" in="00:08:01.760" out="00:08:02.360"/>
    <entry producer="tractor40" in="00:00:00.000" out="00:00:00.400"/>
    <entry producer="producer48" in="00:09:40.680" out="00:09:50.520"/>
    <entry producer="tractor41" in="00:00:00.000" out="00:00:00.520"/>
    <entry producer="producer49" in="00:11:14.760" out="00:11:29.560"/>
    <entry producer="tractor42" in="00:00:00.000" out="00:00:00.480"/>
    <entry producer="producer50" in="00:11:30.640" out="00:12:18.400"/>
    <entry producer="tractor43" in="00:00:00.000" out="00:00:00.280"/>
    <entry producer="producer51" in="00:12:19.080" out="00:12:19.840"/>
    <entry producer="tractor44" in="00:00:00.000" out="00:00:00.240"/>
    <entry producer="producer52" in="00:12:20.440" out="00:12:27.040"/>
    <entry producer="tractor45" in="00:00:00.000" out="00:00:00.400"/>
    <entry producer="producer53" in="00:16:08.160" out="00:16:32.000"/>
    <entry producer="tractor46" in="00:00:00.000" out="00:00:00.680"/>
    <entry producer="producer54" in="00:16:33.480" out="00:16:35.560"/>
    <entry producer="tractor47" in="00:00:00.000" out="00:00:00.760"/>
    <entry producer="producer55" in="00:16:37.200" out="00:16:42.080"/>
    <entry producer="tractor48" in="00:00:00.000" out="00:00:00.800"/>
    <entry producer="producer56" in="00:20:13.480" out="00:20:59.640"/>
    <entry producer="tractor49" in="00:00:00.000" out="00:00:00.600"/>
    <entry producer="producer57" in="00:21:00.960" out="00:21:09.680"/>
    <entry producer="tractor50" in="00:00:00.000" out="00:00:00.600"/>
    <entry producer="producer58" in="00:21:11.000" out="00:21:22.280"/>
    <entry producer="tractor51" in="00:00:00.000" out="00:00:00.680"/>
    <entry producer="producer59" in="00:21:23.760" out="00:21:35.360"/>
    <entry producer="tractor52" in="00:00:00.000" out="00:00:00.680"/>
    <entry producer="producer60" in="00:00:00.720" out="00:00:11.080"/>
    <entry producer="tractor53" in="00:00:00.000" out="00:00:00.440"/>
    <entry producer="producer61" in="00:00:12.080" out="00:00:14.240"/>
    <entry producer="tractor54" in="00:00:00.000" out="00:00:00.520"/>
    <entry producer="producer62" in="00:00:15.400" out="00:00:21.520"/>
    <entry producer="tractor55" in="00:00:00.000" out="00:00:00.680"/>
    <entry producer="producer63" in="00:00:59.040" out="00:01:02.280"/>
    <entry producer="tractor56" in="00:00:00.000" out="00:00:01.240"/>
    <entry producer="producer64" in="00:01:59.920" out="00:02:18.960"/>
    <entry producer="tractor57" in="00:00:00.000" out="00:00:00.720"/>
    <entry producer="producer65" in="00:05:32.880" out="00:05:36.240"/>
    <entry producer="tractor58" in="00:00:00.000" out="00:00:00.560"/>
    <entry producer="producer66" in="00:05:37.480" out="00:05:42.880"/>
    <entry producer="tractor59" in="00:00:00.000" out="00:00:00.560"/>
    <entry producer="producer67" in="00:05:53.120" out="00:05:54.280"/>
    <entry producer="tractor60" in="00:00:00.000" out="00:00:00.400"/>
    <entry producer="producer68" in="00:06:25.360" out="00:06:26.360"/>
    <entry producer="tractor61" in="00:00:00.000" out="00:00:00.440"/>
    <entry producer="producer69" in="00:06:44.280" out="00:06:45.160"/>
    <entry producer="tractor62" in="00:00:00.000" out="00:00:00.480"/>
    <entry producer="producer70" in="00:06:52.440" out="00:07:04.800"/>
    <entry producer="tractor63" in="00:00:00.000" out="00:00:00.760"/>
    <entry producer="producer71" in="00:07:10.760" out="00:07:12.400"/>
    <entry producer="tractor64" in="00:00:00.000" out="00:00:00.640"/>
    <entry producer="producer72" in="00:07:27.000" out="00:07:29.680"/>
    <entry producer="tractor65" in="00:00:00.000" out="00:00:01.200"/>
    <entry producer="producer73" in="00:08:09.680" out="00:08:24.160"/>
    <entry producer="tractor66" in="00:00:00.000" out="00:00:01.360"/>
    <entry producer="producer74" in="00:09:28.880" out="00:09:40.280"/>
    <entry producer="tractor67" in="00:00:00.000" out="00:00:00.880"/>
    <entry producer="producer75" in="00:09:57.840" out="00:09:59.960"/>
    <entry producer="tractor68" in="00:00:00.000" out="00:00:00.960"/>
    <entry producer="producer76" in="00:10:20.840" out="00:10:24.240"/>
    <entry producer="tractor69" in="00:00:00.000" out="00:00:00.920"/>
    <entry producer="producer77" in="00:04:13.920" out="00:04:19.920"/>
    <entry producer="tractor70" in="00:00:00.000" out="00:00:00.640"/>
    <entry producer="producer78" in="00:05:57.400" out="00:05:59.920"/>
    <entry producer="tractor71" in="00:00:00.000" out="00:00:00.520"/>
    <entry producer="producer79" in="00:06:14.120" out="00:06:14.640"/>
    <entry producer="tractor72" in="00:00:00.000" out="00:00:00.480"/>
    <entry producer="producer80" in="00:06:27.520" out="00:06:45.200"/>
  </playlist>
  <tractor id="tractor73" title="Shotcut version 20.09.13" global_feed="1" in="00:00:00.000" out="00:15:06.680">
    <property name="shotcut">1</property>
    <property name="shotcut:scaleFactor">0.0747312</property>
    <property name="shotcut:projectAudioChannels">2</property>
    <property name="shotcut:projectFolder">1</property>
    <property name="shotcut:trackHeight">30</property>
    <track producer="background"/>
    <track producer="playlist0" hide="audio"/>
    <transition id="transition146">
      <property name="a_track">0</property>
      <property name="b_track">1</property>
      <property name="mlt_service">mix</property>
      <property name="always_active">1</property>
      <property name="sum">1</property>
    </transition>
    <transition id="transition147">
      <property name="a_track">0</property>
      <property name="b_track">1</property>
      <property name="version">0.9</property>
      <property name="mlt_service">frei0r.cairoblend</property>
      <property name="disable">1</property>
    </transition>
  </tractor>
</mlt>
